<?xml version="1.0" encoding="UTF-8"?>
<svg width="20px" height="20px" viewBox="0 0 20 20" version="1.1" xmlns="http://www.w3.org/2000/svg" xmlns:xlink="http://www.w3.org/1999/xlink">
    <!-- Generator: Sketch 60 (88103) - https://sketch.com -->
    <title>订单</title>
    <desc>Created with Sketch.</desc>
    <g id="海外一期" stroke="none" stroke-width="1" fill="none" fill-rule="evenodd">
        <g id="E00-个人中心" transform="translate(-1799.000000, -154.000000)">
            <g id="订单备份" transform="translate(1799.000000, 154.000000)">
                <rect id="矩形" x="0" y="0" width="20" height="20"></rect>
                <g id="我的商城备份" transform="translate(2.000000, 4.300186)" fill="#242933" fill-rule="nonzero">
                    <path d="M14.5,0 C15.3284271,0 16,0.671572875 16,1.5 L16,8 C16,10.209139 14.209139,12 12,12 L5,12 C2.790861,12 1,10.209139 1,8 L1,1.5 C1,0.671572875 1.67157288,0 2.5,0 L14.5,0 Z M14.5,1 L2.5,1 C2.25454011,1 2.05039163,1.17687516 2.00805567,1.41012437 L2,1.5 L2,8 C2,9.59768088 3.24891996,10.9036609 4.82372721,10.9949073 L5,11 L12,11 C13.5976809,11 14.9036609,9.75108004 14.9949073,8.17627279 L15,8 L15,1.5 C15,1.25454011 14.8231248,1.05039163 14.5898756,1.00805567 L14.5,1 Z" id="矩形"></path>
                    <polygon id="矩形" points="11 4 11 5 6 5 6 4"></polygon>
                    <polygon id="矩形备份-24" points="11 7 11 8 6 8 6 7"></polygon>
                </g>
            </g>
        </g>
    </g>
</svg>