<?xml version="1.0" encoding="utf-8"?>
<!-- Generator: Adobe Illustrator 24.0.1, SVG Export Plug-In . SVG Version: 6.00 Build 0)  -->
<svg version="1.1" id="图层_1" xmlns="http://www.w3.org/2000/svg" xmlns:xlink="http://www.w3.org/1999/xlink" x="0px" y="0px"
	 viewBox="0 0 434 75" style="enable-background:new 0 0 434 75;" xml:space="preserve">
<style type="text/css">
	.st0{fill:#FFFFFF;}
</style>
<title>GALAXY A54 5G</title>
<g id="页面-1">
	<g id="th-pc" transform="translate(-1480.000000, -3134.000000)">
		<g id="GALAXY-A54-5G" transform="translate(1119.000000, 2691.000000)">
			<g transform="translate(361.000000, 443.000000)">
				<path id="路径" class="st0" d="M42.1,73c3.9,0,7-0.9,9.3-2.5c1.9-1.4,3.6-3.8,5.1-7.2l0,0L84,2H69.6L45.4,57.6
					c-0.9,1.9-2,2.8-3.3,2.8c-1.4,0-2.6-0.9-3.5-2.8l0,0L14.6,2H0l27.6,61.3c1.4,3.3,3.2,5.8,5.2,7.3C35,72.2,38.1,73,42.1,73z"/>
				<path id="路径_1_" class="st0" d="M153.3,72V60.5h-48.2V57c0-3.3,0.9-5.8,2.6-7.4c1.7-1.6,5.2-3.1,10.1-4.4l0,0l15.1-4
					c7.5-2,12.7-4.2,15.8-6.7c4.1-3.3,6.2-8,6.2-14.1c0-6.8-2.4-11.7-7.3-14.7C143,2.5,135.1,1,124.3,1c-10.1,0-20.1,1-29.9,3l0,0
					v11.7c8.5-2.1,17.9-3.2,28.3-3.2c7.2,0,12.2,0.7,14.9,1.9c2.6,1.2,4,3.4,4,6.6c0,2.7-1.2,4.9-3.6,6.5c-1.7,1.1-5,2.3-9.9,3.6
					l0,0L111,35.2c-9.2,2.5-14.8,6.1-16.8,10.9c-1.5,3.1-2.2,7.1-2.1,11.9l0,0V72H153.3z"/>
				<path id="路径_2_" class="st0" d="M191.9,72l38-55.8c2.1-2.8,3.1-5.3,3.1-7.7c0-2-0.6-3.6-1.8-4.6c-1.4-1.2-3.5-1.8-6.3-1.8
					l0,0H164v11.4h53.3L175.9,72H191.9z"/>
				<g id="编组-9" transform="translate(269.000000, 0.000000)">
					<path id="Fill-7" class="st0" d="M94.6,46.5c0.2,0.1,0.3-0.2,0.1-0.3c-2.8-1.8-4.3-4.7-4.3-9.1c0-8.5,6.4-11.1,19.6-11.1
						c6.7,0,12.4,0.7,16.5,1.2c2.7,0.3,5.1-1.7,5.1-4.5v-3.5c-2.8-0.8-9.9-2.2-21.6-2.2c-13.1,0-22.2,2.5-26.6,8.5
						c-1,1.4-2.3,4.2-1.6,8.1C82.8,39.5,87.9,44,94.6,46.5"/>
					<path id="Fill-9" class="st0" d="M130,33.2h-18.9v3.9c0,2.5,2.1,4.6,4.7,4.6h7.8V47c-2.1,0.8-7.3,1.7-16.5,1.7
						c-9.3,0-16.7-1.8-21.5-5.5c-3-2.3-4.5-5.1-5.3-7.6c0,0.6-0.1,1.1-0.1,1.7c0,14.3,8.7,20.4,26,20.4c11,0,15.4-2.1,18.4-3.2
						l5.4,2.6c0.8,0.3,1.3,0.6,2.1,0.6c0.8,0,1.8-0.6,1.8-1.9V41.8v-4.5v-0.2C133.7,34.8,132.1,33.2,130,33.2"/>
					<path id="Fill-11" class="st0" d="M50,31.8c-4,0-9.9,0.4-13.2,0.7l1-6.3h28.5c2.8,0,5.1-2.3,5.1-5.1v-3.4H31.8
						c-1.2,0-2.3,0.9-2.5,2.1l-2.4,14.2c-0.7,3.5,0.6,6.1,4.8,6c7.8-0.2,11.3-0.3,17.2-0.3c10.8,0,14.2,0.4,14.2,4.7
						c0,4.1-3.3,4.7-14.3,4.7c-7.8,0-17.4-1.4-22.4-2.6v4.3c0,2.6,1.9,4.8,4.3,5.2c4.3,0.8,10.8,1.7,18.2,1.7
						c16.9,0,25.3-3.8,25.3-13.3C74.1,32.5,62.8,31.8,50,31.8"/>
					<g id="编组" transform="translate(0.375551, 0.000000)">
						<path id="Fill-13" class="st0" d="M126.2,67.7H36.6c-15,0-30-9.4-30-30.4c0-21.1,15-30.6,30-30.6h89.5
							c15,0,30.1,9.4,30.1,30.6C156.3,58.2,141.2,67.7,126.2,67.7 M151.3,9c-6.5-5.8-15.4-9-25.1-9H36.6C19,0,0,11.7,0,37.3
							c0,14.8,6.3,23.5,11.7,28.1c6.5,5.8,15.4,9,25,9h89.5c17.8,0,36.8-11.7,36.8-37.2C163,22.4,156.6,13.8,151.3,9"/>
					</g>
				</g>
			</g>
		</g>
	</g>
</g>
</svg>
