<?xml version="1.0" standalone="no"?>
<!DOCTYPE svg PUBLIC "-//W3C//DTD SVG 1.1//EN" "http://www.w3.org/Graphics/SVG/1.1/DTD/svg11.dtd" >
<svg xmlns="http://www.w3.org/2000/svg" xmlns:xlink="http://www.w3.org/1999/xlink" version="1.1">
<metadata>
Created by FontForge 20170924 at Wed Apr 11 10:30:34 2012
 By www-data
Copyright (c) 2004 - 2007 Linotype GmbH, www.linotype.com. All rights reserved.
</metadata>
<defs>
<font id="AvenirNext-Regular" horiz-adv-x="240" >
  <font-face 
    font-family="Avenir Next"
    font-weight="400"
    font-stretch="normal"
    units-per-em="1000"
    panose-1="2 11 5 3 2 2 2 2 2 4"
    ascent="800"
    descent="-200"
    x-height="468"
    cap-height="708"
    bbox="-205 -250 975 945"
    underline-thickness="50"
    underline-position="-50"
    unicode-range="U+000D-FB02"
  />
<missing-glyph horiz-adv-x="512" 
d="M222 117v67h56v-67h-56zM225 234l-2.00098 16.999c0 37.333 4.33301 64.333 13 81c4.66699 8.66699 10.667 17.834 18 27.501s16.666 20.167 27.999 31.5c10.667 10 19.334 18.833 26.001 26.5s11.667 14.667 15 21s5.66602 12.333 6.99902 18s2 11.5 2 17.5
c0 24 -7.5 44.167 -22.5 60.5s-32.833 24.5 -53.5 24.5s-38.5 -7.33301 -53.5 -22s-24.5 -39 -28.5 -73l-50 8c4.66699 48 19.334 82.833 44.001 104.5s55 32.5 91 32.5s65.667 -11.833 89 -35.5s35 -55.5 35 -95.5c0 -21.333 -4.16699 -40.833 -12.5 -58.5
s-25.166 -38.167 -50.499 -61.5c-24.667 -22 -39 -39.333 -43 -52c-4 -13.333 -6 -37.333 -6 -72h-46zM461.999 49.999v617h-412v-617h412zM511.999 717.999v-718h-512v718h512z" />
    <glyph glyph-name=".notdef" horiz-adv-x="512" 
d="M222 117v67h56v-67h-56zM225 234l-2.00098 16.999c0 37.333 4.33301 64.333 13 81c4.66699 8.66699 10.667 17.834 18 27.501s16.666 20.167 27.999 31.5c10.667 10 19.334 18.833 26.001 26.5s11.667 14.667 15 21s5.66602 12.333 6.99902 18s2 11.5 2 17.5
c0 24 -7.5 44.167 -22.5 60.5s-32.833 24.5 -53.5 24.5s-38.5 -7.33301 -53.5 -22s-24.5 -39 -28.5 -73l-50 8c4.66699 48 19.334 82.833 44.001 104.5s55 32.5 91 32.5s65.667 -11.833 89 -35.5s35 -55.5 35 -95.5c0 -21.333 -4.16699 -40.833 -12.5 -58.5
s-25.166 -38.167 -50.499 -61.5c-24.667 -22 -39 -39.333 -43 -52c-4 -13.333 -6 -37.333 -6 -72h-46zM461.999 49.999v617h-412v-617h412zM511.999 717.999v-718h-512v718h512z" />
    <glyph glyph-name=".null" horiz-adv-x="500" 
 />
    <glyph glyph-name=".null" horiz-adv-x="500" 
 />
    <glyph glyph-name="nonmarkingreturn" unicode="&#xd;" horiz-adv-x="0" 
 />
    <glyph glyph-name="space" unicode=" " horiz-adv-x="250" 
 />
    <glyph glyph-name="exclam" unicode="!" horiz-adv-x="328" 
d="M200 192h-72v516h72v-516zM218 48c0 -14 -5 -26.5 -15 -37.5s-23 -16.5 -39 -16.5s-29 5.5 -39 16.5s-15 23.5 -15 37.5s5 26.5 15 37.5s23 16.5 39 16.5s29 -5.5 39 -16.5s15 -23.5 15 -37.5z" />
    <glyph glyph-name="quotedbl" unicode="&#x22;" horiz-adv-x="405" 
d="M100 708h60v-235h-60v235zM245 708h60v-235h-60v235z" />
    <glyph glyph-name="numbersign" unicode="#" horiz-adv-x="556" 
d="M137 214h-102v60h110l22 162h-108v60h117l29 212h61l-29 -212h133l29 212h61l-29 -212h90v-60h-99l-22 -162h95v-60h-103l-30 -214h-61l30 214h-133l-30 -214h-61zM206 274h133l22 162h-133z" />
    <glyph glyph-name="dollar" unicode="$" horiz-adv-x="580" 
d="M263 664c-34.667 -1.33301 -64 -13.5 -88 -36.5s-36 -53.5 -36 -91.5c0 -36 11.333 -64.167 34 -84.5s52.667 -35.5 90 -45.5v258zM311 46c14.667 0.666992 29.832 3.5 45.499 8.5s29.834 12.833 42.501 23.5s23 24.5 31 41.5s12 37.833 12 62.5
c0 34 -12.333 62.667 -37 86s-56 41 -94 53v-275zM262.998 333c-22.667 6.66699 -45.498 15 -68.498 25s-43.667 22.667 -62 38s-33.333 33.833 -45 55.5s-17.5 47.834 -17.5 78.501c0 28.667 5.16699 54.5 15.5 77.5s24.333 42.667 42 59s38.167 29 61.5 38
s48 14.167 74 15.5v72h48v-72c16 -0.666992 32.5 -2.66699 49.5 -6s33.667 -8.33301 50 -15s31.833 -15 46.5 -25s27.667 -21.667 39 -35l-55 -42c-15.333 22 -34.833 38.5 -58.5 49.5s-47.5 16.833 -71.5 17.5v-275c25.333 -8.66699 50.166 -18.5 74.499 -29.5
s46 -24.667 65 -41s34.333 -35.833 46 -58.5s17.5 -50.334 17.5 -83.001c0 -28 -5.16699 -53.5 -15.5 -76.5s-24.666 -42.667 -42.999 -59s-39.833 -29.166 -64.5 -38.499s-51.334 -14.333 -80.001 -15v-72h-48v72c-45.333 1.33301 -85.833 11.666 -121.5 30.999
s-65.5 44.333 -89.5 75l57 40c8.66699 -15.333 19.667 -28.333 33 -39s27.166 -19.667 41.499 -27s28.5 -12.833 42.5 -16.5s26.333 -5.5 37 -5.5v287z" />
    <glyph glyph-name="percent" unicode="%" horiz-adv-x="833" 
d="M390 545c0 -24.667 -4.5 -47.667 -13.5 -69s-21.5 -39.833 -37.5 -55.5s-34.667 -28 -56 -37s-44.333 -13.5 -69 -13.5s-47.667 4.5 -69 13.5s-40 21.333 -56 37s-28.5 34.167 -37.5 55.5s-13.5 44.333 -13.5 69s4.5 47.667 13.5 69s21.5 39.833 37.5 55.5
s34.667 28 56 37s44.333 13.5 69 13.5s47.667 -4.5 69 -13.5s40 -21.333 56 -37s28.5 -34.167 37.5 -55.5s13.5 -44.333 13.5 -69zM330 545c0 16.667 -3.16699 32 -9.5 46s-14.666 26.167 -24.999 36.5s-22.5 18.333 -36.5 24s-29 8.5 -45 8.5s-31 -2.83301 -45 -8.5
s-26.167 -13.667 -36.5 -24s-18.666 -22.5 -24.999 -36.5s-9.5 -29.333 -9.5 -46s3.16699 -32 9.5 -46s14.666 -26.167 24.999 -36.5s22.5 -18.333 36.5 -24s29 -8.5 45 -8.5s31 2.83301 45 8.5s26.167 13.667 36.5 24s18.666 22.5 24.999 36.5s9.5 29.333 9.5 46zM795 163
c0 -24.667 -4.5 -47.667 -13.5 -69s-21.5 -39.833 -37.5 -55.5s-34.667 -28 -56 -37s-44.333 -13.5 -69 -13.5s-47.667 4.5 -69 13.5s-40 21.333 -56 37s-28.5 34.167 -37.5 55.5s-13.5 44.333 -13.5 69s4.5 47.667 13.5 69s21.5 39.833 37.5 55.5s34.667 28 56 37
s44.333 13.5 69 13.5s47.667 -4.5 69 -13.5s40 -21.333 56 -37s28.5 -34.167 37.5 -55.5s13.5 -44.333 13.5 -69zM735 163c0 16.667 -3.16699 32 -9.5 46s-14.666 26.167 -24.999 36.5s-22.5 18.333 -36.5 24s-29 8.5 -45 8.5s-31 -2.83301 -45 -8.5
s-26.167 -13.667 -36.5 -24s-18.666 -22.5 -24.999 -36.5s-9.5 -29.333 -9.5 -46s3.16699 -32 9.5 -46s14.666 -26.167 24.999 -36.5s22.5 -18.333 36.5 -24s29 -8.5 45 -8.5s31 2.83301 45 8.5s26.167 13.667 36.5 24s18.666 22.5 24.999 36.5s9.5 29.333 9.5 46zM217 -31
l-52 27l451 743l51 -27z" />
    <glyph glyph-name="ampersand" unicode="&#x26;" horiz-adv-x="704" 
d="M529 164l158.999 -164h-100l-100 105c-29.333 -40 -61 -69.5 -95 -88.5s-75 -28.5 -123 -28.5c-30 0 -58.5 4.33301 -85.5 13s-50.5 21.167 -70.5 37.5s-35.833 36.666 -47.5 60.999s-17.5 52.5 -17.5 84.5c0 26.667 4.16699 50.667 12.5 72s19.833 40.5 34.5 57.5
s32 32.167 52 45.5s41.667 25 65 35c-10.667 10.667 -21.167 22.334 -31.5 35.001s-19.5 25.834 -27.5 39.501s-14.5 28.167 -19.5 43.5s-7.5 31 -7.5 47c0 26.667 4.66699 50.334 14 71.001s22 38.167 38 52.5s34.667 25.166 56 32.499s44 11 68 11
c23.333 0 45.333 -3.5 66 -10.5s38.834 -17.333 54.501 -31s28 -30.334 37 -50.001s13.5 -42.167 13.5 -67.5c0 -23.333 -4.5 -44.333 -13.5 -63s-21 -35.5 -36 -50.5s-32 -28.333 -51 -40s-38.5 -22.5 -58.5 -32.5l165 -170l98 172h81zM403.999 567
c0 29.333 -9.49902 53.334 -28.499 72.001s-42.833 28 -71.5 28c-31.333 0 -57 -9.83301 -77 -29.5s-30 -46.167 -30 -79.5c0 -12.667 2.66699 -25.834 8 -39.501s12 -26.5 20 -38.5s16.5 -23 25.5 -33s16.833 -17.667 23.5 -23c16 7.33301 31.667 15.5 47 24.5
s29.166 19.167 41.499 30.5s22.333 24.333 30 39s11.5 31 11.5 49zM253 348.001c-42.667 -19.333 -75.0029 -42.165 -97.0029 -68.498s-33 -58.5 -33 -96.5c0 -20 3.83301 -38.333 11.5 -55s18.334 -30.834 32.001 -42.501s29.5 -20.834 47.5 -27.501s37 -10 57 -10
c38.667 0 70.834 8.66699 96.501 26s49.834 43.333 72.501 78z" />
    <glyph glyph-name="quotesingle" unicode="'" horiz-adv-x="260" 
d="M100 708h60v-235h-60v235z" />
    <glyph glyph-name="parenleft" unicode="(" horiz-adv-x="300" 
d="M98 288c0 -38.667 3.33301 -76.999 10 -114.999s15.834 -74.667 27.501 -110s25.5 -69 41.5 -101s33.667 -61.333 53 -88l-52 -33c-21.333 28 -40.833 58.833 -58.5 92.5s-33 69.667 -46 108s-23.167 78.166 -30.5 119.499s-11 83.666 -11 126.999
c0 42.667 3.66699 84.834 11 126.501s17.5 81.667 30.5 120s28.333 74.333 46 108s37.167 64.5 58.5 92.5l52 -33c-19.333 -26.667 -37 -56 -53 -88s-29.833 -65.667 -41.5 -101s-20.834 -72 -27.501 -110s-10 -76.333 -10 -115z" />
    <glyph glyph-name="parenright" unicode=")" horiz-adv-x="300" 
d="M202 288c0 38.667 -3.33301 76.999 -10 114.999s-15.834 74.667 -27.501 110s-25.667 69 -42 101s-33.833 61.333 -52.5 88l52 33c20.667 -28 40 -58.833 58 -92.5s33.5 -69.667 46.5 -108s23.167 -78.333 30.5 -120s11 -83.834 11 -126.501
c0 -43.333 -3.66699 -85.666 -11 -126.999s-17.5 -81.166 -30.5 -119.499s-28.5 -74.333 -46.5 -108s-37.333 -64.5 -58 -92.5l-52 33c18.667 26.667 36.167 56 52.5 88s30.333 65.667 42 101s20.834 72 27.501 110s10 76.333 10 115z" />
    <glyph glyph-name="asterisk" unicode="*" horiz-adv-x="444" 
d="M252 565l140 45l21 -56l-141 -45l90 -121l-48 -36l-92 124l-92 -124l-48 36l90 121l-141 45l21 56l140 -45v143h60v-143z" />
    <glyph glyph-name="plus" unicode="+" horiz-adv-x="666" 
d="M363 333h225v-60h-225v-225h-60v225h-225v60h225v225h60v-225z" />
    <glyph glyph-name="comma" unicode="," horiz-adv-x="260" 
d="M102 -140h-57l67 235h71z" />
    <glyph glyph-name="hyphen" unicode="-" horiz-adv-x="320" 
d="M272 214h-224v57h224v-57z" />
    <glyph glyph-name="period" unicode="." horiz-adv-x="260" 
d="M184 48c0 -14 -5 -26.5 -15 -37.5s-23 -16.5 -39 -16.5s-29 5.5 -39 16.5s-15 23.5 -15 37.5s5 26.5 15 37.5s23 16.5 39 16.5s29 -5.5 39 -16.5s15 -23.5 15 -37.5z" />
    <glyph glyph-name="slash" unicode="/" horiz-adv-x="370" 
d="M63 -18l-58 19l303 725l57 -20z" />
    <glyph glyph-name="zero" unicode="0" horiz-adv-x="580" 
d="M290 726c44 0 80.833 -10.833 110.5 -32.5s53.5 -50 71.5 -85s30.833 -74.833 38.5 -119.5s11.5 -90 11.5 -136s-3.83301 -91.167 -11.5 -135.5s-20.5 -84 -38.5 -119s-41.833 -63.167 -71.5 -84.5s-66.5 -32 -110.5 -32c-44.667 0 -81.834 10.667 -111.501 32
s-53.5 49.5 -71.5 84.5s-30.667 74.667 -38 119s-11 89.5 -11 135.5s3.66699 91.333 11 136s20 84.5 38 119.5s41.833 63.333 71.5 85s66.834 32.5 111.501 32.5zM290 665c-31.333 0 -57.333 -9.66699 -78 -29s-37 -44 -49 -74s-20.333 -63.5 -25 -100.5
s-7 -73.167 -7 -108.5s2.33301 -71.333 7 -108s13 -69.834 25 -99.501s28.333 -54 49 -73s46.667 -28.5 78 -28.5c30.667 0 56.334 9.5 77.001 28.5s37 43.333 49 73s20.5 62.834 25.5 99.501s7.5 72.667 7.5 108s-2.5 71.5 -7.5 108.5s-13.5 70.5 -25.5 100.5
s-28.333 54.667 -49 74s-46.334 29 -77.001 29z" />
    <glyph glyph-name="one" unicode="1" horiz-adv-x="580" 
d="M358 0h-72v619l-128 -109l-44 50l180 148h64v-708z" />
    <glyph glyph-name="two" unicode="2" horiz-adv-x="580" 
d="M504 0l-453.002 -0.00195312v75l290 293c10.667 10.667 21.167 22.167 31.5 34.5s19.5 25.166 27.5 38.499s14.333 27.5 19 42.5s7 30.5 7 46.5c0 20.667 -3.66699 39.334 -11 56.001s-17.5 30.834 -30.5 42.501s-28 20.667 -45 27s-34.833 9.5 -53.5 9.5
c-38 0 -70 -11.833 -96 -35.5s-42.667 -53.834 -50 -90.501l-71 14c4.66699 24.667 13.5 47.667 26.5 69s29 39.666 48 54.999s40.5 27.333 64.5 36s50 13 78 13c28.667 0 55.834 -4.16699 81.501 -12.5s48.167 -20.666 67.5 -36.999s34.833 -36.666 46.5 -60.999
s17.5 -52.5 17.5 -84.5c0 -22.667 -3.16699 -43.667 -9.5 -63s-14.666 -37.666 -24.999 -54.999s-22.5 -33.833 -36.5 -49.5s-28.667 -31.167 -44 -46.5l-255 -253h375v-64z" />
    <glyph glyph-name="three" unicode="3" horiz-adv-x="580" 
d="M214 402h31c22.667 0 44 2.33301 64 7s37.5 12.167 52.5 22.5s26.833 23.833 35.5 40.5s13 36.667 13 60c0 20 -3.66699 38.167 -11 54.5s-17.5 30.333 -30.5 42s-28 20.667 -45 27s-34.833 9.5 -53.5 9.5c-30 0 -56.5 -7 -79.5 -21s-41.5 -34.667 -55.5 -62l-61 32
c22 38 50 66.167 84 84.5s72.667 27.5 116 27.5c28 0 54.5 -4.16699 79.5 -12.5s47 -20.5 66 -36.5s34 -35.833 45 -59.5s16.5 -50.834 16.5 -81.501c0 -42 -11.667 -77.167 -35 -105.5s-52.666 -47.166 -87.999 -56.499v-2c40.667 -8.66699 74.667 -28.167 102 -58.5
s41 -69.5 41 -117.5c0 -34 -6.16699 -64.167 -18.5 -90.5s-28.833 -48.666 -49.5 -66.999s-44.834 -32.333 -72.501 -42s-56.834 -14.5 -87.501 -14.5c-52 0 -97.333 12.5 -136 37.5s-68 60.833 -88 107.5l68 25c12 -34 32 -60.5 60 -79.5s60 -28.5 96 -28.5
c20 0 39.5 3.5 58.5 10.5s35.667 17 50 30s25.833 28.833 34.5 47.5s13 40 13 64c0 26.667 -5.16699 49.167 -15.5 67.5s-24.166 33.166 -41.499 44.499s-37 19.5 -59 24.5s-44.667 7.5 -68 7.5h-31v62z" />
    <glyph glyph-name="four" unicode="4" horiz-adv-x="580" 
d="M436 234h104v-63h-104v-171h-70v171h-324v70l300 467h94v-474zM366 627h-2l-247 -393h249v393z" />
    <glyph glyph-name="five" unicode="5" horiz-adv-x="580" 
d="M475 644l-295.004 0.000976562l-5 -219c15.333 5.33301 31.5 9.33301 48.5 12s33.5 4 49.5 4c33.333 0 64 -5.33301 92 -16s52.333 -25.834 73 -45.501s36.667 -43.167 48 -70.5s17 -57.333 17 -90c0 -34 -5.66699 -65.5 -17 -94.5s-27.333 -54 -48 -75
s-45.5 -37.5 -74.5 -49.5s-60.833 -18 -95.5 -18c-51.333 0 -94.666 11.667 -129.999 35s-62.666 54.666 -81.999 93.999l65 29c12.667 -29.333 31.834 -52.666 57.501 -69.999s54.167 -26 85.5 -26c24 0 46.167 4.16699 66.5 12.5s37.833 20 52.5 35
s26.167 32.833 34.5 53.5s12.5 43 12.5 67c0 26 -4.5 49.5 -13.5 70.5s-21.333 38.833 -37 53.5s-34.167 26 -55.5 34s-44.666 12 -69.999 12s-50.5 -3.5 -75.5 -10.5s-48.833 -16.5 -71.5 -28.5l7 365h361v-64z" />
    <glyph glyph-name="six" unicode="6" horiz-adv-x="580" 
d="M201 399l2.00098 -2c10.667 8 25.667 14.333 45 19s38 7 56 7c30.667 0 59.167 -5.33301 85.5 -16s49.166 -25.5 68.499 -44.5s34.5 -42 45.5 -69s16.5 -56.5 16.5 -88.5c0 -33.333 -5.66699 -63.666 -17 -90.999s-27.333 -50.666 -48 -69.999s-45 -34.5 -73 -45.5
s-58.667 -16.5 -92 -16.5s-64 5.5 -92 16.5s-52.333 26.167 -73 45.5s-36.667 42.666 -48 69.999s-17 57.666 -17 90.999c0 36.667 6.33301 70.667 19 102s27.667 61.333 45 90l193 311h83zM132.001 205c0 -23.333 3.83691 -44.833 11.5039 -64.5s18.5 -36.667 32.5 -51
s30.667 -25.666 50 -33.999s40.666 -12.5 63.999 -12.5s44.666 4.16699 63.999 12.5s36 19.666 50 33.999s24.833 31.333 32.5 51s11.5 41.167 11.5 64.5c0 22.667 -3.66699 43.834 -11 63.501s-17.833 36.667 -31.5 51s-30.334 25.5 -50.001 33.5s-41.5 12 -65.5 12
s-45.833 -4 -65.5 -12s-36.334 -19.167 -50.001 -33.5s-24.167 -31.333 -31.5 -51s-11 -40.834 -11 -63.501z" />
    <glyph glyph-name="seven" unicode="7" horiz-adv-x="580" 
d="M498 642l-285 -642h-81l293 644h-347v64h420v-66z" />
    <glyph glyph-name="eight" unicode="8" horiz-adv-x="580" 
d="M383 375c38.667 -11.333 70.6689 -33.665 96.002 -66.998s38 -74 38 -122c0 -31.333 -6.16699 -59.5 -18.5 -84.5s-28.833 -46.333 -49.5 -64s-44.834 -31.334 -72.501 -41.001s-56.5 -14.5 -86.5 -14.5s-58.833 4.83301 -86.5 14.5s-51.834 23.334 -72.501 41.001
s-37.167 39 -49.5 64s-18.5 53.167 -18.5 84.5c0 24 3.33301 46.167 10 66.5s16 38.666 28 54.999s26.167 30.166 42.5 41.499s34.166 20 53.499 26v2c-16 5.33301 -30.5 13.166 -43.5 23.499s-24.167 22.666 -33.5 36.999s-16.666 30 -21.999 47s-8 34.5 -8 52.5
c0 28.667 5.33301 54.667 16 78s25.167 43.166 43.5 59.499s39.5 29 63.5 38s49.667 13.5 77 13.5c26.667 0 52.167 -4.5 76.5 -13.5s45.666 -21.667 63.999 -38s32.833 -36.166 43.5 -59.499s16 -49.333 16 -78c0 -18 -2.66699 -35.5 -8 -52.5s-12.666 -32.667 -21.999 -47
s-20.5 -26.666 -33.5 -36.999s-27.5 -18.166 -43.5 -23.499v-2zM160.002 533.001c0 -18.667 3.33887 -35.667 10.0059 -51s16 -28.666 28 -39.999s25.833 -20.166 41.5 -26.499s32.5 -9.5 50.5 -9.5s34.833 3.16699 50.5 9.5s29.5 15.166 41.5 26.499
s21.333 24.666 28 39.999s10 32.333 10 51s-3.33301 36.167 -10 52.5s-15.834 30.333 -27.501 42s-25.334 20.834 -41.001 27.501s-32.834 10 -51.501 10s-35.834 -3.33301 -51.501 -10s-29.334 -15.834 -41.001 -27.501s-20.834 -25.667 -27.501 -42s-10 -33.833 -10 -52.5
zM135.008 194.001c0 -21.333 3.66699 -41.333 11 -60s17.833 -34.667 31.5 -48s30 -23.833 49 -31.5s40.167 -11.5 63.5 -11.5s44.5 3.83301 63.5 11.5s35.333 18.167 49 31.5s24.167 29.333 31.5 48s11 38.667 11 60s-3.66699 41 -11 59s-17.833 33.667 -31.5 47
s-30 23.666 -49 30.999s-40.167 11 -63.5 11s-44.5 -3.66699 -63.5 -11s-35.333 -17.666 -49 -30.999s-24.167 -29 -31.5 -47s-11 -37.667 -11 -59z" />
    <glyph glyph-name="nine" unicode="9" horiz-adv-x="580" 
d="M381 309l-2.00098 2c-10.667 -8 -25.667 -14.333 -45 -19s-38 -7 -56 -7c-30.667 0 -59.167 5.33301 -85.5 16s-49.166 25.5 -68.499 44.5s-34.5 42 -45.5 69s-16.5 56.5 -16.5 88.5c0 32.667 5.66699 62.834 17 90.501s27.333 51.167 48 70.5s45 34.5 73 45.5
s58.667 16.5 92 16.5s64 -5.5 92 -16.5s52.333 -26.167 73 -45.5s36.667 -42.833 48 -70.5s17 -57.834 17 -90.501c0 -36.667 -6.33301 -70.667 -19 -102s-27.667 -61.333 -45 -90l-193 -311h-83zM449.999 503c0 22.667 -3.83691 44 -11.5039 64s-18.5 37.167 -32.5 51.5
s-30.667 25.666 -50 33.999s-40.666 12.5 -63.999 12.5s-44.666 -4.16699 -63.999 -12.5s-36 -19.666 -50 -33.999s-24.833 -31.5 -32.5 -51.5s-11.5 -41.333 -11.5 -64s3.66699 -43.834 11 -63.501s17.833 -36.667 31.5 -51s30.334 -25.5 50.001 -33.5s41.5 -12 65.5 -12
s45.833 4 65.5 12s36.334 19.167 50.001 33.5s24.167 31.333 31.5 51s11 40.834 11 63.501z" />
    <glyph glyph-name="colon" unicode=":" horiz-adv-x="300" 
d="M204 420c0 -14 -5 -26.5 -15 -37.5s-23 -16.5 -39 -16.5s-29 5.5 -39 16.5s-15 23.5 -15 37.5s5 26.5 15 37.5s23 16.5 39 16.5s29 -5.5 39 -16.5s15 -23.5 15 -37.5zM204 48c0 -14 -5 -26.5 -15 -37.5s-23 -16.5 -39 -16.5s-29 5.5 -39 16.5s-15 23.5 -15 37.5
s5 26.5 15 37.5s23 16.5 39 16.5s29 -5.5 39 -16.5s15 -23.5 15 -37.5z" />
    <glyph glyph-name="semicolon" unicode=";" horiz-adv-x="300" 
d="M204 420c0 -14 -5 -26.5 -15 -37.5s-23 -16.5 -39 -16.5s-29 5.5 -39 16.5s-15 23.5 -15 37.5s5 26.5 15 37.5s23 16.5 39 16.5s29 -5.5 39 -16.5s15 -23.5 15 -37.5zM118 -140h-60l67 235h74z" />
    <glyph glyph-name="less" unicode="&#x3c;" horiz-adv-x="666" 
d="M588 504l-429 -201l429 -201v-60l-510 238v46l510 238v-60z" />
    <glyph glyph-name="equal" unicode="=" horiz-adv-x="666" 
d="M588 408v-60h-510v60h510zM588 258v-60h-510v60h510z" />
    <glyph glyph-name="greater" unicode="&#x3e;" horiz-adv-x="666" 
d="M78 564l510 -238v-46l-510 -238v60l429 201l-429 201v60z" />
    <glyph glyph-name="question" unicode="?" horiz-adv-x="482" 
d="M274 192l-70.0029 -0.00195312v60c0 18.667 2.16699 35.5 6.5 50.5s10.333 28.5 18 40.5s16.334 22.833 26.001 32.5l29.5 28.5l28 25c16.667 13.333 30.5 28.666 41.5 45.999s16.5 39 16.5 65c0 18.667 -3.33301 35.334 -10 50.001s-15.667 27 -27 37
s-24.5 17.667 -39.5 23s-31.167 8 -48.5 8c-36 0 -65.167 -11 -87.5 -33s-36.166 -50 -41.499 -84l-68 12c10 52 32.833 92.833 68.5 122.5s79.5 44.5 131.5 44.5c26.667 0 51.834 -3.83301 75.501 -11.5s44.167 -19 61.5 -34s31.166 -33.5 41.499 -55.5s15.5 -47 15.5 -75
c0 -21.333 -2.33301 -40 -7 -56s-11.167 -30.333 -19.5 -43s-18.166 -24.167 -29.499 -34.5l-36 -31.5c-14 -11.333 -25.833 -21.666 -35.5 -30.999s-17.5 -19.166 -23.5 -29.499s-10.333 -21.833 -13 -34.5s-4 -28 -4 -46v-46zM299.997 47.998c0 -14 -5 -26.5 -15 -37.5
s-23 -16.5 -39 -16.5s-29 5.5 -39 16.5s-15 23.5 -15 37.5s5 26.5 15 37.5s23 16.5 39 16.5s29 -5.5 39 -16.5s15 -23.5 15 -37.5z" />
    <glyph glyph-name="at" unicode="@" horiz-adv-x="800" 
d="M412 489c-20 0 -37.5 -5.16699 -52.5 -15.5s-27.833 -23.5 -38.5 -39.5s-18.667 -34 -24 -54s-8 -39.667 -8 -59c0 -9.33301 1.16699 -20 3.5 -32s6.5 -23.333 12.5 -34s14.167 -19.5 24.5 -26.5s23.5 -10.5 39.5 -10.5c22.667 0 42 5.66699 58 17s29 25.5 39 42.5
s17.333 35.167 22 54.5s7 37.333 7 54c0 12.667 -1.33301 25.167 -4 37.5s-7.16699 23.333 -13.5 33s-14.833 17.5 -25.5 23.5s-24 9 -40 9zM731 101c-39.333 -40 -85.499 -69.8291 -138.499 -89.4961s-111.5 -29.5 -175.5 -29.5c-57.333 0 -109.5 9.16699 -156.5 27.5
s-87.167 43.833 -120.5 76.5s-59.166 71.834 -77.499 117.501s-27.5 95.5 -27.5 149.5c0 53.333 10 102.666 30 147.999s47.333 84.666 82 117.999s75.167 59.5 121.5 78.5s95.833 28.5 148.5 28.5c45.333 0 89.333 -6.66699 132 -20s80.5 -33.333 113.5 -60
s59.333 -60 79 -100s29.5 -87 29.5 -141c0 -40 -5.33301 -75.333 -16 -106s-24.834 -56.334 -42.501 -77.001s-38.167 -36.167 -61.5 -46.5s-48 -15.5 -74 -15.5c-30 0 -52 7.33301 -66 22s-21 31.667 -21 51h-4c-3.33301 -7.33301 -8.66602 -15.166 -15.999 -23.499
s-16.333 -16.166 -27 -23.499s-22.834 -13.5 -36.501 -18.5s-28.834 -7.5 -45.501 -7.5c-22.667 0 -43 4.16699 -61 12.5s-33.167 19.666 -45.5 33.999s-21.833 31.666 -28.5 51.999s-10 42.5 -10 66.5c0 28 4.66699 55.5 14 82.5s22.5 51 39.5 72s37.833 37.833 62.5 50.5
s52.334 19 83.001 19c25.333 0 47.166 -5.83301 65.499 -17.5s31.166 -25.834 38.499 -42.501h4l10 45h62l-40 -186c-1.33301 -4.66699 -2.5 -10.5 -3.5 -17.5s-2.16699 -14.333 -3.5 -22s-2.33301 -15.167 -3 -22.5s-1 -13.333 -1 -18c0 -6 0.5 -11.833 1.5 -17.5
s3.33301 -11 7 -16s8.66699 -9 15 -12s14.833 -4.5 25.5 -4.5c16.667 0 31.834 4.66699 45.501 14s25.334 22 35.001 38s17.167 35 22.5 57s8 45.667 8 71c0 43.333 -7.16699 81.5 -21.5 114.5s-34.333 60.833 -60 83.5s-56 39.667 -91 51s-73.5 17 -115.5 17
c-46 0 -87.667 -8 -125 -24s-69.5 -38 -96.5 -66s-47.833 -61.167 -62.5 -99.5s-22 -79.833 -22 -124.5c0 -47.333 7.66699 -90 23 -128s36.833 -70.333 64.5 -97s60.667 -47.167 99 -61.5s80.833 -21.5 127.5 -21.5c59.333 0 110.666 9.16699 153.999 27.5
s82 44.166 116 77.499z" />
    <glyph glyph-name="A" unicode="A" horiz-adv-x="700" 
d="M89 0h-79l306 708h70l304 -708h-80l-78 186h-366zM193 252h312l-156 376z" />
    <glyph glyph-name="B" unicode="B" horiz-adv-x="636" 
d="M94 708l211.001 -0.000976562c26.667 0 53.667 -2.83301 81 -8.5s51.833 -15.334 73.5 -29.001s39.334 -32.167 53.001 -55.5s20.5 -52.666 20.5 -87.999c0 -37.333 -11.333 -69.833 -34 -97.5s-53 -45.834 -91 -54.501v-2c46 -5.33301 84.167 -23.166 114.5 -53.499
s45.5 -71.5 45.5 -123.5c0 -29.333 -6.16699 -56.166 -18.5 -80.499s-29.833 -45 -52.5 -62s-50.334 -30.167 -83.001 -39.5s-69.334 -14 -110.001 -14h-210v708zM166.001 397.999l144.999 -0.000976562c17.333 0 34.833 2 52.5 6s33.834 10.833 48.501 20.5
s26.5 22.5 35.5 38.5s13.5 35.667 13.5 59c0 22.667 -4.5 41.834 -13.5 57.501s-21.167 28.5 -36.5 38.5s-33.333 17.167 -54 21.5s-42.667 6.5 -66 6.5h-125v-248zM166 61.998l133.998 -0.000976562c26 0 50.833 2.5 74.5 7.5s44.334 13 62.001 24s31.834 25.333 42.501 43
s16 38.834 16 63.501c0 46.667 -15.833 81.5 -47.5 104.5s-76.5 34.5 -134.5 34.5h-147v-277z" />
    <glyph glyph-name="C" unicode="C" horiz-adv-x="720" 
d="M690 114c-12 -18 -26.502 -35.0029 -43.502 -51.0029s-36.667 -30 -59 -42s-47 -21.5 -74 -28.5s-56.5 -10.5 -88.5 -10.5c-53.333 0 -102.666 9.33301 -147.999 28s-84.333 44.5 -117 77.5s-58.167 72.167 -76.5 117.5s-27.5 95 -27.5 149s9.33301 103.667 28 149
s44.5 84.5 77.5 117.5s72 58.833 117 77.5s93.833 28 146.5 28c26 0 51.5 -2.66699 76.5 -8s48.5 -12.833 70.5 -22.5s42 -21.334 60 -35.001s33 -29.167 45 -46.5l-60 -44c-7.33301 11.333 -17.166 22.666 -29.499 33.999s-26.833 21.333 -43.5 30
s-34.834 15.667 -54.501 21s-40.834 8 -63.501 8c-46 0 -87.167 -8.33301 -123.5 -25s-67.166 -39.167 -92.499 -67.5s-44.666 -61.166 -57.999 -98.499s-20 -76.666 -20 -117.999s6.83301 -80.666 20.5 -117.999s33.167 -70.166 58.5 -98.499s56.166 -50.833 92.499 -67.5
s77.166 -25 122.499 -25c40.667 0 79.334 8.33301 116.001 25s67.334 43.334 92.001 80.001z" />
    <glyph glyph-name="D" unicode="D" horiz-adv-x="757" 
d="M94 708l235 0.00195312c44 0 88.167 -7.33301 132.5 -22s84.333 -36.834 120 -66.501s64.5 -66.667 86.5 -111s33 -95.833 33 -154.5c0 -59.333 -11 -111 -33 -155s-50.833 -80.833 -86.5 -110.5s-75.667 -51.834 -120 -66.501s-88.5 -22 -132.5 -22h-235v708z
M166 64.002l143 -0.00195312c53.333 0 99.833 8.33301 139.5 25s72.5 38.5 98.5 65.5s45.5 57.833 58.5 92.5s19.5 70.334 19.5 107.001s-6.5 72.334 -19.5 107.001s-32.5 65.5 -58.5 92.5s-58.833 48.833 -98.5 65.5s-86.167 25 -139.5 25h-143v-580z" />
    <glyph glyph-name="E" unicode="E" horiz-adv-x="592" 
d="M166 64h379v-64h-451v708h439v-64h-367v-244h343v-63h-343v-273z" />
    <glyph glyph-name="F" unicode="F" horiz-adv-x="562" 
d="M166 0h-72v708h427v-64h-355v-246h330v-63h-330v-335z" />
    <glyph glyph-name="G" unicode="G" horiz-adv-x="779" 
d="M631 581c-24.667 26 -54 46.1631 -88 60.4961s-73 21.5 -117 21.5c-45.333 0 -86.166 -8.33301 -122.499 -25s-67.166 -39.167 -92.499 -67.5s-44.833 -61.166 -58.5 -98.499s-20.5 -76.666 -20.5 -117.999s6.83301 -80.666 20.5 -117.999s33.167 -70 58.5 -98
s56.166 -50.333 92.499 -67s77.166 -25 122.499 -25c40 0 76.667 4.33301 110 13s60.333 19.667 81 33v215h-165v63h237v-319c-38.667 -23.333 -80.334 -40.666 -125.001 -51.999s-91 -17 -139 -17c-53.333 0 -102.666 9.33301 -147.999 28s-84.333 44.5 -117 77.5
s-58.167 72.167 -76.5 117.5s-27.5 95 -27.5 149s9.33301 103.667 28 149s44.5 84.5 77.5 117.5s72 58.833 117 77.5s93.833 28 146.5 28c56.667 0 106 -8.33301 148 -25s78 -40 108 -70z" />
    <glyph glyph-name="H" unicode="H" horiz-adv-x="718" 
d="M94 708h72v-307h386v307h72v-708h-72v335h-386v-335h-72v708z" />
    <glyph glyph-name="I" unicode="I" horiz-adv-x="260" 
d="M166 0h-72v708h72v-708z" />
    <glyph glyph-name="J" unicode="J" horiz-adv-x="492" 
d="M92 144c5.33301 -28 17.832 -51.5 37.499 -70.5s45.5 -28.5 77.5 -28.5c24.667 0 45 4.5 61 13.5s28.833 21.167 38.5 36.5s16.334 32.833 20.001 52.5s5.5 40.167 5.5 61.5v499h72v-504c0 -23.333 -2.5 -48 -7.5 -74s-14.5 -50 -28.5 -72s-33.333 -40.167 -58 -54.5
s-56.334 -21.5 -95.001 -21.5c-51.333 0 -93.666 13.5 -126.999 40.5s-54.333 61.5 -63 103.5z" />
    <glyph glyph-name="K" unicode="K" horiz-adv-x="628" 
d="M166 390h1l337 318h103l-357 -321l377 -387h-106l-354 377h-1v-377h-72v708h72v-318z" />
    <glyph glyph-name="L" unicode="L" horiz-adv-x="510" 
d="M166 64h330v-64h-402v708h72v-644z" />
    <glyph glyph-name="M" unicode="M" horiz-adv-x="886" 
d="M444 122h1l237 586h110v-708h-72v615h-2l-256 -615h-38l-256 615h-2v-615h-72v708h110z" />
    <glyph glyph-name="N" unicode="N" horiz-adv-x="764" 
d="M596 105h2v603h72v-708h-90l-412 609h-2v-609h-72v708h90z" />
    <glyph glyph-name="O" unicode="O" horiz-adv-x="850" 
d="M794 354c0 -54 -9.33301 -103.667 -28 -149s-44.5 -84.5 -77.5 -117.5s-72 -58.833 -117 -77.5s-93.833 -28 -146.5 -28s-101.5 9.33301 -146.5 28s-84 44.5 -117 77.5s-58.833 72.167 -77.5 117.5s-28 95 -28 149s9.33301 103.667 28 149s44.5 84.5 77.5 117.5
s72 58.833 117 77.5s93.833 28 146.5 28s101.5 -9.33301 146.5 -28s84 -44.5 117 -77.5s58.833 -72.167 77.5 -117.5s28 -95 28 -149zM718 354c0 41.333 -6.66699 80.666 -20 117.999s-32.666 70.166 -57.999 98.499s-56.166 50.833 -92.499 67.5s-77.166 25 -122.499 25
s-86.166 -8.33301 -122.499 -25s-67.166 -39.167 -92.499 -67.5s-44.666 -61.166 -57.999 -98.499s-20 -76.666 -20 -117.999s6.66699 -80.666 20 -117.999s32.666 -70 57.999 -98s56.166 -50.333 92.499 -67s77.166 -25 122.499 -25s86.166 8.33301 122.499 25
s67.166 39 92.499 67s44.666 60.667 57.999 98s20 76.666 20 117.999z" />
    <glyph glyph-name="P" unicode="P" horiz-adv-x="580" 
d="M94 708l200 0.00292969c36 0 68.667 -3.83301 98 -11.5s54.5 -19.334 75.5 -35.001s37.167 -35.334 48.5 -59.001s17 -51.5 17 -83.5s-5.83301 -59.833 -17.5 -83.5s-28 -43.334 -49 -59.001s-46.333 -27.5 -76 -35.5s-62.5 -12 -98.5 -12h-126v-329h-72v708z
M166 390.003h122c56.667 0 99.667 11 129 33s44 54 44 96c0 44 -15.167 76.167 -45.5 96.5s-72.833 30.5 -127.5 30.5h-122v-256z" />
    <glyph glyph-name="Q" unicode="Q" horiz-adv-x="843" 
d="M132 363c0 -40 6.5 -78 19.5 -114s31.5 -67.833 55.5 -95.5s53.5 -49.667 88.5 -66s74.5 -24.5 118.5 -24.5c43.333 0 82.5 8.16699 117.5 24.5s64.667 38.333 89 66s43.166 59.5 56.499 95.5s20 74 20 114s-6.66699 78 -20 114s-32.166 67.833 -56.499 95.5
s-54 49.667 -89 66s-74.167 24.5 -117.5 24.5c-44 0 -83.5 -8.16699 -118.5 -24.5s-64.5 -38.333 -88.5 -66s-42.5 -59.5 -55.5 -95.5s-19.5 -74 -19.5 -114zM819 0l-405.001 0.00195312c-51.333 0 -98.833 9 -142.5 27s-81.5 43.167 -113.5 75.5s-57 70.666 -75 114.999
s-27 92.833 -27 145.5s9 101.167 27 145.5s43 82.666 75 114.999s69.833 57.5 113.5 75.5s91.167 27 142.5 27c50.667 0 97.834 -9 141.501 -27s81.5 -43.167 113.5 -75.5s57 -70.666 75 -114.999s27 -92.833 27 -145.5c0 -62.667 -13.833 -119.834 -41.5 -171.501
s-69.167 -93.5 -124.5 -125.5v-2h214v-64z" />
    <glyph glyph-name="R" unicode="R" horiz-adv-x="599" 
d="M166 0h-72.002v708h208c34.667 0 66.834 -3.33301 96.501 -10s55.334 -17.5 77.001 -32.5s38.5 -34.5 50.5 -58.5s18 -53.333 18 -88c0 -26 -4.66699 -49.667 -14 -71s-22 -39.833 -38 -55.5s-35 -28.167 -57 -37.5s-46 -15.333 -72 -18l207 -337h-88l-196 331h-120v-331
zM165.998 393h125c58 0 102.667 10.5 134 31.5s47 52.5 47 94.5c0 23.333 -4.33301 43 -13 59s-20.667 29 -36 39s-34 17.333 -56 22s-46.333 7 -73 7h-128v-253z" />
    <glyph glyph-name="S" unicode="S" horiz-adv-x="564" 
d="M437 594c-15.333 21.333 -34.998 38.5039 -58.998 51.5039s-53 19.5 -87 19.5c-17.333 0 -35 -2.66699 -53 -8s-34.333 -13.5 -49 -24.5s-26.5 -24.833 -35.5 -41.5s-13.5 -36.334 -13.5 -59.001s4.33301 -41.334 13 -56.001s20.167 -27.167 34.5 -37.5
s30.666 -18.833 48.999 -25.5l57.5 -20c24.667 -8 49.5 -16.667 74.5 -26s47.5 -21.5 67.5 -36.5s36.333 -34 49 -57s19 -52.167 19 -87.5s-6.83301 -65.833 -20.5 -91.5s-31.334 -46.834 -53.001 -63.501s-46.334 -29 -74.001 -37s-55.5 -12 -83.5 -12
c-21.333 0 -42.666 2.16699 -63.999 6.5s-41.666 10.833 -60.999 19.5s-37.333 19.667 -54 33s-31.334 28.666 -44.001 45.999l62 46c15.333 -25.333 36.833 -46.5 64.5 -63.5s60.167 -25.5 97.5 -25.5c18 0 36.333 2.83301 55 8.5s35.5 14.334 50.5 26.001s27.333 26 37 43
s14.5 36.833 14.5 59.5c0 24.667 -4.83301 45.167 -14.5 61.5s-22.5 30 -38.5 41s-34.333 20.167 -55 27.5l-65 22c-23.333 7.33301 -46.333 15.666 -69 24.999s-43 21.5 -61 36.5s-32.5 33.5 -43.5 55.5s-16.5 49 -16.5 81c0 34 6.83301 63.333 20.5 88s31.5 45 53.5 61
s46.333 27.667 73 35s53 11 79 11c48 0 89 -8.5 123 -25.5s59.667 -37.167 77 -60.5z" />
    <glyph glyph-name="T" unicode="T" horiz-adv-x="570" 
d="M321 0h-72v644h-237v64h546v-64h-237v-644z" />
    <glyph glyph-name="U" unicode="U" horiz-adv-x="710" 
d="M355 -18c-53.333 0 -97 9.16699 -131 27.5s-61 41.5 -81 69.5s-33.833 58.5 -41.5 91.5s-11.5 64.167 -11.5 93.5v444h72v-436c0 -28.667 3.33301 -56.5 10 -83.5s17.5 -51 32.5 -72s34.833 -38 59.5 -51s55 -19.5 91 -19.5s66.333 6.5 91 19.5s44.5 30 59.5 51
s25.833 45 32.5 72s10 54.833 10 83.5v436h72v-444c0 -29.333 -3.83301 -60.5 -11.5 -93.5s-21.5 -63.5 -41.5 -91.5s-47.167 -51.167 -81.5 -69.5s-77.833 -27.5 -130.5 -27.5z" />
    <glyph glyph-name="V" unicode="V" horiz-adv-x="623" 
d="M311 93h2l230 615h77l-271 -708h-76l-270 708h78z" />
    <glyph glyph-name="W" unicode="W" horiz-adv-x="972" 
d="M265 99h2l177 609h86l177 -609h2l173 609h76l-209 -708h-84l-178 608h-2l-178 -608h-84l-209 708h76z" />
    <glyph glyph-name="X" unicode="X" horiz-adv-x="649" 
d="M326 422l193 286h86l-235 -337l260 -371h-90l-216 319l-215 -319h-90l260 372l-237 336h90z" />
    <glyph glyph-name="Y" unicode="Y" horiz-adv-x="602" 
d="M337 0h-72v305l-265 403h90l213 -343l215 343h84l-265 -403v-305z" />
    <glyph glyph-name="Z" unicode="Z" horiz-adv-x="572" 
d="M535 648l-413 -584h419v-64h-510v60l414 584h-403v64h493v-60z" />
    <glyph glyph-name="bracketleft" unicode="[" horiz-adv-x="300" 
d="M220 678h-96v-780h96v-54h-162v888h162v-54z" />
    <glyph glyph-name="backslash" unicode="\" horiz-adv-x="370" 
d="M5 706l57 20l303 -725l-58 -19z" />
    <glyph glyph-name="bracketright" unicode="]" horiz-adv-x="300" 
d="M80 -102h96v780h-96v54h162v-888h-162v54z" />
    <glyph glyph-name="asciicircum" unicode="^" horiz-adv-x="666" 
d="M309 708h48l229 -433h-62l-191 361l-191 -361h-62z" />
    <glyph glyph-name="underscore" unicode="_" horiz-adv-x="500" 
d="M0 -75h500v-50h-500v50z" />
    <glyph glyph-name="grave" unicode="`" 
d="M-10 708h91l100 -144h-59z" />
    <glyph glyph-name="a" unicode="a" horiz-adv-x="534" 
d="M385 302c0 40.667 -10.6689 71 -32.002 91s-52.333 30 -93 30c-28 0 -54 -5 -78 -15s-44.333 -23.333 -61 -40l-38 45c19.333 19.333 44.833 35.333 76.5 48s67.5 19 107.5 19c25.333 0 49 -3.5 71 -10.5s41.333 -17.5 58 -31.5s29.667 -31.667 39 -53s14 -46.333 14 -75
v-205c0 -18 0.666992 -36.667 2 -56s3.33301 -35.666 6 -48.999h-61c-2 11.333 -3.66699 23.666 -5 36.999s-2 26.333 -2 39h-2c-21.333 -31.333 -45.5 -53.833 -72.5 -67.5s-59.5 -20.5 -97.5 -20.5c-18 0 -36.5 2.5 -55.5 7.5s-36.333 13.167 -52 24.5s-28.667 26 -39 44
s-15.5 40 -15.5 66c0 36 9.16699 64.5 27.5 85.5s42.833 36.667 73.5 47s65.834 17 105.501 20s80.834 4.5 123.501 4.5v15zM364.998 234c-28 0 -56.1689 -1.16699 -84.502 -3.5s-54 -7 -77 -14s-41.833 -17.167 -56.5 -30.5s-22 -31 -22 -53
c0 -16.667 3.16699 -30.667 9.5 -42s14.833 -20.5 25.5 -27.5s22.5 -12 35.5 -15s26.167 -4.5 39.5 -4.5c24 0 45.333 4.16699 64 12.5s34.334 19.666 47.001 33.999s22.334 30.833 29.001 49.5s10 38.334 10 59.001v35h-20z" />
    <glyph glyph-name="b" unicode="b" horiz-adv-x="637" 
d="M160 79v-79.001h-68v756h68v-369h2c20 30.667 46 53.834 78 69.501s65 23.5 99 23.5c36.667 0 69.834 -6.33301 99.501 -19s55 -30 76 -52s37.333 -48 49 -78s17.5 -62.333 17.5 -97s-5.83301 -67 -17.5 -97s-28 -56 -49 -78s-46.333 -39.333 -76 -52
s-62.834 -19 -99.501 -19c-34 0 -67 7.66699 -99 23s-58 38 -78 68h-2zM509 233.999c0 26 -4 50.501 -12 73.501s-19.5 43 -34.5 60s-33.5 30.5 -55.5 40.5s-47 15 -75 15c-26 0 -50 -4.83301 -72 -14.5s-41 -23 -57 -40s-28.5 -37 -37.5 -60s-13.5 -47.833 -13.5 -74.5
s4.5 -51.5 13.5 -74.5s21.5 -42.833 37.5 -59.5s35 -29.834 57 -39.501s46 -14.5 72 -14.5c28 0 53 4.83301 75 14.5s40.5 23 55.5 40s26.5 37 34.5 60s12 47.5 12 73.5z" />
    <glyph glyph-name="c" unicode="c" horiz-adv-x="500" 
d="M427 361c-11.333 18 -27.8311 32.8359 -49.498 44.5029s-45.167 17.5 -70.5 17.5c-27.333 0 -52 -4.83301 -74 -14.5s-40.833 -23 -56.5 -40s-27.667 -37 -36 -60s-12.5 -47.833 -12.5 -74.5s4.16699 -51.334 12.5 -74.001s20.166 -42.5 35.499 -59.5s34 -30.333 56 -40
s46.667 -14.5 74 -14.5c30 0 55.333 5.66699 76 17s37.667 26 51 44l51 -38c-20 -24.667 -44.5 -44.334 -73.5 -59.001s-63.833 -22 -104.5 -22c-38 0 -72.333 6.16699 -103 18.5s-56.834 29.5 -78.501 51.5s-38.5 48 -50.5 78s-18 62.667 -18 98s6 68 18 98
s28.833 56 50.5 78s47.834 39.167 78.501 51.5s65 18.5 103 18.5c31.333 0 63.166 -6.83301 95.499 -20.5s58.5 -33.834 78.5 -60.501z" />
    <glyph glyph-name="d" unicode="d" horiz-adv-x="637" 
d="M475 79c-20 -30 -46 -52.666 -78 -67.999s-65 -23 -99 -23c-36.667 0 -69.834 6.33301 -99.501 19s-55 30 -76 52s-37.333 48 -49 78s-17.5 62.333 -17.5 97s5.83301 67 17.5 97s28 56 49 78s46.333 39.333 76 52s62.834 19 99.501 19c34 0 67 -7.83301 99 -23.5
s58 -38.834 78 -69.501h2v369h68v-756h-68v79h-2zM128 234.001c0 -26 4 -50.501 12 -73.501s19.5 -43 34.5 -60s33.5 -30.333 55.5 -40s47 -14.5 75 -14.5c26 0 50 4.83301 72 14.5s41 22.834 57 39.501s28.5 36.5 37.5 59.5s13.5 47.833 13.5 74.5s-4.5 51.5 -13.5 74.5
s-21.5 43 -37.5 60s-35 30.333 -57 40s-46 14.5 -72 14.5c-28 0 -53 -5 -75 -15s-40.5 -23.5 -55.5 -40.5s-26.5 -37 -34.5 -60s-12 -47.5 -12 -73.5z" />
    <glyph glyph-name="e" unicode="e" horiz-adv-x="572" 
d="M447 270c-2 44 -16.166 80.498 -42.499 109.498s-63.833 43.5 -112.5 43.5c-22.667 0 -43.667 -4.16699 -63 -12.5s-36.333 -19.666 -51 -33.999s-26.334 -30.666 -35.001 -48.999s-13.667 -37.5 -15 -57.5h319zM516.001 247.998l-0.000976562 -15
c0 -5.33301 -0.333008 -11 -1 -17h-388c0.666992 -23.333 5.33398 -45.333 14.001 -66s20.667 -38.667 36 -54s33.333 -27.5 54 -36.5s43 -13.5 67 -13.5c35.333 0 65.833 8.16699 91.5 24.5s45.167 35.166 58.5 56.499l51 -40c-28 -35.333 -58.833 -60.666 -92.5 -75.999
s-69.834 -23 -108.501 -23c-34.667 0 -66.834 6.16699 -96.501 18.5s-55.167 29.5 -76.5 51.5s-38.166 48 -50.499 78s-18.5 62.667 -18.5 98s6 68 18 98s28.667 56 50 78s46.333 39.167 75 51.5s59.667 18.5 93 18.5c36.667 0 69 -6.16699 97 -18.5s51.333 -29 70 -50
s32.834 -45.5 42.501 -73.5s14.5 -58 14.5 -90z" />
    <glyph glyph-name="f" unicode="f" horiz-adv-x="295" 
d="M288 411l-110.003 0.000976562v-411h-68v411h-98v57h98v128c0 53.333 13 95.333 39 126s66 46 120 46c8.66699 0 18 -0.5 28 -1.5s19.333 -2.83301 28 -5.5l-12 -60c-7.33301 2 -14.666 3.66699 -21.999 5s-15.666 2 -24.999 2c-18 0 -32.833 -3 -44.5 -9
s-20.667 -14.5 -27 -25.5s-10.666 -23.833 -12.999 -38.5s-3.5 -30.334 -3.5 -47.001v-120h110v-57z" />
    <glyph glyph-name="g" unicode="g" horiz-adv-x="632" 
d="M115 -94c18.667 -24 44.167 -44.332 76.5 -60.999s66.5 -25 102.5 -25c33.333 0 61.666 4.83301 84.999 14.5s42.166 22.834 56.499 39.501s24.833 36.167 31.5 58.5s10 46.166 10 71.499v88h-2c-18 -29.333 -43.5 -52 -76.5 -68s-66.5 -24 -100.5 -24
c-36.667 0 -69.834 6 -99.501 18s-55 28.5 -76 49.5s-37.333 46.167 -49 75.5s-17.5 61 -17.5 95c0 33.333 5.83301 64.666 17.5 93.999s28 55 49 77s46.333 39.333 76 52s62.834 19 99.501 19c34 0 67.333 -8 100 -24s58.334 -39 77.001 -69h2v81h68v-464
c0 -25.333 -3.5 -52.333 -10.5 -81s-20 -55 -39 -79s-44.833 -44 -77.5 -60s-75 -24 -127 -24c-43.333 0 -84.666 8.33301 -123.999 25s-73 39.667 -101 69zM128 240.001c0 -24.667 4 -47.998 12 -69.998s19.5 -41.333 34.5 -58s33.5 -29.834 55.5 -39.501
s47 -14.5 75 -14.5c26 0 50 4.33301 72 13s41 21 57 37s28.5 35.167 37.5 57.5s13.5 47.166 13.5 74.499c0 24.667 -4.5 48 -13.5 70s-21.5 41.333 -37.5 58s-35 30 -57 40s-46 15 -72 15c-28 0 -53 -5 -75 -15s-40.5 -23.333 -55.5 -40s-26.5 -36 -34.5 -58
s-12 -45.333 -12 -70z" />
    <glyph glyph-name="h" unicode="h" horiz-adv-x="583" 
d="M162 391c12.667 27.333 33.668 49 63.001 65s60.666 24 93.999 24c59.333 0 103.833 -17.667 133.5 -53s44.5 -82 44.5 -140v-287h-68v259c0 24.667 -2 47 -6 67s-10.833 37.167 -20.5 51.5s-22.667 25.5 -39 33.5s-36.833 12 -61.5 12c-18 0 -35.5 -3.66699 -52.5 -11
s-32.167 -18.5 -45.5 -33.5s-24 -34 -32 -57s-12 -50.167 -12 -81.5v-240h-68v756h68v-365h2z" />
    <glyph glyph-name="i" unicode="i" horiz-adv-x="250" 
d="M159 0h-68v468h68v-468zM173 648c0 -14 -5 -25.5 -15 -34.5s-21 -13.5 -33 -13.5s-23 4.5 -33 13.5s-15 20.5 -15 34.5s5 25.5 15 34.5s21 13.5 33 13.5s23 -4.5 33 -13.5s15 -20.5 15 -34.5z" />
    <glyph glyph-name="j" unicode="j" horiz-adv-x="251" 
d="M-17 -176c6.66699 -2 13.8301 -3.49805 21.4971 -4.49805s14.834 -1.5 21.501 -1.5c14 0 25.333 2.5 34 7.5s15.334 11.833 20.001 20.5s7.83398 19.167 9.50098 31.5s2.5 25.833 2.5 40.5v550h68v-561c0 -18.667 -2 -36.834 -6 -54.501s-11 -33.334 -21 -47.001
s-23.5 -24.667 -40.5 -33s-38.833 -12.5 -65.5 -12.5c-7.33301 0 -16 0.5 -26 1.5s-19.333 2.83301 -28 5.5zM173.996 648.002c0 -14 -5 -25.5 -15 -34.5s-21 -13.5 -33 -13.5s-23 4.5 -33 13.5s-15 20.5 -15 34.5s5 25.5 15 34.5s21 13.5 33 13.5s23 -4.5 33 -13.5
s15 -20.5 15 -34.5z" />
    <glyph glyph-name="k" unicode="k" horiz-adv-x="510" 
d="M160 257h3l216 211h98l-236 -214l260 -254h-100l-238 246h-3v-246h-68v756h68v-499z" />
    <glyph glyph-name="l" unicode="l" horiz-adv-x="252" 
d="M160 0h-68v756h68v-756z" />
    <glyph glyph-name="m" unicode="m" horiz-adv-x="883" 
d="M157 388c13.333 27.333 33.832 49.501 61.499 66.501s58.5 25.5 92.5 25.5c12.667 0 25.834 -1.33301 39.501 -4s27 -7.83398 40 -15.501s25 -17.834 36 -30.501s20.5 -29 28.5 -49c16 32 37.833 56.5 65.5 73.5s60.5 25.5 98.5 25.5c59.333 0 103.833 -17.667 133.5 -53
s44.5 -82 44.5 -140v-287h-68v259c0 49.333 -9.16699 89 -27.5 119s-49.5 45 -93.5 45c-24.667 0 -45.5 -5 -62.5 -15s-30.667 -23.167 -41 -39.5s-17.833 -34.833 -22.5 -55.5s-7 -42 -7 -64v-249h-68v273c0 22.667 -1.66699 43.334 -5 62.001s-9.16602 34.5 -17.499 47.5
s-19.833 23 -34.5 30s-33.334 10.5 -56.001 10.5c-16 0 -32.167 -3.66699 -48.5 -11s-31 -18.5 -44 -33.5s-23.5 -34 -31.5 -57s-12 -50.167 -12 -81.5v-240h-68v365c0 12.667 -0.333008 29 -1 49s-1.66699 38 -3 54h65c1.33301 -12.667 2.33301 -26.667 3 -42s1 -28 1 -38
h2v0z" />
    <glyph glyph-name="n" unicode="n" horiz-adv-x="581" 
d="M151 468c1.33301 -12.667 2.33301 -26.667 3 -42s1 -28 1 -38h2c13.333 27.333 35 49.5 65 66.5s61.667 25.5 95 25.5c59.333 0 103.833 -17.667 133.5 -53s44.5 -82 44.5 -140v-287h-68v259c0 24.667 -2 47 -6 67s-10.833 37.167 -20.5 51.5s-22.667 25.5 -39 33.5
s-36.833 12 -61.5 12c-18 0 -35.5 -3.66699 -52.5 -11s-32.167 -18.5 -45.5 -33.5s-24 -34 -32 -57s-12 -50.167 -12 -81.5v-240h-68v365c0 12.667 -0.333008 29 -1 49s-1.66699 38 -3 54h65z" />
    <glyph glyph-name="o" unicode="o" horiz-adv-x="611" 
d="M555 234c0 -35.333 -6.16699 -68 -18.5 -98s-29.5 -56 -51.5 -78s-48.333 -39.167 -79 -51.5s-64.334 -18.5 -101.001 -18.5c-36 0 -69.333 6.16699 -100 18.5s-57 29.5 -79 51.5s-39.167 48 -51.5 78s-18.5 62.667 -18.5 98s6.16699 68 18.5 98s29.5 56 51.5 78
s48.333 39.167 79 51.5s64 18.5 100 18.5c36.667 0 70.334 -6.16699 101.001 -18.5s57 -29.5 79 -51.5s39.167 -48 51.5 -78s18.5 -62.667 18.5 -98zM483 234c0 26 -4.16699 50.5 -12.5 73.5s-20.166 43 -35.499 60s-34 30.5 -56 40.5s-46.667 15 -74 15
s-51.833 -5 -73.5 -15s-40.167 -23.5 -55.5 -40.5s-27.166 -37 -35.499 -60s-12.5 -47.5 -12.5 -73.5s4.16699 -50.5 12.5 -73.5s20.166 -43 35.499 -60s33.833 -30.333 55.5 -40s46.167 -14.5 73.5 -14.5s52 4.83301 74 14.5s40.667 23 56 40s27.166 37 35.499 60
s12.5 47.5 12.5 73.5z" />
    <glyph glyph-name="p" unicode="p" horiz-adv-x="635" 
d="M158 -240l-68 -0.000976562v708h68v-81h3c19.333 30.667 45.166 53.834 77.499 69.501s65.166 23.5 98.499 23.5c36.667 0 69.834 -6.33301 99.501 -19s55 -30 76 -52s37.333 -48 49 -78s17.5 -62.333 17.5 -97s-5.83301 -67 -17.5 -97s-28 -56 -49 -78
s-46.333 -39.333 -76 -52s-62.834 -19 -99.501 -19c-33.333 0 -66.166 7.83301 -98.499 23.5s-58.166 38.167 -77.499 67.5h-3v-319zM507 233.999c0 26 -4 50.501 -12 73.501s-19.5 43 -34.5 60s-33.5 30.5 -55.5 40.5s-47 15 -75 15c-26 0 -50 -4.83301 -72 -14.5
s-41 -23 -57 -40s-28.5 -37 -37.5 -60s-13.5 -47.833 -13.5 -74.5s4.5 -51.5 13.5 -74.5s21.5 -42.833 37.5 -59.5s35 -29.834 57 -39.501s46 -14.5 72 -14.5c28 0 53 4.83301 75 14.5s40.5 23 55.5 40s26.5 37 34.5 60s12 47.5 12 73.5z" />
    <glyph glyph-name="q" unicode="q" horiz-adv-x="635" 
d="M474 79c-19.333 -29.333 -45.166 -51.832 -77.499 -67.499s-65.166 -23.5 -98.499 -23.5c-36.667 0 -69.834 6.33301 -99.501 19s-55 30 -76 52s-37.333 48 -49 78s-17.5 62.333 -17.5 97s5.83301 67 17.5 97s28 56 49 78s46.333 39.333 76 52s62.834 19 99.501 19
c33.333 0 66.166 -7.83301 98.499 -23.5s58.166 -38.834 77.499 -69.501h3v81h68v-708h-68v319h-3zM128 234.001c0 -26 4 -50.501 12 -73.501s19.5 -43 34.5 -60s33.5 -30.333 55.5 -40s47 -14.5 75 -14.5c26 0 50 4.83301 72 14.5s41 22.834 57 39.501s28.5 36.5 37.5 59.5
s13.5 47.833 13.5 74.5s-4.5 51.5 -13.5 74.5s-21.5 43 -37.5 60s-35 30.333 -57 40s-46 14.5 -72 14.5c-28 0 -53 -5 -75 -15s-40.5 -23.5 -55.5 -40.5s-26.5 -37 -34.5 -60s-12 -47.5 -12 -73.5z" />
    <glyph glyph-name="r" unicode="r" horiz-adv-x="360" 
d="M90 365c0 12.667 -0.333984 28.999 -1.00098 48.999s-1.66699 38 -3 54h65c1.33301 -12.667 2.33301 -26.667 3 -42s1 -28 1 -38h2c13.333 27.333 33.333 49.5 60 66.5s56.667 25.5 90 25.5c8.66699 0 16.5 -0.333008 23.5 -1s14.167 -2 21.5 -4l-9 -64
c-4 1.33301 -10.667 2.66602 -20 3.99902s-18.666 2 -27.999 2c-18 0 -35.333 -3.33301 -52 -10s-31.167 -17.167 -43.5 -31.5s-22.333 -32.666 -30 -54.999s-11.5 -49.166 -11.5 -80.499v-240h-68v365v0z" />
    <glyph glyph-name="s" unicode="s" horiz-adv-x="444" 
d="M339 357c-10 19.333 -25.168 35.168 -45.501 47.501s-43.5 18.5 -69.5 18.5c-12 0 -24 -1.33301 -36 -4s-22.667 -7 -32 -13s-16.833 -13.667 -22.5 -23s-8.5 -20.333 -8.5 -33c0 -22 9 -38.833 27 -50.5s46.333 -21.5 85 -29.5
c55.333 -11.333 96.166 -27.833 122.499 -49.5s39.5 -50.834 39.5 -87.501c0 -26.667 -5.16699 -49.167 -15.5 -67.5s-23.833 -33.333 -40.5 -45s-35.5 -20 -56.5 -25s-42.167 -7.5 -63.5 -7.5c-35.333 0 -69.666 7.33301 -102.999 22s-60.666 37.667 -81.999 69l54 40
c12 -20.667 29.667 -38 53 -52s49 -21 77 -21c14.667 0 28.667 1.33301 42 4s25 7.33398 35 14.001s18 15.167 24 25.5s9 23.166 9 38.499c0 24.667 -11.833 43.167 -35.5 55.5s-57.834 23.833 -102.501 34.5c-14 3.33301 -28.833 7.5 -44.5 12.5s-30.167 12.333 -43.5 22
s-24.333 21.834 -33 36.501s-13 33 -13 55c0 24 4.66699 44.5 14 61.5s21.833 31 37.5 42s33.5 19.167 53.5 24.5s40.667 8 62 8c32.667 0 64.334 -7.33301 95.001 -22s53.667 -35.334 69 -62.001z" />
    <glyph glyph-name="t" unicode="t" horiz-adv-x="317" 
d="M301 411l-131.997 -0.00292969v-273c0 -17.333 1.66699 -31.666 5 -42.999s8.16602 -20.166 14.499 -26.499s13.833 -10.666 22.5 -12.999s18 -3.5 28 -3.5c9.33301 0 19.166 1.33301 29.499 4s20.166 6.33398 29.499 11.001l3 -59
c-12 -4.66699 -24.5 -8.16699 -37.5 -10.5s-27.167 -3.5 -42.5 -3.5c-12.667 0 -26 1.66699 -40 5s-27 9.66602 -39 18.999s-21.833 22 -29.5 38s-11.5 37 -11.5 63v292h-97v57h97v132h68v-132h132v-57z" />
    <glyph glyph-name="u" unicode="u" horiz-adv-x="581" 
d="M430 0c-1.33301 12.667 -2.33301 26.667 -3 42s-1 28 -1 38h-2c-13.333 -27.333 -35 -49.5 -65 -66.5s-61.667 -25.5 -95 -25.5c-59.333 0 -103.833 17.667 -133.5 53s-44.5 82 -44.5 140v287h68v-259c0 -24.667 2 -47 6 -67s10.833 -37.167 20.5 -51.5
s22.667 -25.5 39 -33.5s36.833 -12 61.5 -12c18 0 35.5 3.66699 52.5 11s32.167 18.5 45.5 33.5s24 34 32 57s12 50.167 12 81.5v240h68v-365c0 -12.667 0.333008 -29 1 -49s1.66699 -38 3 -54h-65z" />
    <glyph glyph-name="v" unicode="v" horiz-adv-x="488" 
d="M282 0h-75l-191 468h76l152 -396h2l153 396h73z" />
    <glyph glyph-name="w" unicode="w" horiz-adv-x="746" 
d="M99 468l113 -380h2l126 380h66l128 -380h2l112 380h72l-148 -468h-74l-125 379h-2l-123 -379h-74l-148 468h73z" />
    <glyph glyph-name="x" unicode="x" horiz-adv-x="484" 
d="M200 242l-173 226h87l128 -178l128 178h82l-170 -223l186 -245h-88l-139 195l-143 -195h-82z" />
    <glyph glyph-name="y" unicode="y" horiz-adv-x="488" 
d="M251 73h2.00195l145 395h74l-233 -589c-14 -36 -31.833 -64.833 -53.5 -86.5s-52.834 -32.5 -93.501 -32.5c-20.667 0 -41 2 -61 6l7 62c16 -5.33301 32.667 -8 50 -8c23.333 0 41.666 7.16699 54.999 21.5s25 34.833 35 61.5l38 98l-200 467h76z" />
    <glyph glyph-name="z" unicode="z" horiz-adv-x="442" 
d="M401 420l-280 -361h290v-59h-380v48l279 363h-265v57h356v-48z" />
    <glyph glyph-name="braceleft" unicode="{" horiz-adv-x="300" 
d="M0 318c26 0 45.667 9.66895 59 29.002s20 46.666 20 81.999v178c0 23.333 3 43 9 59s14 28.833 24 38.5s21.5 16.667 34.5 21s26.5 6.5 40.5 6.5h63v-54h-48c-12 0 -21.833 -2.5 -29.5 -7.5s-13.5 -11.5 -17.5 -19.5s-6.66699 -17 -8 -27s-2 -19.667 -2 -29v-178
c0 -24 -3.5 -44.167 -10.5 -60.5s-15.333 -29.333 -25 -39s-19.5 -16.667 -29.5 -21s-18 -6.83301 -24 -7.5v-2c6 -0.666992 14 -3.16699 24 -7.5s19.833 -11.333 29.5 -21s18 -22.667 25 -39s10.5 -36.5 10.5 -60.5v-178c0 -9.33301 0.666992 -19 2 -29s4 -19 8 -27
s9.83301 -14.5 17.5 -19.5s17.5 -7.5 29.5 -7.5h48v-54h-63c-14 0 -27.5 2.16699 -40.5 6.5s-24.5 11.333 -34.5 21s-18 22.5 -24 38.5s-9 35.667 -9 59v178c0 35.333 -6.66699 62.666 -20 81.999s-33 29 -59 29v60z" />
    <glyph glyph-name="bar" unicode="|" horiz-adv-x="222" 
d="M141 750v-1000h-60v1000h60z" />
    <glyph glyph-name="braceright" unicode="}" horiz-adv-x="300" 
d="M300 258c-26 0 -45.667 -9.66895 -59 -29.002s-20 -46.666 -20 -81.999v-178c0 -23.333 -3 -43 -9 -59s-14 -28.833 -24 -38.5s-21.5 -16.667 -34.5 -21s-26.5 -6.5 -40.5 -6.5h-63v54h48c12 0 21.833 2.5 29.5 7.5s13.5 11.5 17.5 19.5s6.66699 17 8 27s2 19.667 2 29
v178c0 24 3.5 44.167 10.5 60.5s15.333 29.333 25 39s19.5 16.667 29.5 21s18 6.83301 24 7.5v2c-6 0.666992 -14 3.16699 -24 7.5s-19.833 11.333 -29.5 21s-18 22.667 -25 39s-10.5 36.5 -10.5 60.5v178c0 9.33301 -0.666992 19 -2 29s-4 19 -8 27
s-9.83301 14.5 -17.5 19.5s-17.5 7.5 -29.5 7.5h-48v54h63c14 0 27.5 -2.16699 40.5 -6.5s24.5 -11.333 34.5 -21s18 -22.5 24 -38.5s9 -35.667 9 -59v-178c0 -35.333 6.66699 -62.666 20 -81.999s33 -29 59 -29v-60z" />
    <glyph glyph-name="asciitilde" unicode="~" horiz-adv-x="666" 
d="M577 328c-6.66699 -10.667 -14.502 -21.501 -23.502 -32.501s-19.167 -21 -30.5 -30s-23.833 -16.333 -37.5 -22s-28.5 -8.5 -44.5 -8.5c-9.33301 0 -18.166 0.5 -26.499 1.5s-16.833 2.83301 -25.5 5.5s-17.667 6.33398 -27 11.001s-20 10.667 -32 18
c-20.667 13.333 -38.667 23.333 -54 30s-31.666 10 -48.999 10c-11.333 0 -22 -2.33301 -32 -7s-19 -10.5 -27 -17.5s-15 -14.833 -21 -23.5s-11.333 -17 -16 -25l-42 40c7.33301 10.667 15.5 21.5 24.5 32.5s19 21 30 30s23.333 16.333 37 22s28.5 8.5 44.5 8.5
c18.667 0 36.5 -2.5 53.5 -7.5s35.833 -14.167 56.5 -27.5c19.333 -12.667 37.333 -22.667 54 -30s33 -11 49 -11c11.333 0 22 2.33301 32 7s19 10.667 27 18s15.167 15.333 21.5 24s11.833 16.667 16.5 24z" />
    <glyph glyph-name="uni00A0" unicode="&#xa0;" horiz-adv-x="250" 
 />
    <glyph glyph-name="exclamdown" unicode="&#xa1;" horiz-adv-x="328" 
d="M200 -229h-72v516h72v-516zM218 431c0 -14 -5 -26.5 -15 -37.5s-23 -16.5 -39 -16.5s-29 5.5 -39 16.5s-15 23.5 -15 37.5s5 26.5 15 37.5s23 16.5 39 16.5s29 -5.5 39 -16.5s15 -23.5 15 -37.5z" />
    <glyph glyph-name="cent" unicode="&#xa2;" horiz-adv-x="580" 
d="M298 417c-21.333 -4 -40.5 -11.333 -57.5 -22s-31.5 -24 -43.5 -40s-21.167 -34.333 -27.5 -55s-9.5 -42.667 -9.5 -66s3.16699 -45.333 9.5 -66s15.5 -39 27.5 -55s26.5 -29.333 43.5 -40s36.167 -18 57.5 -22v366zM346 49c24 1.33301 45.333 7.82715 64 19.4941
s33 25.5 43 41.5l54 -41c-21.333 -25.333 -46 -44.666 -74 -57.999s-57 -20.666 -87 -21.999v-61h-48v63c-32.667 3.33301 -62 11.833 -88 25.5s-48 31.334 -66 53.001s-31.833 46.5 -41.5 74.5s-14.5 58 -14.5 90s4.83301 62 14.5 90s23.5 52.833 41.5 74.5
s40 39.334 66 53.001s55.333 22.167 88 25.5v63h48v-61c30 -1.33301 59 -8.66602 87 -21.999s52.667 -32.666 74 -57.999l-54 -41c-10 16 -24.333 29.833 -43 41.5s-40 18.167 -64 19.5v-370z" />
    <glyph glyph-name="sterling" unicode="&#xa3;" horiz-adv-x="580" 
d="M417 335h-167.999v-275h262v-60h-436v60h102v275h-96v60h96v93c0 28.667 3.5 57.167 10.5 85.5s18.667 53.833 35 76.5s38.166 41 65.499 55s61 21 101 21c29.333 0 57.5 -4.66699 84.5 -14s50.5 -24.666 70.5 -45.999l-47 -51c-13.333 15.333 -29.333 27.5 -48 36.5
s-39.667 13.5 -63 13.5c-30 0 -54 -6.33301 -72 -19s-31.833 -28.334 -41.5 -47.001s-16 -38.667 -19 -60s-4.5 -40.333 -4.5 -57v-87h168v-60z" />
    <glyph glyph-name="currency" unicode="&#xa4;" horiz-adv-x="580" 
d="M480 431c15.333 -19.333 26.998 -41 34.998 -65s12 -51 12 -81s-4.33301 -57.833 -13 -83.5s-21 -48.167 -37 -67.5l86 -86l-39 -40l-88 87c-19.333 -14.667 -41.166 -26.167 -65.499 -34.5s-50.5 -12.5 -78.5 -12.5c-54.667 0 -103 16.333 -145 49l-89 -89l-40 40l88 89
c-32 38 -48 87.333 -48 148c0 28.667 3.83301 55 11.5 79s18.834 45.667 33.501 65l-85 85l40 39l85 -84c20 15.333 42.333 27.5 67 36.5s52 13.5 82 13.5c29.333 0 56.333 -4.33301 81 -13s46.667 -21 66 -37l84 84l40 -39zM291.998 457c-25.333 0 -48.333 -4.5 -69 -13.5
s-38.334 -21.333 -53.001 -37s-25.834 -34 -33.501 -55s-11.5 -43.167 -11.5 -66.5c0 -24 3.83301 -46.5 11.5 -67.5s18.834 -39.5 33.501 -55.5s32.334 -28.5 53.001 -37.5s43.667 -13.5 69 -13.5s48.333 4.5 69 13.5s38.167 21.5 52.5 37.5s25.5 34.5 33.5 55.5
s12 43.5 12 67.5c0 23.333 -4 45.5 -12 66.5s-19.167 39.333 -33.5 55s-31.833 28 -52.5 37s-43.667 13.5 -69 13.5z" />
    <glyph glyph-name="yen" unicode="&#xa5;" horiz-adv-x="580" 
d="M256 223v105h-165v54h145l-226 326h89l193 -300l192 300h86l-224 -326h143v-54h-165v-105h165v-54h-165v-169h-68v169h-165v54h165z" />
    <glyph glyph-name="brokenbar" unicode="&#xa6;" horiz-adv-x="222" 
d="M141 675v-350h-60v350h60zM141 175v-350h-60v350h60z" />
    <glyph glyph-name="section" unicode="&#xa7;" horiz-adv-x="580" 
d="M415 602c-3.33301 7.33301 -7.83398 14.8262 -13.501 22.4932s-13 14.5 -22 20.5s-19.5 11 -31.5 15s-25.667 6 -41 6c-32 0 -58 -7.83301 -78 -23.5s-30 -37.5 -30 -65.5c0 -15.333 2.83301 -28.666 8.5 -39.999s13 -21.166 22 -29.499s19.333 -15.5 31 -21.5
s23.834 -11.667 36.501 -17l87 -41c28 -13.333 52.167 -31.166 72.5 -53.499s30.5 -51.833 30.5 -88.5c0 -33.333 -8.66699 -61.166 -26 -83.499s-38.333 -38.166 -63 -47.499c23.333 -14 41 -31.167 53 -51.5s18 -44.833 18 -73.5c0 -28 -5.16699 -52.167 -15.5 -72.5
s-24.333 -37.333 -42 -51s-37.834 -23.667 -60.501 -30s-46 -9.5 -70 -9.5c-44.667 0 -84.834 9.33301 -120.501 28s-61.5 47.667 -77.5 87l66 32c11.333 -31.333 29.166 -53.666 53.499 -66.999s50.5 -20 78.5 -20c12 0 24.667 1.5 38 4.5s25.833 8.16699 37.5 15.5
s21.334 17.333 29.001 30s11.5 28.667 11.5 48c0 24 -7.16699 43.5 -21.5 58.5s-32.166 27.5 -53.499 37.5l-127 61c-13.333 6 -25.666 13 -36.999 21s-21.333 17.167 -30 27.5s-15.5 22.5 -20.5 36.5s-7.5 30.333 -7.5 49c0 33.333 9.83301 61.333 29.5 84
s44.5 38.667 74.5 48c-7.33301 4.66699 -15.5 10.334 -24.5 17.001s-17.333 14.667 -25 24s-14.167 20.5 -19.5 33.5s-8 28.167 -8 45.5c0 26.667 5 50 15 70s23.5 36.5 40.5 49.5s36.333 22.667 58 29s44.167 9.5 67.5 9.5c44.667 0 81 -9.16699 109 -27.5
s47 -40.5 57 -66.5zM258.999 409.993c-9.33301 -1.33301 -19.165 -3.82812 -29.498 -7.49512s-20 -9 -29 -16s-16.333 -16 -22 -27s-8.5 -24.167 -8.5 -39.5c0 -13.333 2.33301 -24.833 7 -34.5s11.667 -18.334 21 -26.001s20.666 -14.834 33.999 -21.501
s28.666 -13.667 45.999 -21l66 -30c8 2 16.333 5.33301 25 10s16.5 10.667 23.5 18s12.833 16 17.5 26s7 21.667 7 35c0 14.667 -2.5 27.667 -7.5 39s-12 21.166 -21 29.499s-19.333 15.666 -31 21.999s-24.167 12.166 -37.5 17.499z" />
    <glyph glyph-name="dieresis" unicode="&#xa8;" 
d="M-27 647c0 13.333 4.66699 25.166 14 35.499s21.666 15.5 36.999 15.5s27.666 -5.16699 36.999 -15.5s14 -22.166 14 -35.499s-4.66699 -25.166 -14 -35.499s-21.666 -15.5 -36.999 -15.5s-27.666 5.16699 -36.999 15.5s-14 22.166 -14 35.499zM165 647
c0 13.333 4.66699 25.166 14 35.499s21.666 15.5 36.999 15.5s27.666 -5.16699 36.999 -15.5s14 -22.166 14 -35.499s-4.66699 -25.166 -14 -35.499s-21.666 -15.5 -36.999 -15.5s-27.666 5.16699 -36.999 15.5s-14 22.166 -14 35.499z" />
    <glyph glyph-name="copyright" unicode="&#xa9;" horiz-adv-x="800" 
d="M580 224c-16 -24.667 -38.332 -46.001 -66.999 -64.001s-63 -27 -103 -27c-32.667 0 -62.834 5.66699 -90.501 17s-51.5 27 -71.5 47s-35.667 43.833 -47 71.5s-17 57.834 -17 90.501s5.66699 62.667 17 90s27 51 47 71s43.833 35.667 71.5 47s57.834 17 90.501 17
c32 0 62.833 -7 92.5 -21s52.834 -33.333 69.501 -58l-52 -40c-9.33301 14.667 -23.833 28.167 -43.5 40.5s-41.167 18.5 -64.5 18.5c-24.667 0 -46.834 -4.5 -66.501 -13.5s-36.334 -21.167 -50.001 -36.5s-24.167 -32.833 -31.5 -52.5s-11 -40.5 -11 -62.5
s3.5 -43 10.5 -63s17.333 -37.667 31 -53s30.167 -27.5 49.5 -36.5s41.333 -13.5 66 -13.5c21.333 0 42.333 5 63 15s39 26.667 55 50zM20.001 352.999c0 52.667 10 101.834 30 147.501s47.167 85.5 81.5 119.5s74.666 60.833 120.999 80.5s95.833 29.5 148.5 29.5
c52 0 101 -9.83301 147 -29.5s86.167 -46.5 120.5 -80.5s61.5 -73.833 81.5 -119.5s30 -94.834 30 -147.501c0 -52 -10 -100.833 -30 -146.5s-47.167 -85.5 -81.5 -119.5s-74.5 -60.667 -120.5 -80s-95 -29 -147 -29c-52.667 0 -102.167 9.66699 -148.5 29
s-86.666 46 -120.999 80s-61.5 73.833 -81.5 119.5s-30 94.5 -30 146.5zM80.001 352.999c0 -44 8.5 -85.333 25.5 -124s40 -72.5 69 -101.5s63 -51.833 102 -68.5s80.5 -25 124.5 -25s85.333 8.33301 124 25s72.5 39.5 101.5 68.5s51.833 62.833 68.5 101.5s25 80 25 124
s-8.33301 85.5 -25 124.5s-39.5 73 -68.5 102s-62.833 52 -101.5 69s-80 25.5 -124 25.5s-85.5 -8.5 -124.5 -25.5s-73 -40 -102 -69s-52 -63 -69 -102s-25.5 -80.5 -25.5 -124.5z" />
    <glyph glyph-name="ordfeminine" unicode="&#xaa;" horiz-adv-x="360" 
d="M244 614c0 20.667 -6.83301 35.998 -20.5 45.998s-31.167 15 -52.5 15c-16 0 -31.5 -3 -46.5 -9s-27.167 -13.667 -36.5 -23l-32 35c14.667 13.333 32.5 23.666 53.5 30.999s43.167 11 66.5 11c42 0 73 -10.5 93 -31.5s30 -47.167 30 -78.5v-123
c0 -9.33301 0.333008 -19.166 1 -29.499s1.66699 -19.166 3 -26.499h-52c-3.33301 14.667 -5 28.334 -5 41.001h-2c-22 -32 -54.667 -48 -98 -48c-12 0 -24.167 1.5 -36.5 4.5s-23.666 7.83301 -33.999 14.5s-18.833 15.667 -25.5 27s-10 25 -10 41c0 21.333 6 38.333 18 51
s27.667 22.167 47 28.5s41.166 10.5 65.499 12.5s48.833 3 73.5 3v8zM229 565.998c-14 0 -28.667 -0.5 -44 -1.5s-29.333 -3.5 -42 -7.5s-23.167 -9.5 -31.5 -16.5s-12.5 -16.5 -12.5 -28.5c0 -16.667 6.16699 -28.167 18.5 -34.5s25.833 -9.5 40.5 -9.5
c27.333 0 48.5 7.83301 63.5 23.5s22.5 35.5 22.5 59.5v15h-15z" />
    <glyph glyph-name="guillemotleft" unicode="&#xab;" horiz-adv-x="482" 
d="M124 240l115 -176l-47 -33l-140 209l140 209l47 -33zM306 240l115 -176l-47 -33l-140 209l140 209l47 -33z" />
    <glyph glyph-name="logicalnot" unicode="&#xac;" horiz-adv-x="666" 
d="M588 130h-60v218h-450v60h510v-278z" />
    <glyph glyph-name="uni00AD" unicode="&#xad;" horiz-adv-x="320" 
d="M272 214h-224v57h224v-57z" />
    <glyph glyph-name="registered" unicode="&#xae;" horiz-adv-x="600" 
d="M72 493c0 31.333 6 60.833 18 88.5s28.333 51.667 49 72s44.834 36.5 72.501 48.5s57.167 18 88.5 18s60.833 -6 88.5 -18s51.834 -28.167 72.501 -48.5s37 -44.333 49 -72s18 -57.167 18 -88.5s-6 -60.666 -18 -87.999s-28.333 -51.166 -49 -71.499
s-44.834 -36.333 -72.501 -48s-57.167 -17.5 -88.5 -17.5s-60.833 5.83301 -88.5 17.5s-51.834 27.667 -72.501 48s-37 44.166 -49 71.499s-18 56.666 -18 87.999zM108 493c0 -26 5 -50.667 15 -74s23.667 -43.833 41 -61.5s37.666 -31.5 60.999 -41.5s48.333 -15 75 -15
s51.667 5 75 15s43.666 23.833 60.999 41.5s31 38.167 41 61.5s15 48 15 74c0 26.667 -5 51.667 -15 75s-23.667 43.666 -41 60.999s-37.666 31 -60.999 41s-48.333 15 -75 15s-51.667 -5 -75 -15s-43.666 -23.667 -60.999 -41s-31 -37.666 -41 -60.999s-15 -48.333 -15 -75
zM211 622l90 0.000976562c12 0 23.667 -1.33301 35 -4s21.5 -7 30.5 -13s16.167 -13.667 21.5 -23s8 -21 8 -35c0 -18.667 -5.33301 -33.834 -16 -45.501s-25 -19.5 -43 -23.5l69 -112h-56l-60 107h-33v-107h-46v256zM294 510.001c13.333 0 26 2.5 38 7.5s18 15.167 18 30.5
c0 14 -5.5 23.333 -16.5 28s-22.5 7 -34.5 7h-42v-73h37z" />
    <glyph glyph-name="macron" unicode="&#xaf;" 
d="M255 600h-270v54h270v-54z" />
    <glyph glyph-name="degree" unicode="&#xb0;" horiz-adv-x="400" 
d="M349 571c0 -21.333 -3.66699 -41.166 -11 -59.499s-17.666 -34.166 -30.999 -47.499s-29.166 -23.666 -47.499 -30.999s-38.166 -11 -59.499 -11s-41.166 3.66699 -59.499 11s-34.166 17.666 -47.499 30.999s-23.666 29.166 -30.999 47.499s-11 38.166 -11 59.499
s3.66699 41.166 11 59.499s17.666 34.166 30.999 47.499s29.166 23.666 47.499 30.999s38.166 11 59.499 11s41.166 -3.66699 59.499 -11s34.166 -17.666 47.499 -30.999s23.666 -29.166 30.999 -47.499s11 -38.166 11 -59.499zM301 571c0 14 -2.66699 27.167 -8 39.5
s-12.5 23 -21.5 32s-19.667 16.167 -32 21.5s-25.5 8 -39.5 8s-27.167 -2.66699 -39.5 -8s-23 -12.5 -32 -21.5s-16.167 -19.667 -21.5 -32s-8 -25.5 -8 -39.5s2.66699 -27.167 8 -39.5s12.5 -23 21.5 -32s19.667 -16.167 32 -21.5s25.5 -8 39.5 -8s27.167 2.66699 39.5 8
s23 12.5 32 21.5s16.167 19.667 21.5 32s8 25.5 8 39.5z" />
    <glyph glyph-name="plusminus" unicode="&#xb1;" horiz-adv-x="666" 
d="M78 407h225v156h60v-156h225v-60h-225v-151h-60v151h-225v60zM78 108h510v-60h-510v60z" />
    <glyph glyph-name="twosuperior" unicode="&#xb2;" horiz-adv-x="370" 
d="M319 290l-276.001 -0.000976562v57l167 169c10.667 11.333 20.5 23.833 29.5 37.5s13.5 29.834 13.5 48.501c0 19.333 -6.33301 34.5 -19 45.5s-28.667 16.5 -48 16.5c-18.667 0 -34.667 -6.33301 -48 -19s-22.333 -29.667 -27 -51l-60 9
c6.66699 34 22.334 61.833 47.001 83.5s54 32.5 88 32.5c17.333 0 34 -2.5 50 -7.5s30 -12.333 42 -22s21.5 -21.834 28.5 -36.501s10.5 -31.667 10.5 -51c0 -14.667 -2.16699 -28.167 -6.5 -40.5s-9.83301 -23.666 -16.5 -33.999s-14.167 -20 -22.5 -29l-25.5 -26.5
l-128 -128h201v-54z" />
    <glyph glyph-name="threesuperior" unicode="&#xb3;" horiz-adv-x="370" 
d="M137 535l27 0.000976562c23.333 0 43.166 5.33301 59.499 16s24.5 28.667 24.5 54c0 18.667 -6.66699 33.667 -20 45s-29.666 17 -48.999 17c-15.333 0 -29.5 -4.33301 -42.5 -13s-23.833 -21 -32.5 -37l-50 26c15.333 26.667 34 46.167 56 58.5s45.667 18.5 71 18.5
c17.333 0 33.666 -2.33301 48.999 -7s28.833 -11.834 40.5 -21.501s20.834 -21.667 27.501 -36s10 -30.833 10 -49.5c0 -21.333 -5.16699 -39.833 -15.5 -55.5s-24.166 -28.167 -41.499 -37.5c21.333 -8 38.166 -20.667 50.499 -38s18.5 -38.666 18.5 -63.999
c0 -20.667 -3.83301 -39 -11.5 -55s-17.834 -29.333 -30.501 -40s-27.5 -18.667 -44.5 -24s-34.833 -8 -53.5 -8c-32 0 -60.167 7.66699 -84.5 23s-43.166 39.666 -56.499 72.999l57 19c6.66699 -19.333 17.5 -34.333 32.5 -45s32.167 -16 51.5 -16
c20.667 0 39.167 6 55.5 18s24.5 30.333 24.5 55c0 13.333 -2.83301 24.666 -8.5 33.999s-13 16.833 -22 22.5s-19.167 9.83398 -30.5 12.501s-23 4 -35 4h-27v51z" />
    <glyph glyph-name="acute" unicode="&#xb4;" 
d="M118 564h-59l100 144h91z" />
    <glyph glyph-name="mu" unicode="&#xb5;" horiz-adv-x="556" 
d="M72 468l65.999 0.000976562v-259c0 -57.333 9.16699 -98.5 27.5 -123.5s51.5 -37.5 99.5 -37.5c20 0 38.667 4 56 12s32.333 19.667 45 35s22.667 34.166 30 56.499s11 47.833 11 76.5v240h66v-365c0 -17.333 0.5 -34.5 1.5 -51.5s2.16699 -34.167 3.5 -51.5h-71v76h-2
c-7.33301 -12 -16.666 -23.333 -27.999 -34s-24 -20 -38 -28s-28.833 -14.333 -44.5 -19s-31.167 -7 -46.5 -7c-46 0 -82.667 9.66699 -110 29v-245h-66v696z" />
    <glyph glyph-name="paragraph" unicode="&#xb6;" horiz-adv-x="600" 
d="M513 -126l-66.001 -0.00195312v780h-124v-780h-66v442c-30.667 0 -58.834 4.83301 -84.501 14.5s-47.667 22.834 -66 39.501s-32.666 36.334 -42.999 59.001s-15.5 47 -15.5 73c0 65.333 20.333 116 61 152s96.334 54 167.001 54h237v-834z" />
    <glyph glyph-name="periodcentered" unicode="&#xb7;" horiz-adv-x="260" 
d="M184 314c0 -14 -5 -26.5 -15 -37.5s-23 -16.5 -39 -16.5s-29 5.5 -39 16.5s-15 23.5 -15 37.5s5 26.5 15 37.5s23 16.5 39 16.5s29 -5.5 39 -16.5s15 -23.5 15 -37.5z" />
    <glyph glyph-name="cedilla" unicode="&#xb8;" 
d="M109 -75c8.66699 2.66699 20.333 4.00098 35 4.00098c20 0 38.667 -6 56 -18s26 -30 26 -54c0 -16.667 -3.66699 -30.667 -11 -42s-16.666 -20.333 -27.999 -27s-24 -11.334 -38 -14.001s-27.667 -4 -41 -4s-28.833 1.66699 -46.5 5s-33.5 8.33301 -47.5 15l16 36
c11.333 -5.33301 23 -9 35 -11s24.333 -3 37 -3c5.33301 0 11.666 0.666992 18.999 2s14.333 3.83301 21 7.5s12.334 8.33398 17.001 14.001s7 12.5 7 20.5c0 13.333 -4.83301 23.166 -14.5 29.499s-22.834 9.5 -39.501 9.5c-14.667 0 -29 -2.66699 -43 -8l-18 15l62 98h43z
" />
    <glyph glyph-name="onesuperior" unicode="&#xb9;" horiz-adv-x="370" 
d="M232 286h-61v346l-64 -57l-38 41l112 92h51v-422z" />
    <glyph glyph-name="ordmasculine" unicode="&#xba;" horiz-adv-x="360" 
d="M332 572c0 -21.333 -3.83301 -41.166 -11.5 -59.499s-18.167 -34 -31.5 -47s-29.333 -23.167 -48 -30.5s-39 -11 -61 -11s-42.333 3.66699 -61 11s-34.667 17.5 -48 30.5s-23.833 28.667 -31.5 47s-11.5 38.166 -11.5 59.499c0 22 3.83301 42 11.5 60
s18.167 33.5 31.5 46.5s29.333 23.167 48 30.5s39 11 61 11s42.333 -3.66699 61 -11s34.667 -17.5 48 -30.5s23.833 -28.5 31.5 -46.5s11.5 -38 11.5 -60zM274 572c0 13.333 -2 26.166 -6 38.499s-10 23.166 -18 32.499s-17.833 16.833 -29.5 22.5s-25.167 8.5 -40.5 8.5
s-28.833 -2.83301 -40.5 -8.5s-21.5 -13.167 -29.5 -22.5s-14 -20.166 -18 -32.499s-6 -25.166 -6 -38.499s2 -26.166 6 -38.499s10 -23.166 18 -32.499s17.833 -16.833 29.5 -22.5s25.167 -8.5 40.5 -8.5s28.833 2.83301 40.5 8.5s21.5 13.167 29.5 22.5
s14 20.166 18 32.499s6 25.166 6 38.499z" />
    <glyph glyph-name="guillemotright" unicode="&#xbb;" horiz-adv-x="482" 
d="M358 240l-115 176l47 33l140 -209l-140 -209l-47 33zM176 240l-115 176l47 33l140 -209l-140 -209l-47 33z" />
    <glyph glyph-name="onequarter" unicode="&#xbc;" horiz-adv-x="840" 
d="M723 152h60v-54h-60v-98h-55v98h-188v52l175 272h68v-270zM665 340l-122 -188h125v188h-3zM232 286h-61v346l-64 -57l-38 41l112 92h51v-422zM217 -31l-52 27l451 743l51 -27z" />
    <glyph glyph-name="onehalf" unicode="&#xbd;" horiz-adv-x="840" 
d="M786 0l-276.001 -0.000976562v57l167 169c10.667 11.333 20.5 23.833 29.5 37.5s13.5 29.834 13.5 48.501c0 19.333 -6.33301 34.5 -19 45.5s-28.667 16.5 -48 16.5c-18.667 0 -34.667 -6.33301 -48 -19s-22.333 -29.667 -27 -51l-60 9
c6.66699 34 22.334 61.833 47.001 83.5s54 32.5 88 32.5c17.333 0 34 -2.5 50 -7.5s30 -12.333 42 -22s21.5 -21.834 28.5 -36.501s10.5 -31.667 10.5 -51c0 -14.667 -2.16699 -28.167 -6.5 -40.5s-9.83301 -23.666 -16.5 -33.999s-14.167 -20 -22.5 -29l-25.5 -26.5
l-128 -128h201v-54zM216.999 -31.001l-52 27l451 743l51 -27zM231.999 285.999h-61v346l-64 -57l-38 41l112 92h51v-422z" />
    <glyph glyph-name="threequarters" unicode="&#xbe;" horiz-adv-x="840" 
d="M723 152h60v-54h-60v-98h-55v98h-188v52l175 272h68v-270zM665 340l-122 -188h125v188h-3zM137 535l27 0.000976562c23.333 0 43.166 5.33301 59.499 16s24.5 28.667 24.5 54c0 18.667 -6.66699 33.667 -20 45s-29.666 17 -48.999 17c-15.333 0 -29.5 -4.33301 -42.5 -13
s-23.833 -21 -32.5 -37l-50 26c15.333 26.667 34 46.167 56 58.5s45.667 18.5 71 18.5c17.333 0 33.666 -2.33301 48.999 -7s28.833 -11.834 40.5 -21.501s20.834 -21.667 27.501 -36s10 -30.833 10 -49.5c0 -21.333 -5.16699 -39.833 -15.5 -55.5
s-24.166 -28.167 -41.499 -37.5c21.333 -8 38.166 -20.667 50.499 -38s18.5 -38.666 18.5 -63.999c0 -20.667 -3.83301 -39 -11.5 -55s-17.834 -29.333 -30.501 -40s-27.5 -18.667 -44.5 -24s-34.833 -8 -53.5 -8c-32 0 -60.167 7.66699 -84.5 23
s-43.166 39.666 -56.499 72.999l57 19c6.66699 -19.333 17.5 -34.333 32.5 -45s32.167 -16 51.5 -16c20.667 0 39.167 6 55.5 18s24.5 30.333 24.5 55c0 13.333 -2.83301 24.666 -8.5 33.999s-13 16.833 -22 22.5s-19.167 9.83398 -30.5 12.501s-23 4 -35 4h-27v51z
M217 -30.999l-52 27l451 743l51 -27z" />
    <glyph glyph-name="questiondown" unicode="&#xbf;" horiz-adv-x="482" 
d="M214 287l70.0029 0.00195312v-60c0 -19.333 -2.16699 -36.333 -6.5 -51s-10.333 -28 -18 -40s-16.334 -23 -26.001 -33s-19.5 -19.333 -29.5 -28l-28 -25c-16.667 -13.333 -30.5 -28.666 -41.5 -45.999s-16.5 -39 -16.5 -65c0 -18.667 3.33301 -35.334 10 -50.001
s15.667 -27 27 -37s24.5 -17.667 39.5 -23s31.167 -8 48.5 -8c36 0 65.167 11 87.5 33s36.166 50 41.499 84l68 -12c-10 -52 -32.833 -92.833 -68.5 -122.5s-79.5 -44.5 -131.5 -44.5c-26.667 0 -51.834 3.83301 -75.501 11.5s-44.167 19 -61.5 34
s-31.166 33.5 -41.499 55.5s-15.5 47 -15.5 75c0 21.333 2.33301 40 7 56s11.167 30.333 19.5 43s18.166 24.167 29.499 34.5l36 31.5c14 11.333 25.833 21.666 35.5 30.999s17.5 19.166 23.5 29.499s10.333 21.833 13 34.5s4 28 4 46v46zM188.003 431.002
c0 14 5 26.5 15 37.5s23 16.5 39 16.5s29 -5.5 39 -16.5s15 -23.5 15 -37.5s-5 -26.5 -15 -37.5s-23 -16.5 -39 -16.5s-29 5.5 -39 16.5s-15 23.5 -15 37.5z" />
    <glyph glyph-name="Agrave" unicode="&#xc0;" horiz-adv-x="700" 
d="M89 0h-79l306 708h70l304 -708h-80l-78 186h-366zM193 252h312l-156 376zM192 908h91l100 -144h-59z" />
    <glyph glyph-name="Aacute" unicode="&#xc1;" horiz-adv-x="700" 
d="M89 0h-79l306 708h70l304 -708h-80l-78 186h-366zM193 252h312l-156 376zM379 764h-59l100 144h91z" />
    <glyph glyph-name="Acircumflex" unicode="&#xc2;" horiz-adv-x="700" 
d="M89 0h-79l306 708h70l304 -708h-80l-78 186h-366zM193 252h312l-156 376zM498 764h-66l-83 108l-83 -108h-66l109 144h80z" />
    <glyph glyph-name="Atilde" unicode="&#xc3;" horiz-adv-x="700" 
d="M89 0h-79l306 708h70l304 -708h-80l-78 186h-366zM193 252h312l-156 376zM188 776c2 12.667 5.16895 25.3311 9.50195 37.998s10.166 23.834 17.499 33.501s16.166 17.5 26.499 23.5s23.166 9 38.499 9c12 0 24.167 -2.33301 36.5 -7s24.5 -10 36.5 -16l35 -15.5
c11.333 -5 22 -7.5 32 -7.5c15.333 0 26.5 5.16699 33.5 15.5s12.167 21.833 15.5 34.5h43c-2 -13.333 -5.16699 -26.166 -9.5 -38.499s-10.166 -23.333 -17.499 -33s-16.333 -17.5 -27 -23.5s-23.334 -9 -38.001 -9c-12 0 -24.333 2.33301 -37 7s-24.667 10 -36 16
s-22.666 11.333 -33.999 16s-22.333 7 -33 7c-15.333 0 -26.5 -5.16699 -33.5 -15.5s-12.167 -21.833 -15.5 -34.5h-43z" />
    <glyph glyph-name="Adieresis" unicode="&#xc4;" horiz-adv-x="700" 
d="M89 0h-79l306 708h70l304 -708h-80l-78 186h-366zM193 252h312l-156 376zM204 847c0 13.333 4.66699 25.166 14 35.499s21.666 15.5 36.999 15.5s27.666 -5.16699 36.999 -15.5s14 -22.166 14 -35.499s-4.66699 -25.166 -14 -35.499s-21.666 -15.5 -36.999 -15.5
s-27.666 5.16699 -36.999 15.5s-14 22.166 -14 35.499zM396 847c0 13.333 4.66699 25.166 14 35.499s21.666 15.5 36.999 15.5s27.666 -5.16699 36.999 -15.5s14 -22.166 14 -35.499s-4.66699 -25.166 -14 -35.499s-21.666 -15.5 -36.999 -15.5
s-27.666 5.16699 -36.999 15.5s-14 22.166 -14 35.499z" />
    <glyph glyph-name="Aring" unicode="&#xc5;" horiz-adv-x="700" 
d="M89 0h-79l306 708h70l304 -708h-80l-78 186h-366zM193 252h312l-156 376zM446 850c0 -13.333 -2.5 -25.833 -7.5 -37.5s-12 -21.834 -21 -30.501s-19.333 -15.334 -31 -20.001s-23.834 -7 -36.501 -7c-13.333 0 -25.666 2.33301 -36.999 7s-21.5 11.334 -30.5 20.001
s-16 18.834 -21 30.501s-7.5 24.167 -7.5 37.5s2.5 25.833 7.5 37.5s12 21.667 21 30s19.167 15 30.5 20s23.666 7.5 36.999 7.5c12.667 0 24.834 -2.5 36.501 -7.5s22 -11.667 31 -20s16 -18.333 21 -30s7.5 -24.167 7.5 -37.5zM410 850c0 16.667 -5.83301 30.667 -17.5 42
s-25.834 17 -42.501 17s-30.834 -5.66699 -42.501 -17s-17.5 -25.333 -17.5 -42s5.83301 -30.667 17.5 -42s25.834 -17 42.501 -17s30.834 5.66699 42.501 17s17.5 25.333 17.5 42z" />
    <glyph glyph-name="AE" unicode="&#xc6;" horiz-adv-x="990" 
d="M591 64h345v-64h-417v198h-298l-128 -198h-82l461 708h452v-64h-333v-244h309v-63h-309v-273zM519 261v383h-14l-247 -383h261z" />
    <glyph glyph-name="Ccedilla" unicode="&#xc7;" horiz-adv-x="720" 
d="M690 114c-12 -18 -26.502 -35 -43.502 -51s-36.667 -30 -59 -42s-47 -21.5 -74 -28.5s-56.5 -10.5 -88.5 -10.5l-35 -57c8.66699 2.66699 20.334 4 35.001 4c20 0 38.667 -6 56 -18s26 -30 26 -54c0 -16.667 -3.66699 -30.667 -11 -42s-16.666 -20.333 -27.999 -27
s-24 -11.334 -38 -14.001s-27.667 -4 -41 -4s-28.833 1.66699 -46.5 5s-33.5 8.33301 -47.5 15l16 36c11.333 -5.33301 23 -9 35 -11s24.333 -3 37 -3c5.33301 0 11.666 0.666992 18.999 2s14.333 3.83301 21 7.5s12.334 8.33398 17.001 14.001s7 12.5 7 20.5
c0 13.333 -4.83301 23.166 -14.5 29.499s-22.834 9.5 -39.501 9.5c-14.667 0 -29 -2.66699 -43 -8l-18 15l52 82c-48 4.66699 -92.167 17.167 -132.5 37.5s-75 46.666 -104 78.999s-51.5 70.166 -67.5 113.499s-24 90 -24 140c0 54 9.33301 103.667 28 149
s44.5 84.5 77.5 117.5s72 58.833 117 77.5s93.833 28 146.5 28c26 0 51.5 -2.66699 76.5 -8s48.5 -12.833 70.5 -22.5s42 -21.334 60 -35.001s33 -29.167 45 -46.5l-60 -44c-7.33301 11.333 -17.166 22.666 -29.499 33.999s-26.833 21.333 -43.5 30
s-34.834 15.667 -54.501 21s-40.834 8 -63.501 8c-46 0 -87.167 -8.33301 -123.5 -25s-67.166 -39.167 -92.499 -67.5s-44.666 -61.166 -57.999 -98.499s-20 -76.666 -20 -117.999s6.83301 -80.666 20.5 -117.999s33.167 -70.166 58.5 -98.499s56.166 -50.833 92.499 -67.5
s77.166 -25 122.499 -25c40.667 0 79.334 8.33301 116.001 25s67.334 43.334 92.001 80.001z" />
    <glyph glyph-name="Egrave" unicode="&#xc8;" horiz-adv-x="592" 
d="M166 64h379v-64h-451v708h439v-64h-367v-244h343v-63h-343v-273zM184 908h91l100 -144h-59z" />
    <glyph glyph-name="Eacute" unicode="&#xc9;" horiz-adv-x="592" 
d="M166 64h379v-64h-451v708h439v-64h-367v-244h343v-63h-343v-273zM324 764h-59l100 144h91z" />
    <glyph glyph-name="Ecircumflex" unicode="&#xca;" horiz-adv-x="592" 
d="M166 64h379v-64h-451v708h439v-64h-367v-244h343v-63h-343v-273zM465 764h-66l-83 108l-83 -108h-66l109 144h80z" />
    <glyph glyph-name="Edieresis" unicode="&#xcb;" horiz-adv-x="592" 
d="M166 64h379v-64h-451v708h439v-64h-367v-244h343v-63h-343v-273zM169 847c0 13.333 4.66699 25.166 14 35.499s21.666 15.5 36.999 15.5s27.666 -5.16699 36.999 -15.5s14 -22.166 14 -35.499s-4.66699 -25.166 -14 -35.499s-21.666 -15.5 -36.999 -15.5
s-27.666 5.16699 -36.999 15.5s-14 22.166 -14 35.499zM361 847c0 13.333 4.66699 25.166 14 35.499s21.666 15.5 36.999 15.5s27.666 -5.16699 36.999 -15.5s14 -22.166 14 -35.499s-4.66699 -25.166 -14 -35.499s-21.666 -15.5 -36.999 -15.5
s-27.666 5.16699 -36.999 15.5s-14 22.166 -14 35.499z" />
    <glyph glyph-name="Igrave" unicode="&#xcc;" horiz-adv-x="260" 
d="M166 0h-72v708h72v-708zM-26 908h91l100 -144h-59z" />
    <glyph glyph-name="Iacute" unicode="&#xcd;" horiz-adv-x="260" 
d="M166 0h-72v708h72v-708zM153 764h-59l100 144h91z" />
    <glyph glyph-name="Icircumflex" unicode="&#xce;" horiz-adv-x="260" 
d="M166 0h-72v708h72v-708zM279 764h-66l-83 108l-83 -108h-66l109 144h80z" />
    <glyph glyph-name="Idieresis" unicode="&#xcf;" horiz-adv-x="260" 
d="M166 0h-72v708h72v-708zM-17 847c0 13.333 4.66699 25.166 14 35.499s21.666 15.5 36.999 15.5s27.666 -5.16699 36.999 -15.5s14 -22.166 14 -35.499s-4.66699 -25.166 -14 -35.499s-21.666 -15.5 -36.999 -15.5s-27.666 5.16699 -36.999 15.5s-14 22.166 -14 35.499z
M175 847c0 13.333 4.66699 25.166 14 35.499s21.666 15.5 36.999 15.5s27.666 -5.16699 36.999 -15.5s14 -22.166 14 -35.499s-4.66699 -25.166 -14 -35.499s-21.666 -15.5 -36.999 -15.5s-27.666 5.16699 -36.999 15.5s-14 22.166 -14 35.499z" />
    <glyph glyph-name="Eth" unicode="&#xd0;" horiz-adv-x="757" 
d="M86 347l-73 0.00195312v54h73v307h235c44 0 88.167 -7.33301 132.5 -22s84.333 -36.834 120 -66.501s64.5 -66.667 86.5 -111s33 -95.833 33 -154.5c0 -59.333 -11 -111 -33 -155s-50.833 -80.833 -86.5 -110.5s-75.667 -51.834 -120 -66.501s-88.5 -22 -132.5 -22h-235
v347zM158 66.002h140c54 0 100.833 8.16699 140.5 24.5s72.667 38 99 65s45.833 57.667 58.5 92s19 69.833 19 106.5s-6.33301 72.167 -19 106.5s-32.167 65 -58.5 92s-59.333 48.667 -99 65s-86.5 24.5 -140.5 24.5h-140v-241h258v-54h-258v-281z" />
    <glyph glyph-name="Ntilde" unicode="&#xd1;" horiz-adv-x="764" 
d="M596 105h2v603h72v-708h-90l-412 609h-2v-609h-72v708h90zM223 776c2 12.667 5.16895 25.3311 9.50195 37.998s10.166 23.834 17.499 33.501s16.166 17.5 26.499 23.5s23.166 9 38.499 9c12 0 24.167 -2.33301 36.5 -7s24.5 -10 36.5 -16l35 -15.5
c11.333 -5 22 -7.5 32 -7.5c15.333 0 26.5 5.16699 33.5 15.5s12.167 21.833 15.5 34.5h43c-2 -13.333 -5.16699 -26.166 -9.5 -38.499s-10.166 -23.333 -17.499 -33s-16.333 -17.5 -27 -23.5s-23.334 -9 -38.001 -9c-12 0 -24.333 2.33301 -37 7s-24.667 10 -36 16
s-22.666 11.333 -33.999 16s-22.333 7 -33 7c-15.333 0 -26.5 -5.16699 -33.5 -15.5s-12.167 -21.833 -15.5 -34.5h-43z" />
    <glyph glyph-name="Ograve" unicode="&#xd2;" horiz-adv-x="850" 
d="M794 354c0 -54 -9.33301 -103.667 -28 -149s-44.5 -84.5 -77.5 -117.5s-72 -58.833 -117 -77.5s-93.833 -28 -146.5 -28s-101.5 9.33301 -146.5 28s-84 44.5 -117 77.5s-58.833 72.167 -77.5 117.5s-28 95 -28 149s9.33301 103.667 28 149s44.5 84.5 77.5 117.5
s72 58.833 117 77.5s93.833 28 146.5 28s101.5 -9.33301 146.5 -28s84 -44.5 117 -77.5s58.833 -72.167 77.5 -117.5s28 -95 28 -149zM718 354c0 41.333 -6.66699 80.666 -20 117.999s-32.666 70.166 -57.999 98.499s-56.166 50.833 -92.499 67.5s-77.166 25 -122.499 25
s-86.166 -8.33301 -122.499 -25s-67.166 -39.167 -92.499 -67.5s-44.666 -61.166 -57.999 -98.499s-20 -76.666 -20 -117.999s6.66699 -80.666 20 -117.999s32.666 -70 57.999 -98s56.166 -50.333 92.499 -67s77.166 -25 122.499 -25s86.166 8.33301 122.499 25
s67.166 39 92.499 67s44.666 60.667 57.999 98s20 76.666 20 117.999zM307 908h91l100 -144h-59z" />
    <glyph glyph-name="Oacute" unicode="&#xd3;" horiz-adv-x="850" 
d="M794 354c0 -54 -9.33301 -103.667 -28 -149s-44.5 -84.5 -77.5 -117.5s-72 -58.833 -117 -77.5s-93.833 -28 -146.5 -28s-101.5 9.33301 -146.5 28s-84 44.5 -117 77.5s-58.833 72.167 -77.5 117.5s-28 95 -28 149s9.33301 103.667 28 149s44.5 84.5 77.5 117.5
s72 58.833 117 77.5s93.833 28 146.5 28s101.5 -9.33301 146.5 -28s84 -44.5 117 -77.5s58.833 -72.167 77.5 -117.5s28 -95 28 -149zM718 354c0 41.333 -6.66699 80.666 -20 117.999s-32.666 70.166 -57.999 98.499s-56.166 50.833 -92.499 67.5s-77.166 25 -122.499 25
s-86.166 -8.33301 -122.499 -25s-67.166 -39.167 -92.499 -67.5s-44.666 -61.166 -57.999 -98.499s-20 -76.666 -20 -117.999s6.66699 -80.666 20 -117.999s32.666 -70 57.999 -98s56.166 -50.333 92.499 -67s77.166 -25 122.499 -25s86.166 8.33301 122.499 25
s67.166 39 92.499 67s44.666 60.667 57.999 98s20 76.666 20 117.999zM426 764h-59l100 144h91z" />
    <glyph glyph-name="Ocircumflex" unicode="&#xd4;" horiz-adv-x="850" 
d="M794 354c0 -54 -9.33301 -103.667 -28 -149s-44.5 -84.5 -77.5 -117.5s-72 -58.833 -117 -77.5s-93.833 -28 -146.5 -28s-101.5 9.33301 -146.5 28s-84 44.5 -117 77.5s-58.833 72.167 -77.5 117.5s-28 95 -28 149s9.33301 103.667 28 149s44.5 84.5 77.5 117.5
s72 58.833 117 77.5s93.833 28 146.5 28s101.5 -9.33301 146.5 -28s84 -44.5 117 -77.5s58.833 -72.167 77.5 -117.5s28 -95 28 -149zM718 354c0 41.333 -6.66699 80.666 -20 117.999s-32.666 70.166 -57.999 98.499s-56.166 50.833 -92.499 67.5s-77.166 25 -122.499 25
s-86.166 -8.33301 -122.499 -25s-67.166 -39.167 -92.499 -67.5s-44.666 -61.166 -57.999 -98.499s-20 -76.666 -20 -117.999s6.66699 -80.666 20 -117.999s32.666 -70 57.999 -98s56.166 -50.333 92.499 -67s77.166 -25 122.499 -25s86.166 8.33301 122.499 25
s67.166 39 92.499 67s44.666 60.667 57.999 98s20 76.666 20 117.999zM574 764h-66l-83 108l-83 -108h-66l109 144h80z" />
    <glyph glyph-name="Otilde" unicode="&#xd5;" horiz-adv-x="850" 
d="M794 354c0 -54 -9.33301 -103.667 -28 -149s-44.5 -84.5 -77.5 -117.5s-72 -58.833 -117 -77.5s-93.833 -28 -146.5 -28s-101.5 9.33301 -146.5 28s-84 44.5 -117 77.5s-58.833 72.167 -77.5 117.5s-28 95 -28 149s9.33301 103.667 28 149s44.5 84.5 77.5 117.5
s72 58.833 117 77.5s93.833 28 146.5 28s101.5 -9.33301 146.5 -28s84 -44.5 117 -77.5s58.833 -72.167 77.5 -117.5s28 -95 28 -149zM718 354c0 41.333 -6.66699 80.666 -20 117.999s-32.666 70.166 -57.999 98.499s-56.166 50.833 -92.499 67.5s-77.166 25 -122.499 25
s-86.166 -8.33301 -122.499 -25s-67.166 -39.167 -92.499 -67.5s-44.666 -61.166 -57.999 -98.499s-20 -76.666 -20 -117.999s6.66699 -80.666 20 -117.999s32.666 -70 57.999 -98s56.166 -50.333 92.499 -67s77.166 -25 122.499 -25s86.166 8.33301 122.499 25
s67.166 39 92.499 67s44.666 60.667 57.999 98s20 76.666 20 117.999zM263 776c2 12.667 5.16895 25.3311 9.50195 37.998s10.166 23.834 17.499 33.501s16.166 17.5 26.499 23.5s23.166 9 38.499 9c12 0 24.167 -2.33301 36.5 -7s24.5 -10 36.5 -16l35 -15.5
c11.333 -5 22 -7.5 32 -7.5c15.333 0 26.5 5.16699 33.5 15.5s12.167 21.833 15.5 34.5h43c-2 -13.333 -5.16699 -26.166 -9.5 -38.499s-10.166 -23.333 -17.499 -33s-16.333 -17.5 -27 -23.5s-23.334 -9 -38.001 -9c-12 0 -24.333 2.33301 -37 7s-24.667 10 -36 16
s-22.666 11.333 -33.999 16s-22.333 7 -33 7c-15.333 0 -26.5 -5.16699 -33.5 -15.5s-12.167 -21.833 -15.5 -34.5h-43z" />
    <glyph glyph-name="Odieresis" unicode="&#xd6;" horiz-adv-x="850" 
d="M794 354c0 -54 -9.33301 -103.667 -28 -149s-44.5 -84.5 -77.5 -117.5s-72 -58.833 -117 -77.5s-93.833 -28 -146.5 -28s-101.5 9.33301 -146.5 28s-84 44.5 -117 77.5s-58.833 72.167 -77.5 117.5s-28 95 -28 149s9.33301 103.667 28 149s44.5 84.5 77.5 117.5
s72 58.833 117 77.5s93.833 28 146.5 28s101.5 -9.33301 146.5 -28s84 -44.5 117 -77.5s58.833 -72.167 77.5 -117.5s28 -95 28 -149zM718 354c0 41.333 -6.66699 80.666 -20 117.999s-32.666 70.166 -57.999 98.499s-56.166 50.833 -92.499 67.5s-77.166 25 -122.499 25
s-86.166 -8.33301 -122.499 -25s-67.166 -39.167 -92.499 -67.5s-44.666 -61.166 -57.999 -98.499s-20 -76.666 -20 -117.999s6.66699 -80.666 20 -117.999s32.666 -70 57.999 -98s56.166 -50.333 92.499 -67s77.166 -25 122.499 -25s86.166 8.33301 122.499 25
s67.166 39 92.499 67s44.666 60.667 57.999 98s20 76.666 20 117.999zM278 847c0 13.333 4.66699 25.166 14 35.499s21.666 15.5 36.999 15.5s27.666 -5.16699 36.999 -15.5s14 -22.166 14 -35.499s-4.66699 -25.166 -14 -35.499s-21.666 -15.5 -36.999 -15.5
s-27.666 5.16699 -36.999 15.5s-14 22.166 -14 35.499zM470 847c0 13.333 4.66699 25.166 14 35.499s21.666 15.5 36.999 15.5s27.666 -5.16699 36.999 -15.5s14 -22.166 14 -35.499s-4.66699 -25.166 -14 -35.499s-21.666 -15.5 -36.999 -15.5
s-27.666 5.16699 -36.999 15.5s-14 22.166 -14 35.499z" />
    <glyph glyph-name="multiply" unicode="&#xd7;" horiz-adv-x="666" 
d="M333 346l158 159l43 -42l-159 -160l159 -159l-43 -43l-158 159l-159 -159l-42 43l159 159l-159 160l42 42z" />
    <glyph glyph-name="Oslash" unicode="&#xd8;" horiz-adv-x="850" 
d="M698 610c30.667 -32.667 54.334 -70.666 71.001 -113.999s25 -90.666 25 -141.999c0 -54 -9.33301 -103.667 -28 -149s-44.5 -84.5 -77.5 -117.5s-72 -58.833 -117 -77.5s-93.833 -28 -146.5 -28c-46 0 -89 7.16699 -129 21.5s-75.667 34.166 -107 59.499l-76 -81l-37 34
l76 82c-30.667 32.667 -54.334 70.667 -71.001 114s-25 90.666 -25 141.999c0 54 9.33301 103.667 28 149s44.5 84.5 77.5 117.5s72 58.833 117 77.5s93.833 28 146.5 28c46 0 88.833 -7 128.5 -21s75.5 -34 107.5 -60l76 81l37 -34zM236 113.001
c24.667 -21.333 52.5 -37.8311 83.5 -49.498s66.167 -17.5 105.5 -17.5c46 0 87.167 8.33301 123.5 25s67 39 92 67s44.167 60.667 57.5 98s20 76.666 20 117.999c0 38 -5.66699 74.667 -17 110s-28 66.666 -50 93.999zM616 595.003
c-23.333 21.333 -51.1689 37.998 -83.502 49.998s-68.166 18 -107.499 18c-46 0 -87.167 -8.33301 -123.5 -25s-67 -39.167 -92 -67.5s-44.167 -61.166 -57.5 -98.499s-20 -76.666 -20 -117.999c0 -38.667 5.83301 -75.667 17.5 -111s28.834 -66.333 51.501 -93z" />
    <glyph glyph-name="Ugrave" unicode="&#xd9;" horiz-adv-x="710" 
d="M355 -18c-53.333 0 -97 9.16699 -131 27.5s-61 41.5 -81 69.5s-33.833 58.5 -41.5 91.5s-11.5 64.167 -11.5 93.5v444h72v-436c0 -28.667 3.33301 -56.5 10 -83.5s17.5 -51 32.5 -72s34.833 -38 59.5 -51s55 -19.5 91 -19.5s66.333 6.5 91 19.5s44.5 30 59.5 51
s25.833 45 32.5 72s10 54.833 10 83.5v436h72v-444c0 -29.333 -3.83301 -60.5 -11.5 -93.5s-21.5 -63.5 -41.5 -91.5s-47.167 -51.167 -81.5 -69.5s-77.833 -27.5 -130.5 -27.5zM224 908h91l100 -144h-59z" />
    <glyph glyph-name="Uacute" unicode="&#xda;" horiz-adv-x="710" 
d="M355 -18c-53.333 0 -97 9.16699 -131 27.5s-61 41.5 -81 69.5s-33.833 58.5 -41.5 91.5s-11.5 64.167 -11.5 93.5v444h72v-436c0 -28.667 3.33301 -56.5 10 -83.5s17.5 -51 32.5 -72s34.833 -38 59.5 -51s55 -19.5 91 -19.5s66.333 6.5 91 19.5s44.5 30 59.5 51
s25.833 45 32.5 72s10 54.833 10 83.5v436h72v-444c0 -29.333 -3.83301 -60.5 -11.5 -93.5s-21.5 -63.5 -41.5 -91.5s-47.167 -51.167 -81.5 -69.5s-77.833 -27.5 -130.5 -27.5zM365 764h-59l100 144h91z" />
    <glyph glyph-name="Ucircumflex" unicode="&#xdb;" horiz-adv-x="710" 
d="M355 -18c-53.333 0 -97 9.16699 -131 27.5s-61 41.5 -81 69.5s-33.833 58.5 -41.5 91.5s-11.5 64.167 -11.5 93.5v444h72v-436c0 -28.667 3.33301 -56.5 10 -83.5s17.5 -51 32.5 -72s34.833 -38 59.5 -51s55 -19.5 91 -19.5s66.333 6.5 91 19.5s44.5 30 59.5 51
s25.833 45 32.5 72s10 54.833 10 83.5v436h72v-444c0 -29.333 -3.83301 -60.5 -11.5 -93.5s-21.5 -63.5 -41.5 -91.5s-47.167 -51.167 -81.5 -69.5s-77.833 -27.5 -130.5 -27.5zM504 764h-66l-83 108l-83 -108h-66l109 144h80z" />
    <glyph glyph-name="Udieresis" unicode="&#xdc;" horiz-adv-x="710" 
d="M355 -18c-53.333 0 -97 9.16699 -131 27.5s-61 41.5 -81 69.5s-33.833 58.5 -41.5 91.5s-11.5 64.167 -11.5 93.5v444h72v-436c0 -28.667 3.33301 -56.5 10 -83.5s17.5 -51 32.5 -72s34.833 -38 59.5 -51s55 -19.5 91 -19.5s66.333 6.5 91 19.5s44.5 30 59.5 51
s25.833 45 32.5 72s10 54.833 10 83.5v436h72v-444c0 -29.333 -3.83301 -60.5 -11.5 -93.5s-21.5 -63.5 -41.5 -91.5s-47.167 -51.167 -81.5 -69.5s-77.833 -27.5 -130.5 -27.5zM209 847c0 13.333 4.66699 25.166 14 35.499s21.666 15.5 36.999 15.5
s27.666 -5.16699 36.999 -15.5s14 -22.166 14 -35.499s-4.66699 -25.166 -14 -35.499s-21.666 -15.5 -36.999 -15.5s-27.666 5.16699 -36.999 15.5s-14 22.166 -14 35.499zM401 847c0 13.333 4.66699 25.166 14 35.499s21.666 15.5 36.999 15.5
s27.666 -5.16699 36.999 -15.5s14 -22.166 14 -35.499s-4.66699 -25.166 -14 -35.499s-21.666 -15.5 -36.999 -15.5s-27.666 5.16699 -36.999 15.5s-14 22.166 -14 35.499z" />
    <glyph glyph-name="Yacute" unicode="&#xdd;" horiz-adv-x="602" 
d="M337 0h-72v305l-265 403h90l213 -343l215 343h84l-265 -403v-305zM334 764h-59l100 144h91z" />
    <glyph glyph-name="Thorn" unicode="&#xde;" horiz-adv-x="580" 
d="M94 708l72 0.00292969v-155h128c36 0 68.667 -3.83301 98 -11.5s54.5 -19.334 75.5 -35.001s37.167 -35.334 48.5 -59.001s17 -51.5 17 -83.5s-5.83301 -59.833 -17.5 -83.5s-28 -43.334 -49 -59.001s-46.333 -27.5 -76 -35.5s-62.5 -12 -98.5 -12h-126v-174h-72v708z
M166 237.003h116c56.667 0 99.667 10.667 129 32s44 53 44 95c0 44 -15.167 75.833 -45.5 95.5s-72.833 29.5 -127.5 29.5h-116v-252z" />
    <glyph glyph-name="germandbls" unicode="&#xdf;" horiz-adv-x="597" 
d="M156 0l-68.001 0.00292969v544c0 26 3.16699 52.333 9.5 79s17.5 50.667 33.5 72s37.5 38.833 64.5 52.5s61.167 20.5 102.5 20.5c25.333 0 49.5 -4 72.5 -12s43.333 -19.5 61 -34.5s31.834 -33.5 42.501 -55.5s16 -47 16 -75c0 -78 -38.667 -131 -116 -159v-2
c25.333 -3.33301 48.5 -10.5 69.5 -21.5s39 -25.5 54 -43.5s26.667 -39 35 -63s12.5 -50.333 12.5 -79c0 -35.333 -5.66699 -67.5 -17 -96.5s-27.5 -53.833 -48.5 -74.5s-46.167 -36.5 -75.5 -47.5s-62.333 -16.5 -99 -16.5c-8 0 -17.167 0.5 -27.5 1.5
s-19.5 2.16699 -27.5 3.5v57c6.66699 -1.33301 14.5 -2.33301 23.5 -3s17.167 -1 24.5 -1c53.333 0 96 15.667 128 47s48 75 48 131c0 58 -17.667 101.667 -53 131s-82 44 -140 44h-9v60h8c40.667 0 74.334 10.167 101.001 30.5s40 52.166 40 95.499
c0 20 -3.33301 37.667 -10 53s-15.834 28.166 -27.501 38.499s-25.167 18.166 -40.5 23.499s-31.333 8 -48 8c-29.333 0 -53 -5.33301 -71 -16s-32 -24.167 -42 -40.5s-16.833 -34.333 -20.5 -54s-5.5 -38.167 -5.5 -55.5v-542z" />
    <glyph glyph-name="agrave" unicode="&#xe0;" horiz-adv-x="534" 
d="M385 302c0 40.667 -10.6689 71 -32.002 91s-52.333 30 -93 30c-28 0 -54 -5 -78 -15s-44.333 -23.333 -61 -40l-38 45c19.333 19.333 44.833 35.333 76.5 48s67.5 19 107.5 19c25.333 0 49 -3.5 71 -10.5s41.333 -17.5 58 -31.5s29.667 -31.667 39 -53s14 -46.333 14 -75
v-205c0 -18 0.666992 -36.667 2 -56s3.33301 -35.666 6 -48.999h-61c-2 11.333 -3.66699 23.666 -5 36.999s-2 26.333 -2 39h-2c-21.333 -31.333 -45.5 -53.833 -72.5 -67.5s-59.5 -20.5 -97.5 -20.5c-18 0 -36.5 2.5 -55.5 7.5s-36.333 13.167 -52 24.5s-28.667 26 -39 44
s-15.5 40 -15.5 66c0 36 9.16699 64.5 27.5 85.5s42.833 36.667 73.5 47s65.834 17 105.501 20s80.834 4.5 123.501 4.5v15zM364.998 234c-28 0 -56.1689 -1.16699 -84.502 -3.5s-54 -7 -77 -14s-41.833 -17.167 -56.5 -30.5s-22 -31 -22 -53
c0 -16.667 3.16699 -30.667 9.5 -42s14.833 -20.5 25.5 -27.5s22.5 -12 35.5 -15s26.167 -4.5 39.5 -4.5c24 0 45.333 4.16699 64 12.5s34.334 19.666 47.001 33.999s22.334 30.833 29.001 49.5s10 38.334 10 59.001v35h-20zM143.996 708h91l100 -144h-59z" />
    <glyph glyph-name="aacute" unicode="&#xe1;" horiz-adv-x="534" 
d="M385 302c0 40.667 -10.6689 71 -32.002 91s-52.333 30 -93 30c-28 0 -54 -5 -78 -15s-44.333 -23.333 -61 -40l-38 45c19.333 19.333 44.833 35.333 76.5 48s67.5 19 107.5 19c25.333 0 49 -3.5 71 -10.5s41.333 -17.5 58 -31.5s29.667 -31.667 39 -53s14 -46.333 14 -75
v-205c0 -18 0.666992 -36.667 2 -56s3.33301 -35.666 6 -48.999h-61c-2 11.333 -3.66699 23.666 -5 36.999s-2 26.333 -2 39h-2c-21.333 -31.333 -45.5 -53.833 -72.5 -67.5s-59.5 -20.5 -97.5 -20.5c-18 0 -36.5 2.5 -55.5 7.5s-36.333 13.167 -52 24.5s-28.667 26 -39 44
s-15.5 40 -15.5 66c0 36 9.16699 64.5 27.5 85.5s42.833 36.667 73.5 47s65.834 17 105.501 20s80.834 4.5 123.501 4.5v15zM364.998 234c-28 0 -56.1689 -1.16699 -84.502 -3.5s-54 -7 -77 -14s-41.833 -17.167 -56.5 -30.5s-22 -31 -22 -53
c0 -16.667 3.16699 -30.667 9.5 -42s14.833 -20.5 25.5 -27.5s22.5 -12 35.5 -15s26.167 -4.5 39.5 -4.5c24 0 45.333 4.16699 64 12.5s34.334 19.666 47.001 33.999s22.334 30.833 29.001 49.5s10 38.334 10 59.001v35h-20zM273.996 564h-59l100 144h91z" />
    <glyph glyph-name="acircumflex" unicode="&#xe2;" horiz-adv-x="534" 
d="M385 302c0 40.667 -10.6689 71 -32.002 91s-52.333 30 -93 30c-28 0 -54 -5 -78 -15s-44.333 -23.333 -61 -40l-38 45c19.333 19.333 44.833 35.333 76.5 48s67.5 19 107.5 19c25.333 0 49 -3.5 71 -10.5s41.333 -17.5 58 -31.5s29.667 -31.667 39 -53s14 -46.333 14 -75
v-205c0 -18 0.666992 -36.667 2 -56s3.33301 -35.666 6 -48.999h-61c-2 11.333 -3.66699 23.666 -5 36.999s-2 26.333 -2 39h-2c-21.333 -31.333 -45.5 -53.833 -72.5 -67.5s-59.5 -20.5 -97.5 -20.5c-18 0 -36.5 2.5 -55.5 7.5s-36.333 13.167 -52 24.5s-28.667 26 -39 44
s-15.5 40 -15.5 66c0 36 9.16699 64.5 27.5 85.5s42.833 36.667 73.5 47s65.834 17 105.501 20s80.834 4.5 123.501 4.5v15zM364.998 234c-28 0 -56.1689 -1.16699 -84.502 -3.5s-54 -7 -77 -14s-41.833 -17.167 -56.5 -30.5s-22 -31 -22 -53
c0 -16.667 3.16699 -30.667 9.5 -42s14.833 -20.5 25.5 -27.5s22.5 -12 35.5 -15s26.167 -4.5 39.5 -4.5c24 0 45.333 4.16699 64 12.5s34.334 19.666 47.001 33.999s22.334 30.833 29.001 49.5s10 38.334 10 59.001v35h-20zM417.996 564h-66l-83 108l-83 -108h-66l109 144
h80z" />
    <glyph glyph-name="atilde" unicode="&#xe3;" horiz-adv-x="534" 
d="M385 302c0 40.667 -10.6689 71 -32.002 91s-52.333 30 -93 30c-28 0 -54 -5 -78 -15s-44.333 -23.333 -61 -40l-38 45c19.333 19.333 44.833 35.333 76.5 48s67.5 19 107.5 19c25.333 0 49 -3.5 71 -10.5s41.333 -17.5 58 -31.5s29.667 -31.667 39 -53s14 -46.333 14 -75
v-205c0 -18 0.666992 -36.667 2 -56s3.33301 -35.666 6 -48.999h-61c-2 11.333 -3.66699 23.666 -5 36.999s-2 26.333 -2 39h-2c-21.333 -31.333 -45.5 -53.833 -72.5 -67.5s-59.5 -20.5 -97.5 -20.5c-18 0 -36.5 2.5 -55.5 7.5s-36.333 13.167 -52 24.5s-28.667 26 -39 44
s-15.5 40 -15.5 66c0 36 9.16699 64.5 27.5 85.5s42.833 36.667 73.5 47s65.834 17 105.501 20s80.834 4.5 123.501 4.5v15zM364.998 234c-28 0 -56.1689 -1.16699 -84.502 -3.5s-54 -7 -77 -14s-41.833 -17.167 -56.5 -30.5s-22 -31 -22 -53
c0 -16.667 3.16699 -30.667 9.5 -42s14.833 -20.5 25.5 -27.5s22.5 -12 35.5 -15s26.167 -4.5 39.5 -4.5c24 0 45.333 4.16699 64 12.5s34.334 19.666 47.001 33.999s22.334 30.833 29.001 49.5s10 38.334 10 59.001v35h-20zM102.996 576
c2 12.667 5.16895 25.3311 9.50195 37.998s10.166 23.834 17.499 33.501s16.166 17.5 26.499 23.5s23.166 9 38.499 9c12 0 24.167 -2.33301 36.5 -7s24.5 -10 36.5 -16l35 -15.5c11.333 -5 22 -7.5 32 -7.5c15.333 0 26.5 5.16699 33.5 15.5s12.167 21.833 15.5 34.5h43
c-2 -13.333 -5.16699 -26.166 -9.5 -38.499s-10.166 -23.333 -17.499 -33s-16.333 -17.5 -27 -23.5s-23.334 -9 -38.001 -9c-12 0 -24.333 2.33301 -37 7s-24.667 10 -36 16s-22.666 11.333 -33.999 16s-22.333 7 -33 7c-15.333 0 -26.5 -5.16699 -33.5 -15.5
s-12.167 -21.833 -15.5 -34.5h-43z" />
    <glyph glyph-name="adieresis" unicode="&#xe4;" horiz-adv-x="534" 
d="M385 302c0 40.667 -10.6689 71 -32.002 91s-52.333 30 -93 30c-28 0 -54 -5 -78 -15s-44.333 -23.333 -61 -40l-38 45c19.333 19.333 44.833 35.333 76.5 48s67.5 19 107.5 19c25.333 0 49 -3.5 71 -10.5s41.333 -17.5 58 -31.5s29.667 -31.667 39 -53s14 -46.333 14 -75
v-205c0 -18 0.666992 -36.667 2 -56s3.33301 -35.666 6 -48.999h-61c-2 11.333 -3.66699 23.666 -5 36.999s-2 26.333 -2 39h-2c-21.333 -31.333 -45.5 -53.833 -72.5 -67.5s-59.5 -20.5 -97.5 -20.5c-18 0 -36.5 2.5 -55.5 7.5s-36.333 13.167 -52 24.5s-28.667 26 -39 44
s-15.5 40 -15.5 66c0 36 9.16699 64.5 27.5 85.5s42.833 36.667 73.5 47s65.834 17 105.501 20s80.834 4.5 123.501 4.5v15zM364.998 234c-28 0 -56.1689 -1.16699 -84.502 -3.5s-54 -7 -77 -14s-41.833 -17.167 -56.5 -30.5s-22 -31 -22 -53
c0 -16.667 3.16699 -30.667 9.5 -42s14.833 -20.5 25.5 -27.5s22.5 -12 35.5 -15s26.167 -4.5 39.5 -4.5c24 0 45.333 4.16699 64 12.5s34.334 19.666 47.001 33.999s22.334 30.833 29.001 49.5s10 38.334 10 59.001v35h-20zM118.996 647c0 13.333 4.66699 25.166 14 35.499
s21.666 15.5 36.999 15.5s27.666 -5.16699 36.999 -15.5s14 -22.166 14 -35.499s-4.66699 -25.166 -14 -35.499s-21.666 -15.5 -36.999 -15.5s-27.666 5.16699 -36.999 15.5s-14 22.166 -14 35.499zM310.996 647c0 13.333 4.66699 25.166 14 35.499s21.666 15.5 36.999 15.5
s27.666 -5.16699 36.999 -15.5s14 -22.166 14 -35.499s-4.66699 -25.166 -14 -35.499s-21.666 -15.5 -36.999 -15.5s-27.666 5.16699 -36.999 15.5s-14 22.166 -14 35.499z" />
    <glyph glyph-name="aring" unicode="&#xe5;" horiz-adv-x="534" 
d="M385 302c0 40.667 -10.6689 71 -32.002 91s-52.333 30 -93 30c-28 0 -54 -5 -78 -15s-44.333 -23.333 -61 -40l-38 45c19.333 19.333 44.833 35.333 76.5 48s67.5 19 107.5 19c25.333 0 49 -3.5 71 -10.5s41.333 -17.5 58 -31.5s29.667 -31.667 39 -53s14 -46.333 14 -75
v-205c0 -18 0.666992 -36.667 2 -56s3.33301 -35.666 6 -48.999h-61c-2 11.333 -3.66699 23.666 -5 36.999s-2 26.333 -2 39h-2c-21.333 -31.333 -45.5 -53.833 -72.5 -67.5s-59.5 -20.5 -97.5 -20.5c-18 0 -36.5 2.5 -55.5 7.5s-36.333 13.167 -52 24.5s-28.667 26 -39 44
s-15.5 40 -15.5 66c0 36 9.16699 64.5 27.5 85.5s42.833 36.667 73.5 47s65.834 17 105.501 20s80.834 4.5 123.501 4.5v15zM364.998 234c-28 0 -56.1689 -1.16699 -84.502 -3.5s-54 -7 -77 -14s-41.833 -17.167 -56.5 -30.5s-22 -31 -22 -53
c0 -16.667 3.16699 -30.667 9.5 -42s14.833 -20.5 25.5 -27.5s22.5 -12 35.5 -15s26.167 -4.5 39.5 -4.5c24 0 45.333 4.16699 64 12.5s34.334 19.666 47.001 33.999s22.334 30.833 29.001 49.5s10 38.334 10 59.001v35h-20zM360.996 650c0 -13.333 -2.5 -25.833 -7.5 -37.5
s-12 -21.834 -21 -30.501s-19.333 -15.334 -31 -20.001s-23.834 -7 -36.501 -7c-13.333 0 -25.666 2.33301 -36.999 7s-21.5 11.334 -30.5 20.001s-16 18.834 -21 30.501s-7.5 24.167 -7.5 37.5s2.5 25.833 7.5 37.5s12 21.667 21 30s19.167 15 30.5 20
s23.666 7.5 36.999 7.5c12.667 0 24.834 -2.5 36.501 -7.5s22 -11.667 31 -20s16 -18.333 21 -30s7.5 -24.167 7.5 -37.5zM324.996 650c0 16.667 -5.83301 30.667 -17.5 42s-25.834 17 -42.501 17s-30.834 -5.66699 -42.501 -17s-17.5 -25.333 -17.5 -42
s5.83301 -30.667 17.5 -42s25.834 -17 42.501 -17s30.834 5.66699 42.501 17s17.5 25.333 17.5 42z" />
    <glyph glyph-name="ae" unicode="&#xe6;" horiz-adv-x="870" 
d="M745 270c0 44.667 -12.667 81.3311 -38 109.998s-60.666 43 -105.999 43c-20.667 0 -40.167 -4.16699 -58.5 -12.5s-34.5 -19.666 -48.5 -33.999s-25.333 -30.666 -34 -48.999s-13.334 -37.5 -14.001 -57.5h299zM360 215.997c-30 0 -59.166 -0.833008 -87.499 -2.5
s-53.333 -5.5 -75 -11.5s-39 -15 -52 -27s-19.5 -28.333 -19.5 -49c0 -16 3 -29.333 9 -40s14.167 -19.167 24.5 -25.5s22.166 -10.833 35.499 -13.5s27.333 -4 42 -4c48 0 83.833 12.667 107.5 38s35.5 59 35.5 101v34h-20zM814.001 247.997l-0.00292969 -17.001
c0 -5.33301 -0.333008 -10.333 -1 -15h-370c0.666992 -23.333 5.16699 -45.5 13.5 -66.5s19.833 -39.167 34.5 -54.5s31.834 -27.5 51.501 -36.5s40.834 -13.5 63.501 -13.5c34 0 63.167 8.16699 87.5 24.5s42.833 35.166 55.5 56.499l49 -39
c-26.667 -35.333 -56 -60.666 -88 -75.999s-66.667 -23 -104 -23c-44 0 -82.167 9.66699 -114.5 29s-56.166 46 -71.499 80c-9.33301 -21.333 -20.833 -39 -34.5 -53s-29 -25.167 -46 -33.5s-35.167 -14.166 -54.5 -17.499s-39.333 -5 -60 -5c-20 0 -40.167 2.5 -60.5 7.5
s-38.5 12.833 -54.5 23.5s-29 24.667 -39 42s-15 38.666 -15 63.999c0 33.333 9.33301 59.666 28 78.999s43.167 33.833 73.5 43.5s65 15.834 104 18.501s78.5 4 118.5 4v15c0 40.667 -9.83301 73.834 -29.5 99.501s-49.834 38.5 -90.501 38.5c-28 0 -54.5 -5 -79.5 -15
s-46.5 -23.333 -64.5 -40l-39 44c20 19.333 47.167 35.5 81.5 48.5s71.5 19.5 111.5 19.5c37.333 0 69.5 -8.5 96.5 -25.5s46.167 -41.167 57.5 -72.5c18.667 30 43.5 53.833 74.5 71.5s65.167 26.5 102.5 26.5c34.667 0 65.334 -6.16699 92.001 -18.5s49 -29 67 -50
s31.5 -45.5 40.5 -73.5s13.5 -58 13.5 -90z" />
    <glyph glyph-name="ccedilla" unicode="&#xe7;" horiz-adv-x="500" 
d="M427 361c-11.333 18 -27.833 32.835 -49.5 44.502s-45.167 17.5 -70.5 17.5c-27.333 0 -52 -4.83301 -74 -14.5s-40.833 -23 -56.5 -40s-27.667 -37 -36 -60s-12.5 -47.833 -12.5 -74.5s4.16699 -51.334 12.5 -74.001s20.166 -42.5 35.499 -59.5s34 -30.333 56 -40
s46.667 -14.5 74 -14.5c30 0 55.333 5.66699 76 17s37.667 26 51 44l51 -38c-19.333 -24 -43 -43.167 -71 -57.5s-61.667 -22.166 -101 -23.499l-39 -63c8.66699 2.66699 20.334 4 35.001 4c20 0 38.667 -6 56 -18s26 -30 26 -54c0 -16.667 -3.66699 -30.667 -11 -42
s-16.666 -20.333 -27.999 -27s-24 -11.334 -38 -14.001s-27.667 -4 -41 -4s-28.833 1.66699 -46.5 5s-33.5 8.33301 -47.5 15l16 36c11.333 -5.33301 23 -9 35 -11s24.333 -3 37 -3c5.33301 0 11.666 0.666992 18.999 2s14.333 3.83301 21 7.5s12.334 8.33398 17.001 14.001
s7 12.5 7 20.5c0 13.333 -4.83301 23.166 -14.5 29.499s-22.834 9.5 -39.501 9.5c-14.667 0 -29 -2.66699 -43 -8l-18 15l55 88c-32.667 4 -62.167 12.833 -88.5 26.5s-48.833 31.167 -67.5 52.5s-33 46 -43 74s-15 58.333 -15 91c0 35.333 6 68 18 98s28.833 56 50.5 78
s47.834 39.167 78.501 51.5s65 18.5 103 18.5c31.333 0 63.166 -6.83301 95.499 -20.5s58.5 -33.834 78.5 -60.501z" />
    <glyph glyph-name="egrave" unicode="&#xe8;" horiz-adv-x="572" 
d="M447 270c-2 44 -16.166 80.498 -42.499 109.498s-63.833 43.5 -112.5 43.5c-22.667 0 -43.667 -4.16699 -63 -12.5s-36.333 -19.666 -51 -33.999s-26.334 -30.666 -35.001 -48.999s-13.667 -37.5 -15 -57.5h319zM516.001 247.998l-0.000976562 -15
c0 -5.33301 -0.333008 -11 -1 -17h-388c0.666992 -23.333 5.33398 -45.333 14.001 -66s20.667 -38.667 36 -54s33.333 -27.5 54 -36.5s43 -13.5 67 -13.5c35.333 0 65.833 8.16699 91.5 24.5s45.167 35.166 58.5 56.499l51 -40c-28 -35.333 -58.833 -60.666 -92.5 -75.999
s-69.834 -23 -108.501 -23c-34.667 0 -66.834 6.16699 -96.501 18.5s-55.167 29.5 -76.5 51.5s-38.166 48 -50.499 78s-18.5 62.667 -18.5 98s6 68 18 98s28.667 56 50 78s46.333 39.167 75 51.5s59.667 18.5 93 18.5c36.667 0 69 -6.16699 97 -18.5s51.333 -29 70 -50
s32.834 -45.5 42.501 -73.5s14.5 -58 14.5 -90zM150 707.998h91l100 -144h-59z" />
    <glyph glyph-name="eacute" unicode="&#xe9;" horiz-adv-x="572" 
d="M447 270c-2 44 -16.166 80.498 -42.499 109.498s-63.833 43.5 -112.5 43.5c-22.667 0 -43.667 -4.16699 -63 -12.5s-36.333 -19.666 -51 -33.999s-26.334 -30.666 -35.001 -48.999s-13.667 -37.5 -15 -57.5h319zM516.001 247.998l-0.000976562 -15
c0 -5.33301 -0.333008 -11 -1 -17h-388c0.666992 -23.333 5.33398 -45.333 14.001 -66s20.667 -38.667 36 -54s33.333 -27.5 54 -36.5s43 -13.5 67 -13.5c35.333 0 65.833 8.16699 91.5 24.5s45.167 35.166 58.5 56.499l51 -40c-28 -35.333 -58.833 -60.666 -92.5 -75.999
s-69.834 -23 -108.501 -23c-34.667 0 -66.834 6.16699 -96.501 18.5s-55.167 29.5 -76.5 51.5s-38.166 48 -50.499 78s-18.5 62.667 -18.5 98s6 68 18 98s28.667 56 50 78s46.333 39.167 75 51.5s59.667 18.5 93 18.5c36.667 0 69 -6.16699 97 -18.5s51.333 -29 70 -50
s32.834 -45.5 42.501 -73.5s14.5 -58 14.5 -90zM310 563.998h-59l100 144h91z" />
    <glyph glyph-name="ecircumflex" unicode="&#xea;" horiz-adv-x="572" 
d="M447 270c-2 44 -16.166 80.498 -42.499 109.498s-63.833 43.5 -112.5 43.5c-22.667 0 -43.667 -4.16699 -63 -12.5s-36.333 -19.666 -51 -33.999s-26.334 -30.666 -35.001 -48.999s-13.667 -37.5 -15 -57.5h319zM516.001 247.998l-0.000976562 -15
c0 -5.33301 -0.333008 -11 -1 -17h-388c0.666992 -23.333 5.33398 -45.333 14.001 -66s20.667 -38.667 36 -54s33.333 -27.5 54 -36.5s43 -13.5 67 -13.5c35.333 0 65.833 8.16699 91.5 24.5s45.167 35.166 58.5 56.499l51 -40c-28 -35.333 -58.833 -60.666 -92.5 -75.999
s-69.834 -23 -108.501 -23c-34.667 0 -66.834 6.16699 -96.501 18.5s-55.167 29.5 -76.5 51.5s-38.166 48 -50.499 78s-18.5 62.667 -18.5 98s6 68 18 98s28.667 56 50 78s46.333 39.167 75 51.5s59.667 18.5 93 18.5c36.667 0 69 -6.16699 97 -18.5s51.333 -29 70 -50
s32.834 -45.5 42.501 -73.5s14.5 -58 14.5 -90zM448 563.998h-66l-83 108l-83 -108h-66l109 144h80z" />
    <glyph glyph-name="edieresis" unicode="&#xeb;" horiz-adv-x="572" 
d="M447 270c-2 44 -16.166 80.498 -42.499 109.498s-63.833 43.5 -112.5 43.5c-22.667 0 -43.667 -4.16699 -63 -12.5s-36.333 -19.666 -51 -33.999s-26.334 -30.666 -35.001 -48.999s-13.667 -37.5 -15 -57.5h319zM516.001 247.998l-0.000976562 -15
c0 -5.33301 -0.333008 -11 -1 -17h-388c0.666992 -23.333 5.33398 -45.333 14.001 -66s20.667 -38.667 36 -54s33.333 -27.5 54 -36.5s43 -13.5 67 -13.5c35.333 0 65.833 8.16699 91.5 24.5s45.167 35.166 58.5 56.499l51 -40c-28 -35.333 -58.833 -60.666 -92.5 -75.999
s-69.834 -23 -108.501 -23c-34.667 0 -66.834 6.16699 -96.501 18.5s-55.167 29.5 -76.5 51.5s-38.166 48 -50.499 78s-18.5 62.667 -18.5 98s6 68 18 98s28.667 56 50 78s46.333 39.167 75 51.5s59.667 18.5 93 18.5c36.667 0 69 -6.16699 97 -18.5s51.333 -29 70 -50
s32.834 -45.5 42.501 -73.5s14.5 -58 14.5 -90zM152 646.998c0 13.333 4.66699 25.166 14 35.499s21.666 15.5 36.999 15.5s27.666 -5.16699 36.999 -15.5s14 -22.166 14 -35.499s-4.66699 -25.166 -14 -35.499s-21.666 -15.5 -36.999 -15.5s-27.666 5.16699 -36.999 15.5
s-14 22.166 -14 35.499zM344 646.998c0 13.333 4.66699 25.166 14 35.499s21.666 15.5 36.999 15.5s27.666 -5.16699 36.999 -15.5s14 -22.166 14 -35.499s-4.66699 -25.166 -14 -35.499s-21.666 -15.5 -36.999 -15.5s-27.666 5.16699 -36.999 15.5s-14 22.166 -14 35.499z
" />
    <glyph glyph-name="igrave" unicode="&#xec;" horiz-adv-x="250" 
d="M159 0h-68v468h68v-468zM-33 708h91l100 -144h-59z" />
    <glyph glyph-name="iacute" unicode="&#xed;" horiz-adv-x="250" 
d="M159 0h-68v468h68v-468zM150 564h-59l100 144h91z" />
    <glyph glyph-name="icircumflex" unicode="&#xee;" horiz-adv-x="250" 
d="M159 0h-68v468h68v-468zM276 564h-66l-83 108l-83 -108h-66l109 144h80z" />
    <glyph glyph-name="idieresis" unicode="&#xef;" horiz-adv-x="250" 
d="M159 0h-68v468h68v-468zM-21 647c0 13.333 4.66699 25.166 14 35.499s21.666 15.5 36.999 15.5s27.666 -5.16699 36.999 -15.5s14 -22.166 14 -35.499s-4.66699 -25.166 -14 -35.499s-21.666 -15.5 -36.999 -15.5s-27.666 5.16699 -36.999 15.5s-14 22.166 -14 35.499z
M171 647c0 13.333 4.66699 25.166 14 35.499s21.666 15.5 36.999 15.5s27.666 -5.16699 36.999 -15.5s14 -22.166 14 -35.499s-4.66699 -25.166 -14 -35.499s-21.666 -15.5 -36.999 -15.5s-27.666 5.16699 -36.999 15.5s-14 22.166 -14 35.499z" />
    <glyph glyph-name="eth" unicode="&#xf0;" horiz-adv-x="611" 
d="M120 234c0 -26 4.16699 -50.333 12.5 -73s20 -42.334 35 -59.001s33.333 -29.834 55 -39.501s46.167 -14.5 73.5 -14.5s51.833 4.83301 73.5 14.5s40.167 22.834 55.5 39.501s27.166 36.334 35.499 59.001s12.5 47 12.5 73s-4.16699 50.333 -12.5 73
s-20.166 42.334 -35.499 59.001s-33.833 29.834 -55.5 39.501s-46.167 14.5 -73.5 14.5s-51.833 -4.83301 -73.5 -14.5s-40 -22.834 -55 -39.501s-26.667 -36.334 -35 -59.001s-12.5 -47 -12.5 -73zM352 660c27.333 -25.333 52.6719 -53.335 76.0049 -84.002
s43.666 -63.5 60.999 -98.5s31 -71.5 41 -109.5s15 -76.667 15 -116c0 -30 -4.33301 -60.667 -13 -92s-22.834 -59.666 -42.501 -84.999s-45.334 -46.166 -77.001 -62.499s-70.5 -24.5 -116.5 -24.5c-36 0 -69.167 6.16699 -99.5 18.5s-56.5 29.5 -78.5 51.5
s-39.167 48 -51.5 78s-18.5 62.667 -18.5 98s6.16699 68 18.5 98s29.5 56 51.5 78s48.167 39.167 78.5 51.5s63.5 18.5 99.5 18.5c29.333 0 55.666 -4.66699 78.999 -14s47 -24 71 -44l2 2c-18 38 -40.5 74.833 -67.5 110.5s-56.5 67.167 -88.5 94.5l-112 -57l-36 36l110 56
c-16.667 16 -33.834 30.333 -51.501 43l-48.5 34l59 37l51.5 -40.5c17 -13.667 33.167 -27.5 48.5 -41.5l102 53l40 -35z" />
    <glyph glyph-name="ntilde" unicode="&#xf1;" horiz-adv-x="581" 
d="M151 468c1.33301 -12.667 2.33301 -26.667 3 -42s1 -28 1 -38h2c13.333 27.333 35 49.5 65 66.5s61.667 25.5 95 25.5c59.333 0 103.833 -17.667 133.5 -53s44.5 -82 44.5 -140v-287h-68v259c0 24.667 -2 47 -6 67s-10.833 37.167 -20.5 51.5s-22.667 25.5 -39 33.5
s-36.833 12 -61.5 12c-18 0 -35.5 -3.66699 -52.5 -11s-32.167 -18.5 -45.5 -33.5s-24 -34 -32 -57s-12 -50.167 -12 -81.5v-240h-68v365c0 12.667 -0.333008 29 -1 49s-1.66699 38 -3 54h65zM131 576c2 12.667 5.16895 25.3311 9.50195 37.998s10.166 23.834 17.499 33.501
s16.166 17.5 26.499 23.5s23.166 9 38.499 9c12 0 24.167 -2.33301 36.5 -7s24.5 -10 36.5 -16l35 -15.5c11.333 -5 22 -7.5 32 -7.5c15.333 0 26.5 5.16699 33.5 15.5s12.167 21.833 15.5 34.5h43c-2 -13.333 -5.16699 -26.166 -9.5 -38.499s-10.166 -23.333 -17.499 -33
s-16.333 -17.5 -27 -23.5s-23.334 -9 -38.001 -9c-12 0 -24.333 2.33301 -37 7s-24.667 10 -36 16s-22.666 11.333 -33.999 16s-22.333 7 -33 7c-15.333 0 -26.5 -5.16699 -33.5 -15.5s-12.167 -21.833 -15.5 -34.5h-43z" />
    <glyph glyph-name="ograve" unicode="&#xf2;" horiz-adv-x="611" 
d="M555 234c0 -35.333 -6.16699 -68 -18.5 -98s-29.5 -56 -51.5 -78s-48.333 -39.167 -79 -51.5s-64.334 -18.5 -101.001 -18.5c-36 0 -69.333 6.16699 -100 18.5s-57 29.5 -79 51.5s-39.167 48 -51.5 78s-18.5 62.667 -18.5 98s6.16699 68 18.5 98s29.5 56 51.5 78
s48.333 39.167 79 51.5s64 18.5 100 18.5c36.667 0 70.334 -6.16699 101.001 -18.5s57 -29.5 79 -51.5s39.167 -48 51.5 -78s18.5 -62.667 18.5 -98zM483 234c0 26 -4.16699 50.5 -12.5 73.5s-20.166 43 -35.499 60s-34 30.5 -56 40.5s-46.667 15 -74 15
s-51.833 -5 -73.5 -15s-40.167 -23.5 -55.5 -40.5s-27.166 -37 -35.499 -60s-12.5 -47.5 -12.5 -73.5s4.16699 -50.5 12.5 -73.5s20.166 -43 35.499 -60s33.833 -30.333 55.5 -40s46.167 -14.5 73.5 -14.5s52 4.83301 74 14.5s40.667 23 56 40s27.166 37 35.499 60
s12.5 47.5 12.5 73.5zM153 708h91l100 -144h-59z" />
    <glyph glyph-name="oacute" unicode="&#xf3;" horiz-adv-x="611" 
d="M555 234c0 -35.333 -6.16699 -68 -18.5 -98s-29.5 -56 -51.5 -78s-48.333 -39.167 -79 -51.5s-64.334 -18.5 -101.001 -18.5c-36 0 -69.333 6.16699 -100 18.5s-57 29.5 -79 51.5s-39.167 48 -51.5 78s-18.5 62.667 -18.5 98s6.16699 68 18.5 98s29.5 56 51.5 78
s48.333 39.167 79 51.5s64 18.5 100 18.5c36.667 0 70.334 -6.16699 101.001 -18.5s57 -29.5 79 -51.5s39.167 -48 51.5 -78s18.5 -62.667 18.5 -98zM483 234c0 26 -4.16699 50.5 -12.5 73.5s-20.166 43 -35.499 60s-34 30.5 -56 40.5s-46.667 15 -74 15
s-51.833 -5 -73.5 -15s-40.167 -23.5 -55.5 -40.5s-27.166 -37 -35.499 -60s-12.5 -47.5 -12.5 -73.5s4.16699 -50.5 12.5 -73.5s20.166 -43 35.499 -60s33.833 -30.333 55.5 -40s46.167 -14.5 73.5 -14.5s52 4.83301 74 14.5s40.667 23 56 40s27.166 37 35.499 60
s12.5 47.5 12.5 73.5zM323 564h-59l100 144h91z" />
    <glyph glyph-name="ocircumflex" unicode="&#xf4;" horiz-adv-x="611" 
d="M555 234c0 -35.333 -6.16699 -68 -18.5 -98s-29.5 -56 -51.5 -78s-48.333 -39.167 -79 -51.5s-64.334 -18.5 -101.001 -18.5c-36 0 -69.333 6.16699 -100 18.5s-57 29.5 -79 51.5s-39.167 48 -51.5 78s-18.5 62.667 -18.5 98s6.16699 68 18.5 98s29.5 56 51.5 78
s48.333 39.167 79 51.5s64 18.5 100 18.5c36.667 0 70.334 -6.16699 101.001 -18.5s57 -29.5 79 -51.5s39.167 -48 51.5 -78s18.5 -62.667 18.5 -98zM483 234c0 26 -4.16699 50.5 -12.5 73.5s-20.166 43 -35.499 60s-34 30.5 -56 40.5s-46.667 15 -74 15
s-51.833 -5 -73.5 -15s-40.167 -23.5 -55.5 -40.5s-27.166 -37 -35.499 -60s-12.5 -47.5 -12.5 -73.5s4.16699 -50.5 12.5 -73.5s20.166 -43 35.499 -60s33.833 -30.333 55.5 -40s46.167 -14.5 73.5 -14.5s52 4.83301 74 14.5s40.667 23 56 40s27.166 37 35.499 60
s12.5 47.5 12.5 73.5zM454 564h-66l-83 108l-83 -108h-66l109 144h80z" />
    <glyph glyph-name="otilde" unicode="&#xf5;" horiz-adv-x="611" 
d="M555 234c0 -35.333 -6.16699 -68 -18.5 -98s-29.5 -56 -51.5 -78s-48.333 -39.167 -79 -51.5s-64.334 -18.5 -101.001 -18.5c-36 0 -69.333 6.16699 -100 18.5s-57 29.5 -79 51.5s-39.167 48 -51.5 78s-18.5 62.667 -18.5 98s6.16699 68 18.5 98s29.5 56 51.5 78
s48.333 39.167 79 51.5s64 18.5 100 18.5c36.667 0 70.334 -6.16699 101.001 -18.5s57 -29.5 79 -51.5s39.167 -48 51.5 -78s18.5 -62.667 18.5 -98zM483 234c0 26 -4.16699 50.5 -12.5 73.5s-20.166 43 -35.499 60s-34 30.5 -56 40.5s-46.667 15 -74 15
s-51.833 -5 -73.5 -15s-40.167 -23.5 -55.5 -40.5s-27.166 -37 -35.499 -60s-12.5 -47.5 -12.5 -73.5s4.16699 -50.5 12.5 -73.5s20.166 -43 35.499 -60s33.833 -30.333 55.5 -40s46.167 -14.5 73.5 -14.5s52 4.83301 74 14.5s40.667 23 56 40s27.166 37 35.499 60
s12.5 47.5 12.5 73.5zM143 576c2 12.667 5.16895 25.3311 9.50195 37.998s10.166 23.834 17.499 33.501s16.166 17.5 26.499 23.5s23.166 9 38.499 9c12 0 24.167 -2.33301 36.5 -7s24.5 -10 36.5 -16l35 -15.5c11.333 -5 22 -7.5 32 -7.5c15.333 0 26.5 5.16699 33.5 15.5
s12.167 21.833 15.5 34.5h43c-2 -13.333 -5.16699 -26.166 -9.5 -38.499s-10.166 -23.333 -17.499 -33s-16.333 -17.5 -27 -23.5s-23.334 -9 -38.001 -9c-12 0 -24.333 2.33301 -37 7s-24.667 10 -36 16s-22.666 11.333 -33.999 16s-22.333 7 -33 7
c-15.333 0 -26.5 -5.16699 -33.5 -15.5s-12.167 -21.833 -15.5 -34.5h-43z" />
    <glyph glyph-name="odieresis" unicode="&#xf6;" horiz-adv-x="611" 
d="M555 234c0 -35.333 -6.16699 -68 -18.5 -98s-29.5 -56 -51.5 -78s-48.333 -39.167 -79 -51.5s-64.334 -18.5 -101.001 -18.5c-36 0 -69.333 6.16699 -100 18.5s-57 29.5 -79 51.5s-39.167 48 -51.5 78s-18.5 62.667 -18.5 98s6.16699 68 18.5 98s29.5 56 51.5 78
s48.333 39.167 79 51.5s64 18.5 100 18.5c36.667 0 70.334 -6.16699 101.001 -18.5s57 -29.5 79 -51.5s39.167 -48 51.5 -78s18.5 -62.667 18.5 -98zM483 234c0 26 -4.16699 50.5 -12.5 73.5s-20.166 43 -35.499 60s-34 30.5 -56 40.5s-46.667 15 -74 15
s-51.833 -5 -73.5 -15s-40.167 -23.5 -55.5 -40.5s-27.166 -37 -35.499 -60s-12.5 -47.5 -12.5 -73.5s4.16699 -50.5 12.5 -73.5s20.166 -43 35.499 -60s33.833 -30.333 55.5 -40s46.167 -14.5 73.5 -14.5s52 4.83301 74 14.5s40.667 23 56 40s27.166 37 35.499 60
s12.5 47.5 12.5 73.5zM158 647c0 13.333 4.66699 25.166 14 35.499s21.666 15.5 36.999 15.5s27.666 -5.16699 36.999 -15.5s14 -22.166 14 -35.499s-4.66699 -25.166 -14 -35.499s-21.666 -15.5 -36.999 -15.5s-27.666 5.16699 -36.999 15.5s-14 22.166 -14 35.499z
M350 647c0 13.333 4.66699 25.166 14 35.499s21.666 15.5 36.999 15.5s27.666 -5.16699 36.999 -15.5s14 -22.166 14 -35.499s-4.66699 -25.166 -14 -35.499s-21.666 -15.5 -36.999 -15.5s-27.666 5.16699 -36.999 15.5s-14 22.166 -14 35.499z" />
    <glyph glyph-name="divide" unicode="&#xf7;" horiz-adv-x="666" 
d="M588 273h-510v60h510v-60zM387 465c0 -14 -5 -26.5 -15 -37.5s-23 -16.5 -39 -16.5s-29 5.5 -39 16.5s-15 23.5 -15 37.5s5 26.5 15 37.5s23 16.5 39 16.5s29 -5.5 39 -16.5s15 -23.5 15 -37.5zM387 141c0 -14 -5 -26.5 -15 -37.5s-23 -16.5 -39 -16.5s-29 5.5 -39 16.5
s-15 23.5 -15 37.5s5 26.5 15 37.5s23 16.5 39 16.5s29 -5.5 39 -16.5s15 -23.5 15 -37.5z" />
    <glyph glyph-name="oslash" unicode="&#xf8;" horiz-adv-x="611" 
d="M188 82c15.333 -12 32.5 -21.5 51.5 -28.5s40.167 -10.5 63.5 -10.5c28 0 53.167 5 75.5 15s41.5 23.5 57.5 40.5s28.333 37.167 37 60.5s13 48.333 13 75c0 21.333 -3 42.5 -9 63.5s-15 38.833 -27 53.5zM421 385c-13.333 13.333 -30.168 23.335 -50.501 30.002
s-42.166 10 -65.499 10c-28 0 -53 -5 -75 -15s-40.833 -23.667 -56.5 -41s-27.667 -37.5 -36 -60.5s-12.5 -47.833 -12.5 -74.5c0 -22.667 2.83301 -44.334 8.5 -65.001s14.167 -38.334 25.5 -53.001zM494.998 397.002c18 -20.667 32.5 -44.832 43.5 -72.499
s16.5 -57.834 16.5 -90.501c0 -35.333 -6.16699 -68 -18.5 -98s-29.666 -56 -51.999 -78s-48.833 -39.167 -79.5 -51.5s-64.334 -18.5 -101.001 -18.5c-32 0 -61.167 4.66699 -87.5 14s-49.5 22 -69.5 38l-67 -68l-32 31l66 68c-18.667 21.333 -33 45.833 -43 73.5
s-15 57.5 -15 89.5c0 35.333 6.16699 68 18.5 98s29.5 56 51.5 78s48.167 39.167 78.5 51.5s63.5 18.5 99.5 18.5c31.333 0 60.333 -4.5 87 -13.5s50.667 -21.833 72 -38.5l66 68l32 -31z" />
    <glyph glyph-name="ugrave" unicode="&#xf9;" horiz-adv-x="581" 
d="M430 0c-1.33301 12.667 -2.33301 26.667 -3 42s-1 28 -1 38h-2c-13.333 -27.333 -35 -49.5 -65 -66.5s-61.667 -25.5 -95 -25.5c-59.333 0 -103.833 17.667 -133.5 53s-44.5 82 -44.5 140v287h68v-259c0 -24.667 2 -47 6 -67s10.833 -37.167 20.5 -51.5
s22.667 -25.5 39 -33.5s36.833 -12 61.5 -12c18 0 35.5 3.66699 52.5 11s32.167 18.5 45.5 33.5s24 34 32 57s12 50.167 12 81.5v240h68v-365c0 -12.667 0.333008 -29 1 -49s1.66699 -38 3 -54h-65zM145 708h91l100 -144h-59z" />
    <glyph glyph-name="uacute" unicode="&#xfa;" horiz-adv-x="581" 
d="M430 0c-1.33301 12.667 -2.33301 26.667 -3 42s-1 28 -1 38h-2c-13.333 -27.333 -35 -49.5 -65 -66.5s-61.667 -25.5 -95 -25.5c-59.333 0 -103.833 17.667 -133.5 53s-44.5 82 -44.5 140v287h68v-259c0 -24.667 2 -47 6 -67s10.833 -37.167 20.5 -51.5
s22.667 -25.5 39 -33.5s36.833 -12 61.5 -12c18 0 35.5 3.66699 52.5 11s32.167 18.5 45.5 33.5s24 34 32 57s12 50.167 12 81.5v240h68v-365c0 -12.667 0.333008 -29 1 -49s1.66699 -38 3 -54h-65zM300 564h-59l100 144h91z" />
    <glyph glyph-name="ucircumflex" unicode="&#xfb;" horiz-adv-x="581" 
d="M430 0c-1.33301 12.667 -2.33301 26.667 -3 42s-1 28 -1 38h-2c-13.333 -27.333 -35 -49.5 -65 -66.5s-61.667 -25.5 -95 -25.5c-59.333 0 -103.833 17.667 -133.5 53s-44.5 82 -44.5 140v287h68v-259c0 -24.667 2 -47 6 -67s10.833 -37.167 20.5 -51.5
s22.667 -25.5 39 -33.5s36.833 -12 61.5 -12c18 0 35.5 3.66699 52.5 11s32.167 18.5 45.5 33.5s24 34 32 57s12 50.167 12 81.5v240h68v-365c0 -12.667 0.333008 -29 1 -49s1.66699 -38 3 -54h-65zM438 564h-66l-83 108l-83 -108h-66l109 144h80z" />
    <glyph glyph-name="udieresis" unicode="&#xfc;" horiz-adv-x="581" 
d="M430 0c-1.33301 12.667 -2.33301 26.667 -3 42s-1 28 -1 38h-2c-13.333 -27.333 -35 -49.5 -65 -66.5s-61.667 -25.5 -95 -25.5c-59.333 0 -103.833 17.667 -133.5 53s-44.5 82 -44.5 140v287h68v-259c0 -24.667 2 -47 6 -67s10.833 -37.167 20.5 -51.5
s22.667 -25.5 39 -33.5s36.833 -12 61.5 -12c18 0 35.5 3.66699 52.5 11s32.167 18.5 45.5 33.5s24 34 32 57s12 50.167 12 81.5v240h68v-365c0 -12.667 0.333008 -29 1 -49s1.66699 -38 3 -54h-65zM142 647c0 13.333 4.66699 25.166 14 35.499s21.666 15.5 36.999 15.5
s27.666 -5.16699 36.999 -15.5s14 -22.166 14 -35.499s-4.66699 -25.166 -14 -35.499s-21.666 -15.5 -36.999 -15.5s-27.666 5.16699 -36.999 15.5s-14 22.166 -14 35.499zM334 647c0 13.333 4.66699 25.166 14 35.499s21.666 15.5 36.999 15.5
s27.666 -5.16699 36.999 -15.5s14 -22.166 14 -35.499s-4.66699 -25.166 -14 -35.499s-21.666 -15.5 -36.999 -15.5s-27.666 5.16699 -36.999 15.5s-14 22.166 -14 35.499z" />
    <glyph glyph-name="yacute" unicode="&#xfd;" horiz-adv-x="488" 
d="M251 73h2.00195l145 395h74l-233 -589c-14 -36 -31.833 -64.833 -53.5 -86.5s-52.834 -32.5 -93.501 -32.5c-20.667 0 -41 2 -61 6l7 62c16 -5.33301 32.667 -8 50 -8c23.333 0 41.666 7.16699 54.999 21.5s25 34.833 35 61.5l38 98l-200 467h76zM267.002 564h-59
l100 144h91z" />
    <glyph glyph-name="thorn" unicode="&#xfe;" horiz-adv-x="633" 
d="M334 -12c-34.667 0 -67.5 7.49902 -98.5 22.499s-56.167 37.833 -75.5 68.5h-2v-319h-66v996h66v-369h2c20 30.667 45.5 53.834 76.5 69.501s63.5 23.5 97.5 23.5c34.667 0 66.834 -6.16699 96.501 -18.5s55.334 -29.5 77.001 -51.5s38.667 -48 51 -78
s18.5 -62.667 18.5 -98s-6.16699 -68 -18.5 -98s-29.333 -56 -51 -78s-47.334 -39.167 -77.001 -51.5s-61.834 -18.5 -96.501 -18.5zM505 233.999c0 26 -4.16699 50.333 -12.5 73s-20.166 42.334 -35.499 59.001s-33.833 29.834 -55.5 39.501s-46.167 14.5 -73.5 14.5
s-51.833 -4.83301 -73.5 -14.5s-40 -22.834 -55 -39.501s-26.667 -36.334 -35 -59.001s-12.5 -47 -12.5 -73s4.16699 -50.333 12.5 -73s20 -42.334 35 -59.001s33.333 -29.834 55 -39.501s46.167 -14.5 73.5 -14.5s51.833 4.83301 73.5 14.5s40.167 22.834 55.5 39.501
s27.166 36.334 35.499 59.001s12.5 47 12.5 73z" />
    <glyph glyph-name="ydieresis" unicode="&#xff;" horiz-adv-x="488" 
d="M251 73h2.00195l145 395h74l-233 -589c-14 -36 -31.833 -64.833 -53.5 -86.5s-52.834 -32.5 -93.501 -32.5c-20.667 0 -41 2 -61 6l7 62c16 -5.33301 32.667 -8 50 -8c23.333 0 41.666 7.16699 54.999 21.5s25 34.833 35 61.5l38 98l-200 467h76zM105.002 647
c0 13.333 4.66699 25.166 14 35.499s21.666 15.5 36.999 15.5s27.666 -5.16699 36.999 -15.5s14 -22.166 14 -35.499s-4.66699 -25.166 -14 -35.499s-21.666 -15.5 -36.999 -15.5s-27.666 5.16699 -36.999 15.5s-14 22.166 -14 35.499zM297.002 647
c0 13.333 4.66699 25.166 14 35.499s21.666 15.5 36.999 15.5s27.666 -5.16699 36.999 -15.5s14 -22.166 14 -35.499s-4.66699 -25.166 -14 -35.499s-21.666 -15.5 -36.999 -15.5s-27.666 5.16699 -36.999 15.5s-14 22.166 -14 35.499z" />
    <glyph glyph-name="Amacron" unicode="&#x100;" horiz-adv-x="700" 
d="M89 0h-79l306 708h70l304 -708h-80l-78 186h-366zM193 252h312l-156 376zM486 800h-270v54h270v-54z" />
    <glyph glyph-name="amacron" unicode="&#x101;" horiz-adv-x="534" 
d="M385 302c0 40.667 -10.6689 71 -32.002 91s-52.333 30 -93 30c-28 0 -54 -5 -78 -15s-44.333 -23.333 -61 -40l-38 45c19.333 19.333 44.833 35.333 76.5 48s67.5 19 107.5 19c25.333 0 49 -3.5 71 -10.5s41.333 -17.5 58 -31.5s29.667 -31.667 39 -53s14 -46.333 14 -75
v-205c0 -18 0.666992 -36.667 2 -56s3.33301 -35.666 6 -48.999h-61c-2 11.333 -3.66699 23.666 -5 36.999s-2 26.333 -2 39h-2c-21.333 -31.333 -45.5 -53.833 -72.5 -67.5s-59.5 -20.5 -97.5 -20.5c-18 0 -36.5 2.5 -55.5 7.5s-36.333 13.167 -52 24.5s-28.667 26 -39 44
s-15.5 40 -15.5 66c0 36 9.16699 64.5 27.5 85.5s42.833 36.667 73.5 47s65.834 17 105.501 20s80.834 4.5 123.501 4.5v15zM364.998 234c-28 0 -56.1689 -1.16699 -84.502 -3.5s-54 -7 -77 -14s-41.833 -17.167 -56.5 -30.5s-22 -31 -22 -53
c0 -16.667 3.16699 -30.667 9.5 -42s14.833 -20.5 25.5 -27.5s22.5 -12 35.5 -15s26.167 -4.5 39.5 -4.5c24 0 45.333 4.16699 64 12.5s34.334 19.666 47.001 33.999s22.334 30.833 29.001 49.5s10 38.334 10 59.001v35h-20zM404.996 600h-270v54h270v-54z" />
    <glyph glyph-name="Abreve" unicode="&#x102;" horiz-adv-x="700" 
d="M89 0h-79l306 708h70l304 -708h-80l-78 186h-366zM193 252h312l-156 376zM498 908c-2.66699 -42 -17.498 -74.5 -44.498 -97.5s-61.167 -34.5 -102.5 -34.5s-75.5 11.5 -102.5 34.5s-41.833 55.5 -44.5 97.5h44c4.66699 -26 16.667 -45.5 36 -58.5
s41.666 -19.5 66.999 -19.5s47.666 6.5 66.999 19.5s31.333 32.5 36 58.5h44z" />
    <glyph glyph-name="abreve" unicode="&#x103;" horiz-adv-x="534" 
d="M385 302c0 40.667 -10.6689 71 -32.002 91s-52.333 30 -93 30c-28 0 -54 -5 -78 -15s-44.333 -23.333 -61 -40l-38 45c19.333 19.333 44.833 35.333 76.5 48s67.5 19 107.5 19c25.333 0 49 -3.5 71 -10.5s41.333 -17.5 58 -31.5s29.667 -31.667 39 -53s14 -46.333 14 -75
v-205c0 -18 0.666992 -36.667 2 -56s3.33301 -35.666 6 -48.999h-61c-2 11.333 -3.66699 23.666 -5 36.999s-2 26.333 -2 39h-2c-21.333 -31.333 -45.5 -53.833 -72.5 -67.5s-59.5 -20.5 -97.5 -20.5c-18 0 -36.5 2.5 -55.5 7.5s-36.333 13.167 -52 24.5s-28.667 26 -39 44
s-15.5 40 -15.5 66c0 36 9.16699 64.5 27.5 85.5s42.833 36.667 73.5 47s65.834 17 105.501 20s80.834 4.5 123.501 4.5v15zM364.998 234c-28 0 -56.1689 -1.16699 -84.502 -3.5s-54 -7 -77 -14s-41.833 -17.167 -56.5 -30.5s-22 -31 -22 -53
c0 -16.667 3.16699 -30.667 9.5 -42s14.833 -20.5 25.5 -27.5s22.5 -12 35.5 -15s26.167 -4.5 39.5 -4.5c24 0 45.333 4.16699 64 12.5s34.334 19.666 47.001 33.999s22.334 30.833 29.001 49.5s10 38.334 10 59.001v35h-20zM419.996 708
c-2.66699 -42 -17.498 -74.5 -44.498 -97.5s-61.167 -34.5 -102.5 -34.5s-75.5 11.5 -102.5 34.5s-41.833 55.5 -44.5 97.5h44c4.66699 -26 16.667 -45.5 36 -58.5s41.666 -19.5 66.999 -19.5s47.666 6.5 66.999 19.5s31.333 32.5 36 58.5h44z" />
    <glyph glyph-name="Aogonek" unicode="&#x104;" horiz-adv-x="700" 
d="M701 -187c-11.333 -11.333 -25.001 -20.168 -41.001 -26.501s-32.333 -9.5 -49 -9.5c-12 0 -23.333 2 -34 6s-20.167 9.83301 -28.5 17.5s-15 16.667 -20 27s-7.5 21.833 -7.5 34.5c0 14 2.66699 27.5 8 40.5s12.333 25.333 21 37s18.334 22.667 29.001 33
s21 19.5 31 27.5l-78 186h-366l-77 -186h-79l306 708h70l304 -708h-32c-24.667 -24.667 -43.667 -46.167 -57 -64.5s-20 -37.166 -20 -56.499c0 -14 5 -25.5 15 -34.5s21.667 -13.5 35 -13.5c9.33301 0 18.5 1.83301 27.5 5.5s16.833 9.16699 23.5 16.5zM192.999 251.998
h312l-156 376z" />
    <glyph glyph-name="aogonek" unicode="&#x105;" horiz-adv-x="534" 
d="M489 -187c-11.333 -11.333 -25.0029 -20.168 -41.0029 -26.501s-32.333 -9.5 -49 -9.5c-12 0 -23.333 2 -34 6s-20.167 9.83301 -28.5 17.5s-15 16.667 -20 27s-7.5 21.833 -7.5 34.5c0 14 2.66699 27.5 8 40.5s12.333 25.333 21 37s18.334 22.667 29.001 33
s21 19.5 31 27.5h-2c-2 11.333 -3.66699 23.666 -5 36.999s-2 26.333 -2 39h-2c-21.333 -31.333 -45.5 -53.833 -72.5 -67.5s-59.5 -20.5 -97.5 -20.5c-18 0 -36.5 2.5 -55.5 7.5s-36.333 13.167 -52 24.5s-28.667 26 -39 44s-15.5 40 -15.5 66c0 36 9.16699 64.5 27.5 85.5
s42.833 36.667 73.5 47s65.834 17 105.501 20s80.834 4.5 123.501 4.5v15c0 40.667 -10.667 71 -32 91s-52.333 30 -93 30c-28 0 -54 -5 -78 -15s-44.333 -23.333 -61 -40l-38 45c19.333 19.333 44.833 35.333 76.5 48s67.5 19 107.5 19c25.333 0 49 -3.5 71 -10.5
s41.333 -17.5 58 -31.5s29.667 -31.667 39 -53s14 -46.333 14 -75v-205c0 -18 0.666992 -36.667 2 -56s3.33301 -35.666 6 -48.999h-11c-24.667 -24.667 -43.667 -46.167 -57 -64.5s-20 -37.166 -20 -56.499c0 -14 5 -25.5 15 -34.5s21.667 -13.5 35 -13.5
c9.33301 0 18.5 1.83301 27.5 5.5s16.833 9.16699 23.5 16.5zM364.997 233.998c-28 0 -56.1689 -1.16699 -84.502 -3.5s-54 -7 -77 -14s-41.833 -17.167 -56.5 -30.5s-22 -31 -22 -53c0 -16.667 3.16699 -30.667 9.5 -42s14.833 -20.5 25.5 -27.5s22.5 -12 35.5 -15
s26.167 -4.5 39.5 -4.5c24 0 45.333 4.16699 64 12.5s34.334 19.666 47.001 33.999s22.334 30.833 29.001 49.5s10 38.334 10 59.001v35h-20z" />
    <glyph glyph-name="Cacute" unicode="&#x106;" horiz-adv-x="720" 
d="M690 114c-12 -18 -26.502 -35.0029 -43.502 -51.0029s-36.667 -30 -59 -42s-47 -21.5 -74 -28.5s-56.5 -10.5 -88.5 -10.5c-53.333 0 -102.666 9.33301 -147.999 28s-84.333 44.5 -117 77.5s-58.167 72.167 -76.5 117.5s-27.5 95 -27.5 149s9.33301 103.667 28 149
s44.5 84.5 77.5 117.5s72 58.833 117 77.5s93.833 28 146.5 28c26 0 51.5 -2.66699 76.5 -8s48.5 -12.833 70.5 -22.5s42 -21.334 60 -35.001s33 -29.167 45 -46.5l-60 -44c-7.33301 11.333 -17.166 22.666 -29.499 33.999s-26.833 21.333 -43.5 30
s-34.834 15.667 -54.501 21s-40.834 8 -63.501 8c-46 0 -87.167 -8.33301 -123.5 -25s-67.166 -39.167 -92.499 -67.5s-44.666 -61.166 -57.999 -98.499s-20 -76.666 -20 -117.999s6.83301 -80.666 20.5 -117.999s33.167 -70.166 58.5 -98.499s56.166 -50.833 92.499 -67.5
s77.166 -25 122.499 -25c40.667 0 79.334 8.33301 116.001 25s67.334 43.334 92.001 80.001zM427.998 763.997h-59l100 144h91z" />
    <glyph glyph-name="cacute" unicode="&#x107;" horiz-adv-x="500" 
d="M427 361c-11.333 18 -27.8311 32.8359 -49.498 44.5029s-45.167 17.5 -70.5 17.5c-27.333 0 -52 -4.83301 -74 -14.5s-40.833 -23 -56.5 -40s-27.667 -37 -36 -60s-12.5 -47.833 -12.5 -74.5s4.16699 -51.334 12.5 -74.001s20.166 -42.5 35.499 -59.5s34 -30.333 56 -40
s46.667 -14.5 74 -14.5c30 0 55.333 5.66699 76 17s37.667 26 51 44l51 -38c-20 -24.667 -44.5 -44.334 -73.5 -59.001s-63.833 -22 -104.5 -22c-38 0 -72.333 6.16699 -103 18.5s-56.834 29.5 -78.501 51.5s-38.5 48 -50.5 78s-18 62.667 -18 98s6 68 18 98
s28.833 56 50.5 78s47.834 39.167 78.501 51.5s65 18.5 103 18.5c31.333 0 63.166 -6.83301 95.499 -20.5s58.5 -33.834 78.5 -60.501zM309.002 564.003h-59l100 144h91z" />
    <glyph glyph-name="Ccircumflex" unicode="&#x108;" horiz-adv-x="720" 
d="M690 114c-12 -18 -26.502 -35.0029 -43.502 -51.0029s-36.667 -30 -59 -42s-47 -21.5 -74 -28.5s-56.5 -10.5 -88.5 -10.5c-53.333 0 -102.666 9.33301 -147.999 28s-84.333 44.5 -117 77.5s-58.167 72.167 -76.5 117.5s-27.5 95 -27.5 149s9.33301 103.667 28 149
s44.5 84.5 77.5 117.5s72 58.833 117 77.5s93.833 28 146.5 28c26 0 51.5 -2.66699 76.5 -8s48.5 -12.833 70.5 -22.5s42 -21.334 60 -35.001s33 -29.167 45 -46.5l-60 -44c-7.33301 11.333 -17.166 22.666 -29.499 33.999s-26.833 21.333 -43.5 30
s-34.834 15.667 -54.501 21s-40.834 8 -63.501 8c-46 0 -87.167 -8.33301 -123.5 -25s-67.166 -39.167 -92.499 -67.5s-44.666 -61.166 -57.999 -98.499s-20 -76.666 -20 -117.999s6.83301 -80.666 20.5 -117.999s33.167 -70.166 58.5 -98.499s56.166 -50.833 92.499 -67.5
s77.166 -25 122.499 -25c40.667 0 79.334 8.33301 116.001 25s67.334 43.334 92.001 80.001zM572.998 763.997h-66l-83 108l-83 -108h-66l109 144h80z" />
    <glyph glyph-name="ccircumflex" unicode="&#x109;" horiz-adv-x="500" 
d="M427 361c-11.333 18 -27.8311 32.8359 -49.498 44.5029s-45.167 17.5 -70.5 17.5c-27.333 0 -52 -4.83301 -74 -14.5s-40.833 -23 -56.5 -40s-27.667 -37 -36 -60s-12.5 -47.833 -12.5 -74.5s4.16699 -51.334 12.5 -74.001s20.166 -42.5 35.499 -59.5s34 -30.333 56 -40
s46.667 -14.5 74 -14.5c30 0 55.333 5.66699 76 17s37.667 26 51 44l51 -38c-20 -24.667 -44.5 -44.334 -73.5 -59.001s-63.833 -22 -104.5 -22c-38 0 -72.333 6.16699 -103 18.5s-56.834 29.5 -78.501 51.5s-38.5 48 -50.5 78s-18 62.667 -18 98s6 68 18 98
s28.833 56 50.5 78s47.834 39.167 78.501 51.5s65 18.5 103 18.5c31.333 0 63.166 -6.83301 95.499 -20.5s58.5 -33.834 78.5 -60.501zM452.002 564.003h-66l-83 108l-83 -108h-66l109 144h80z" />
    <glyph glyph-name="Cdotaccent" unicode="&#x10a;" horiz-adv-x="720" 
d="M690 114c-12 -18 -26.502 -35.0029 -43.502 -51.0029s-36.667 -30 -59 -42s-47 -21.5 -74 -28.5s-56.5 -10.5 -88.5 -10.5c-53.333 0 -102.666 9.33301 -147.999 28s-84.333 44.5 -117 77.5s-58.167 72.167 -76.5 117.5s-27.5 95 -27.5 149s9.33301 103.667 28 149
s44.5 84.5 77.5 117.5s72 58.833 117 77.5s93.833 28 146.5 28c26 0 51.5 -2.66699 76.5 -8s48.5 -12.833 70.5 -22.5s42 -21.334 60 -35.001s33 -29.167 45 -46.5l-60 -44c-7.33301 11.333 -17.166 22.666 -29.499 33.999s-26.833 21.333 -43.5 30
s-34.834 15.667 -54.501 21s-40.834 8 -63.501 8c-46 0 -87.167 -8.33301 -123.5 -25s-67.166 -39.167 -92.499 -67.5s-44.666 -61.166 -57.999 -98.499s-20 -76.666 -20 -117.999s6.83301 -80.666 20.5 -117.999s33.167 -70.166 58.5 -98.499s56.166 -50.833 92.499 -67.5
s77.166 -25 122.499 -25c40.667 0 79.334 8.33301 116.001 25s67.334 43.334 92.001 80.001zM462.998 847.997c0 -14 -5 -25.5 -15 -34.5s-21 -13.5 -33 -13.5s-23 4.5 -33 13.5s-15 20.5 -15 34.5s5 25.5 15 34.5s21 13.5 33 13.5s23 -4.5 33 -13.5s15 -20.5 15 -34.5z" />
    <glyph glyph-name="cdotaccent" unicode="&#x10b;" horiz-adv-x="500" 
d="M427 361c-11.333 18 -27.8311 32.8359 -49.498 44.5029s-45.167 17.5 -70.5 17.5c-27.333 0 -52 -4.83301 -74 -14.5s-40.833 -23 -56.5 -40s-27.667 -37 -36 -60s-12.5 -47.833 -12.5 -74.5s4.16699 -51.334 12.5 -74.001s20.166 -42.5 35.499 -59.5s34 -30.333 56 -40
s46.667 -14.5 74 -14.5c30 0 55.333 5.66699 76 17s37.667 26 51 44l51 -38c-20 -24.667 -44.5 -44.334 -73.5 -59.001s-63.833 -22 -104.5 -22c-38 0 -72.333 6.16699 -103 18.5s-56.834 29.5 -78.501 51.5s-38.5 48 -50.5 78s-18 62.667 -18 98s6 68 18 98
s28.833 56 50.5 78s47.834 39.167 78.501 51.5s65 18.5 103 18.5c31.333 0 63.166 -6.83301 95.499 -20.5s58.5 -33.834 78.5 -60.501zM343.002 648.003c0 -14 -5 -25.5 -15 -34.5s-21 -13.5 -33 -13.5s-23 4.5 -33 13.5s-15 20.5 -15 34.5s5 25.5 15 34.5s21 13.5 33 13.5
s23 -4.5 33 -13.5s15 -20.5 15 -34.5z" />
    <glyph glyph-name="Ccaron" unicode="&#x10c;" horiz-adv-x="720" 
d="M690 114c-12 -18 -26.502 -35.0029 -43.502 -51.0029s-36.667 -30 -59 -42s-47 -21.5 -74 -28.5s-56.5 -10.5 -88.5 -10.5c-53.333 0 -102.666 9.33301 -147.999 28s-84.333 44.5 -117 77.5s-58.167 72.167 -76.5 117.5s-27.5 95 -27.5 149s9.33301 103.667 28 149
s44.5 84.5 77.5 117.5s72 58.833 117 77.5s93.833 28 146.5 28c26 0 51.5 -2.66699 76.5 -8s48.5 -12.833 70.5 -22.5s42 -21.334 60 -35.001s33 -29.167 45 -46.5l-60 -44c-7.33301 11.333 -17.166 22.666 -29.499 33.999s-26.833 21.333 -43.5 30
s-34.834 15.667 -54.501 21s-40.834 8 -63.501 8c-46 0 -87.167 -8.33301 -123.5 -25s-67.166 -39.167 -92.499 -67.5s-44.666 -61.166 -57.999 -98.499s-20 -76.666 -20 -117.999s6.83301 -80.666 20.5 -117.999s33.167 -70.166 58.5 -98.499s56.166 -50.833 92.499 -67.5
s77.166 -25 122.499 -25c40.667 0 79.334 8.33301 116.001 25s67.334 43.334 92.001 80.001zM462.998 763.997h-80l-109 144h66l83 -108l83 108h66z" />
    <glyph glyph-name="ccaron" unicode="&#x10d;" horiz-adv-x="500" 
d="M427 361c-11.333 18 -27.8311 32.8359 -49.498 44.5029s-45.167 17.5 -70.5 17.5c-27.333 0 -52 -4.83301 -74 -14.5s-40.833 -23 -56.5 -40s-27.667 -37 -36 -60s-12.5 -47.833 -12.5 -74.5s4.16699 -51.334 12.5 -74.001s20.166 -42.5 35.499 -59.5s34 -30.333 56 -40
s46.667 -14.5 74 -14.5c30 0 55.333 5.66699 76 17s37.667 26 51 44l51 -38c-20 -24.667 -44.5 -44.334 -73.5 -59.001s-63.833 -22 -104.5 -22c-38 0 -72.333 6.16699 -103 18.5s-56.834 29.5 -78.501 51.5s-38.5 48 -50.5 78s-18 62.667 -18 98s6 68 18 98
s28.833 56 50.5 78s47.834 39.167 78.501 51.5s65 18.5 103 18.5c31.333 0 63.166 -6.83301 95.499 -20.5s58.5 -33.834 78.5 -60.501zM344.002 564.003h-80l-109 144h66l83 -108l83 108h66z" />
    <glyph glyph-name="Dcaron" unicode="&#x10e;" horiz-adv-x="757" 
d="M94 708l235 0.00195312c44 0 88.167 -7.33301 132.5 -22s84.333 -36.834 120 -66.501s64.5 -66.667 86.5 -111s33 -95.833 33 -154.5c0 -59.333 -11 -111 -33 -155s-50.833 -80.833 -86.5 -110.5s-75.667 -51.834 -120 -66.501s-88.5 -22 -132.5 -22h-235v708z
M166 64.002l143 -0.00195312c53.333 0 99.833 8.33301 139.5 25s72.5 38.5 98.5 65.5s45.5 57.833 58.5 92.5s19.5 70.334 19.5 107.001s-6.5 72.334 -19.5 107.001s-32.5 65.5 -58.5 92.5s-58.833 48.833 -98.5 65.5s-86.167 25 -139.5 25h-143v-580zM387 764h-80l-109 144
h66l83 -108l83 108h66z" />
    <glyph glyph-name="dcaron" unicode="&#x10f;" horiz-adv-x="637" 
d="M475 79c-20 -30 -46 -52.666 -78 -67.999s-65 -23 -99 -23c-36.667 0 -69.834 6.33301 -99.501 19s-55 30 -76 52s-37.333 48 -49 78s-17.5 62.333 -17.5 97s5.83301 67 17.5 97s28 56 49 78s46.333 39.333 76 52s62.834 19 99.501 19c34 0 67 -7.83301 99 -23.5
s58 -38.834 78 -69.501h2v369h68v-756h-68v79h-2zM128 234.001c0 -26 4 -50.501 12 -73.501s19.5 -43 34.5 -60s33.5 -30.333 55.5 -40s47 -14.5 75 -14.5c26 0 50 4.83301 72 14.5s41 22.834 57 39.501s28.5 36.5 37.5 59.5s13.5 47.833 13.5 74.5s-4.5 51.5 -13.5 74.5
s-21.5 43 -37.5 60s-35 30.333 -57 40s-46 14.5 -72 14.5c-28 0 -53 -5 -75 -15s-40.5 -23.5 -55.5 -40.5s-26.5 -37 -34.5 -60s-12 -47.5 -12 -73.5zM658 523h-57l62 185h71z" />
    <glyph glyph-name="Dcroat" unicode="&#x110;" horiz-adv-x="757" 
d="M86 347l-73 0.00195312v54h73v307h235c44 0 88.167 -7.33301 132.5 -22s84.333 -36.834 120 -66.501s64.5 -66.667 86.5 -111s33 -95.833 33 -154.5c0 -59.333 -11 -111 -33 -155s-50.833 -80.833 -86.5 -110.5s-75.667 -51.834 -120 -66.501s-88.5 -22 -132.5 -22h-235
v347zM158 66.002h140c54 0 100.833 8.16699 140.5 24.5s72.667 38 99 65s45.833 57.667 58.5 92s19 69.833 19 106.5s-6.33301 72.167 -19 106.5s-32.167 65 -58.5 92s-59.333 48.667 -99 65s-86.5 24.5 -140.5 24.5h-140v-241h258v-54h-258v-281z" />
    <glyph glyph-name="dcroat" unicode="&#x111;" horiz-adv-x="637" 
d="M477 620v136.001h68v-136h56v-50h-56v-570h-68v79h-2c-20 -30 -46 -52.667 -78 -68s-65 -23 -99 -23c-36.667 0 -69.834 6.33301 -99.501 19s-55 30 -76 52s-37.333 48 -49 78s-17.5 62.333 -17.5 97s5.83301 67 17.5 97s28 56 49 78s46.333 39.333 76 52
s62.834 19 99.501 19c34 0 67 -7.83301 99 -23.5s58 -38.834 78 -69.501h2v183h-156v50h156zM128 234.001c0 -26 4 -50.501 12 -73.501s19.5 -43 34.5 -60s33.5 -30.333 55.5 -40s47 -14.5 75 -14.5c26 0 50 4.83301 72 14.5s41 22.834 57 39.501s28.5 36.5 37.5 59.5
s13.5 47.833 13.5 74.5s-4.5 51.5 -13.5 74.5s-21.5 43 -37.5 60s-35 30.333 -57 40s-46 14.5 -72 14.5c-28 0 -53 -5 -75 -15s-40.5 -23.5 -55.5 -40.5s-26.5 -37 -34.5 -60s-12 -47.5 -12 -73.5z" />
    <glyph glyph-name="Emacron" unicode="&#x112;" horiz-adv-x="592" 
d="M166 64h379v-64h-451v708h439v-64h-367v-244h343v-63h-343v-273zM452 800h-270v54h270v-54z" />
    <glyph glyph-name="emacron" unicode="&#x113;" horiz-adv-x="572" 
d="M447 270c-2 44 -16.166 80.498 -42.499 109.498s-63.833 43.5 -112.5 43.5c-22.667 0 -43.667 -4.16699 -63 -12.5s-36.333 -19.666 -51 -33.999s-26.334 -30.666 -35.001 -48.999s-13.667 -37.5 -15 -57.5h319zM516.001 247.998l-0.000976562 -15
c0 -5.33301 -0.333008 -11 -1 -17h-388c0.666992 -23.333 5.33398 -45.333 14.001 -66s20.667 -38.667 36 -54s33.333 -27.5 54 -36.5s43 -13.5 67 -13.5c35.333 0 65.833 8.16699 91.5 24.5s45.167 35.166 58.5 56.499l51 -40c-28 -35.333 -58.833 -60.666 -92.5 -75.999
s-69.834 -23 -108.501 -23c-34.667 0 -66.834 6.16699 -96.501 18.5s-55.167 29.5 -76.5 51.5s-38.166 48 -50.499 78s-18.5 62.667 -18.5 98s6 68 18 98s28.667 56 50 78s46.333 39.167 75 51.5s59.667 18.5 93 18.5c36.667 0 69 -6.16699 97 -18.5s51.333 -29 70 -50
s32.834 -45.5 42.501 -73.5s14.5 -58 14.5 -90zM431 599.998h-270v54h270v-54z" />
    <glyph glyph-name="Ebreve" unicode="&#x114;" horiz-adv-x="592" 
d="M166 64h379v-64h-451v708h439v-64h-367v-244h343v-63h-343v-273zM463 908c-2.66699 -42 -17.498 -74.5 -44.498 -97.5s-61.167 -34.5 -102.5 -34.5s-75.5 11.5 -102.5 34.5s-41.833 55.5 -44.5 97.5h44c4.66699 -26 16.667 -45.5 36 -58.5s41.666 -19.5 66.999 -19.5
s47.666 6.5 66.999 19.5s31.333 32.5 36 58.5h44z" />
    <glyph glyph-name="ebreve" unicode="&#x115;" horiz-adv-x="572" 
d="M447 270c-2 44 -16.166 80.498 -42.499 109.498s-63.833 43.5 -112.5 43.5c-22.667 0 -43.667 -4.16699 -63 -12.5s-36.333 -19.666 -51 -33.999s-26.334 -30.666 -35.001 -48.999s-13.667 -37.5 -15 -57.5h319zM516.001 247.998l-0.000976562 -15
c0 -5.33301 -0.333008 -11 -1 -17h-388c0.666992 -23.333 5.33398 -45.333 14.001 -66s20.667 -38.667 36 -54s33.333 -27.5 54 -36.5s43 -13.5 67 -13.5c35.333 0 65.833 8.16699 91.5 24.5s45.167 35.166 58.5 56.499l51 -40c-28 -35.333 -58.833 -60.666 -92.5 -75.999
s-69.834 -23 -108.501 -23c-34.667 0 -66.834 6.16699 -96.501 18.5s-55.167 29.5 -76.5 51.5s-38.166 48 -50.499 78s-18.5 62.667 -18.5 98s6 68 18 98s28.667 56 50 78s46.333 39.167 75 51.5s59.667 18.5 93 18.5c36.667 0 69 -6.16699 97 -18.5s51.333 -29 70 -50
s32.834 -45.5 42.501 -73.5s14.5 -58 14.5 -90zM441 707.998c-2.66699 -42 -17.498 -74.5 -44.498 -97.5s-61.167 -34.5 -102.5 -34.5s-75.5 11.5 -102.5 34.5s-41.833 55.5 -44.5 97.5h44c4.66699 -26 16.667 -45.5 36 -58.5s41.666 -19.5 66.999 -19.5
s47.666 6.5 66.999 19.5s31.333 32.5 36 58.5h44z" />
    <glyph glyph-name="Edotaccent" unicode="&#x116;" horiz-adv-x="592" 
d="M166 64h379v-64h-451v708h439v-64h-367v-244h343v-63h-343v-273zM369 848c0 -14 -5 -25.5 -15 -34.5s-21 -13.5 -33 -13.5s-23 4.5 -33 13.5s-15 20.5 -15 34.5s5 25.5 15 34.5s21 13.5 33 13.5s23 -4.5 33 -13.5s15 -20.5 15 -34.5z" />
    <glyph glyph-name="edotaccent" unicode="&#x117;" horiz-adv-x="572" 
d="M447 270c-2 44 -16.166 80.498 -42.499 109.498s-63.833 43.5 -112.5 43.5c-22.667 0 -43.667 -4.16699 -63 -12.5s-36.333 -19.666 -51 -33.999s-26.334 -30.666 -35.001 -48.999s-13.667 -37.5 -15 -57.5h319zM516.001 247.998l-0.000976562 -15
c0 -5.33301 -0.333008 -11 -1 -17h-388c0.666992 -23.333 5.33398 -45.333 14.001 -66s20.667 -38.667 36 -54s33.333 -27.5 54 -36.5s43 -13.5 67 -13.5c35.333 0 65.833 8.16699 91.5 24.5s45.167 35.166 58.5 56.499l51 -40c-28 -35.333 -58.833 -60.666 -92.5 -75.999
s-69.834 -23 -108.501 -23c-34.667 0 -66.834 6.16699 -96.501 18.5s-55.167 29.5 -76.5 51.5s-38.166 48 -50.499 78s-18.5 62.667 -18.5 98s6 68 18 98s28.667 56 50 78s46.333 39.167 75 51.5s59.667 18.5 93 18.5c36.667 0 69 -6.16699 97 -18.5s51.333 -29 70 -50
s32.834 -45.5 42.501 -73.5s14.5 -58 14.5 -90zM342 647.998c0 -14 -5 -25.5 -15 -34.5s-21 -13.5 -33 -13.5s-23 4.5 -33 13.5s-15 20.5 -15 34.5s5 25.5 15 34.5s21 13.5 33 13.5s23 -4.5 33 -13.5s15 -20.5 15 -34.5z" />
    <glyph glyph-name="Eogonek" unicode="&#x118;" horiz-adv-x="592" 
d="M572 -187c-11.333 -11.333 -25.001 -20.168 -41.001 -26.501s-32.333 -9.5 -49 -9.5c-12 0 -23.333 2 -34 6s-20.167 9.83301 -28.5 17.5s-15 16.667 -20 27s-7.5 21.833 -7.5 34.5c0 14 2.66699 27.5 8 40.5s12.333 25.333 21 37s18.334 22.667 29.001 33
s21 19.5 31 27.5h-387v708h439v-64h-367v-244h343v-63h-343v-273h379v-64h-16c-24.667 -24.667 -43.667 -46.167 -57 -64.5s-20 -37.166 -20 -56.499c0 -14 5 -25.5 15 -34.5s21.667 -13.5 35 -13.5c9.33301 0 18.5 1.83301 27.5 5.5s16.833 9.16699 23.5 16.5z" />
    <glyph glyph-name="eogonek" unicode="&#x119;" horiz-adv-x="572" 
d="M399 -187c-11.333 -11.333 -25.0029 -20.165 -41.0029 -26.498s-32.333 -9.5 -49 -9.5c-12 0 -23.333 2 -34 6s-20.167 9.83301 -28.5 17.5s-15 16.667 -20 27s-7.5 21.833 -7.5 34.5c0 25.333 7.66699 48.666 23 69.999s32.333 40 51 56
c-34 0.666992 -65.5 7.16699 -94.5 19.5s-54 29.5 -75 51.5s-37.5 47.833 -49.5 77.5s-18 62.167 -18 97.5s6 68 18 98s28.667 56 50 78s46.333 39.167 75 51.5s59.667 18.5 93 18.5c36.667 0 69 -6.16699 97 -18.5s51.333 -29 70 -50s32.834 -45.5 42.501 -73.5
s14.5 -58 14.5 -90v-15c0 -5.33301 -0.333008 -11 -1 -17h-388c0.666992 -23.333 5.33398 -45.333 14.001 -66s20.667 -38.667 36 -54s33.333 -27.5 54 -36.5s43 -13.5 67 -13.5c35.333 0 65.833 8.16699 91.5 24.5s45.167 35.166 58.5 56.499l51 -40
c-21.333 -28 -44.666 -49.333 -69.999 -64s-52.333 -24.667 -81 -30c-22 -22.667 -39 -42.667 -51 -60s-18 -35.333 -18 -54c0 -14 5 -25.5 15 -34.5s21.667 -13.5 35 -13.5c9.33301 0 18.5 1.83301 27.5 5.5s16.833 9.16699 23.5 16.5zM446.997 270.001
c-2 44 -16.166 80.498 -42.499 109.498s-63.833 43.5 -112.5 43.5c-22.667 0 -43.667 -4.16699 -63 -12.5s-36.333 -19.666 -51 -33.999s-26.334 -30.666 -35.001 -48.999s-13.667 -37.5 -15 -57.5h319z" />
    <glyph glyph-name="Ecaron" unicode="&#x11a;" horiz-adv-x="592" 
d="M166 64h379v-64h-451v708h439v-64h-367v-244h343v-63h-343v-273zM357 764h-80l-109 144h66l83 -108l83 108h66z" />
    <glyph glyph-name="ecaron" unicode="&#x11b;" horiz-adv-x="572" 
d="M447 270c-2 44 -16.166 80.498 -42.499 109.498s-63.833 43.5 -112.5 43.5c-22.667 0 -43.667 -4.16699 -63 -12.5s-36.333 -19.666 -51 -33.999s-26.334 -30.666 -35.001 -48.999s-13.667 -37.5 -15 -57.5h319zM516.001 247.998l-0.000976562 -15
c0 -5.33301 -0.333008 -11 -1 -17h-388c0.666992 -23.333 5.33398 -45.333 14.001 -66s20.667 -38.667 36 -54s33.333 -27.5 54 -36.5s43 -13.5 67 -13.5c35.333 0 65.833 8.16699 91.5 24.5s45.167 35.166 58.5 56.499l51 -40c-28 -35.333 -58.833 -60.666 -92.5 -75.999
s-69.834 -23 -108.501 -23c-34.667 0 -66.834 6.16699 -96.501 18.5s-55.167 29.5 -76.5 51.5s-38.166 48 -50.499 78s-18.5 62.667 -18.5 98s6 68 18 98s28.667 56 50 78s46.333 39.167 75 51.5s59.667 18.5 93 18.5c36.667 0 69 -6.16699 97 -18.5s51.333 -29 70 -50
s32.834 -45.5 42.501 -73.5s14.5 -58 14.5 -90zM334 563.998h-80l-109 144h66l83 -108l83 108h66z" />
    <glyph glyph-name="Gcircumflex" unicode="&#x11c;" horiz-adv-x="779" 
d="M631 581c-24.667 26 -54 46.1631 -88 60.4961s-73 21.5 -117 21.5c-45.333 0 -86.166 -8.33301 -122.499 -25s-67.166 -39.167 -92.499 -67.5s-44.833 -61.166 -58.5 -98.499s-20.5 -76.666 -20.5 -117.999s6.83301 -80.666 20.5 -117.999s33.167 -70 58.5 -98
s56.166 -50.333 92.499 -67s77.166 -25 122.499 -25c40 0 76.667 4.33301 110 13s60.333 19.667 81 33v215h-165v63h237v-319c-38.667 -23.333 -80.334 -40.666 -125.001 -51.999s-91 -17 -139 -17c-53.333 0 -102.666 9.33301 -147.999 28s-84.333 44.5 -117 77.5
s-58.167 72.167 -76.5 117.5s-27.5 95 -27.5 149s9.33301 103.667 28 149s44.5 84.5 77.5 117.5s72 58.833 117 77.5s93.833 28 146.5 28c56.667 0 106 -8.33301 148 -25s78 -40 108 -70zM579 763.996h-66l-83 108l-83 -108h-66l109 144h80z" />
    <glyph glyph-name="gcircumflex" unicode="&#x11d;" horiz-adv-x="632" 
d="M115 -94c18.667 -24 44.167 -44.332 76.5 -60.999s66.5 -25 102.5 -25c33.333 0 61.666 4.83301 84.999 14.5s42.166 22.834 56.499 39.501s24.833 36.167 31.5 58.5s10 46.166 10 71.499v88h-2c-18 -29.333 -43.5 -52 -76.5 -68s-66.5 -24 -100.5 -24
c-36.667 0 -69.834 6 -99.501 18s-55 28.5 -76 49.5s-37.333 46.167 -49 75.5s-17.5 61 -17.5 95c0 33.333 5.83301 64.666 17.5 93.999s28 55 49 77s46.333 39.333 76 52s62.834 19 99.501 19c34 0 67.333 -8 100 -24s58.334 -39 77.001 -69h2v81h68v-464
c0 -25.333 -3.5 -52.333 -10.5 -81s-20 -55 -39 -79s-44.833 -44 -77.5 -60s-75 -24 -127 -24c-43.333 0 -84.666 8.33301 -123.999 25s-73 39.667 -101 69zM128 240.001c0 -24.667 4 -47.998 12 -69.998s19.5 -41.333 34.5 -58s33.5 -29.834 55.5 -39.501
s47 -14.5 75 -14.5c26 0 50 4.33301 72 13s41 21 57 37s28.5 35.167 37.5 57.5s13.5 47.166 13.5 74.499c0 24.667 -4.5 48 -13.5 70s-21.5 41.333 -37.5 58s-35 30 -57 40s-46 15 -72 15c-28 0 -53 -5 -75 -15s-40.5 -23.333 -55.5 -40s-26.5 -36 -34.5 -58
s-12 -45.333 -12 -70zM457 564.003h-66l-83 108l-83 -108h-66l109 144h80z" />
    <glyph glyph-name="Gbreve" unicode="&#x11e;" horiz-adv-x="779" 
d="M631 581c-24.667 26 -54 46.1631 -88 60.4961s-73 21.5 -117 21.5c-45.333 0 -86.166 -8.33301 -122.499 -25s-67.166 -39.167 -92.499 -67.5s-44.833 -61.166 -58.5 -98.499s-20.5 -76.666 -20.5 -117.999s6.83301 -80.666 20.5 -117.999s33.167 -70 58.5 -98
s56.166 -50.333 92.499 -67s77.166 -25 122.499 -25c40 0 76.667 4.33301 110 13s60.333 19.667 81 33v215h-165v63h237v-319c-38.667 -23.333 -80.334 -40.666 -125.001 -51.999s-91 -17 -139 -17c-53.333 0 -102.666 9.33301 -147.999 28s-84.333 44.5 -117 77.5
s-58.167 72.167 -76.5 117.5s-27.5 95 -27.5 149s9.33301 103.667 28 149s44.5 84.5 77.5 117.5s72 58.833 117 77.5s93.833 28 146.5 28c56.667 0 106 -8.33301 148 -25s78 -40 108 -70zM573 907.996c-2.66699 -42 -17.498 -74.5 -44.498 -97.5s-61.167 -34.5 -102.5 -34.5
s-75.5 11.5 -102.5 34.5s-41.833 55.5 -44.5 97.5h44c4.66699 -26 16.667 -45.5 36 -58.5s41.666 -19.5 66.999 -19.5s47.666 6.5 66.999 19.5s31.333 32.5 36 58.5h44z" />
    <glyph glyph-name="gbreve" unicode="&#x11f;" horiz-adv-x="632" 
d="M115 -94c18.667 -24 44.167 -44.332 76.5 -60.999s66.5 -25 102.5 -25c33.333 0 61.666 4.83301 84.999 14.5s42.166 22.834 56.499 39.501s24.833 36.167 31.5 58.5s10 46.166 10 71.499v88h-2c-18 -29.333 -43.5 -52 -76.5 -68s-66.5 -24 -100.5 -24
c-36.667 0 -69.834 6 -99.501 18s-55 28.5 -76 49.5s-37.333 46.167 -49 75.5s-17.5 61 -17.5 95c0 33.333 5.83301 64.666 17.5 93.999s28 55 49 77s46.333 39.333 76 52s62.834 19 99.501 19c34 0 67.333 -8 100 -24s58.334 -39 77.001 -69h2v81h68v-464
c0 -25.333 -3.5 -52.333 -10.5 -81s-20 -55 -39 -79s-44.833 -44 -77.5 -60s-75 -24 -127 -24c-43.333 0 -84.666 8.33301 -123.999 25s-73 39.667 -101 69zM128 240.001c0 -24.667 4 -47.998 12 -69.998s19.5 -41.333 34.5 -58s33.5 -29.834 55.5 -39.501
s47 -14.5 75 -14.5c26 0 50 4.33301 72 13s41 21 57 37s28.5 35.167 37.5 57.5s13.5 47.166 13.5 74.499c0 24.667 -4.5 48 -13.5 70s-21.5 41.333 -37.5 58s-35 30 -57 40s-46 15 -72 15c-28 0 -53 -5 -75 -15s-40.5 -23.333 -55.5 -40s-26.5 -36 -34.5 -58
s-12 -45.333 -12 -70zM457 708.003c-2.66699 -42 -17.498 -74.5 -44.498 -97.5s-61.167 -34.5 -102.5 -34.5s-75.5 11.5 -102.5 34.5s-41.833 55.5 -44.5 97.5h44c4.66699 -26 16.667 -45.5 36 -58.5s41.666 -19.5 66.999 -19.5s47.666 6.5 66.999 19.5s31.333 32.5 36 58.5
h44z" />
    <glyph glyph-name="Gdotaccent" unicode="&#x120;" horiz-adv-x="779" 
d="M631 581c-24.667 26 -54 46.1631 -88 60.4961s-73 21.5 -117 21.5c-45.333 0 -86.166 -8.33301 -122.499 -25s-67.166 -39.167 -92.499 -67.5s-44.833 -61.166 -58.5 -98.499s-20.5 -76.666 -20.5 -117.999s6.83301 -80.666 20.5 -117.999s33.167 -70 58.5 -98
s56.166 -50.333 92.499 -67s77.166 -25 122.499 -25c40 0 76.667 4.33301 110 13s60.333 19.667 81 33v215h-165v63h237v-319c-38.667 -23.333 -80.334 -40.666 -125.001 -51.999s-91 -17 -139 -17c-53.333 0 -102.666 9.33301 -147.999 28s-84.333 44.5 -117 77.5
s-58.167 72.167 -76.5 117.5s-27.5 95 -27.5 149s9.33301 103.667 28 149s44.5 84.5 77.5 117.5s72 58.833 117 77.5s93.833 28 146.5 28c56.667 0 106 -8.33301 148 -25s78 -40 108 -70zM473 847.996c0 -14 -5 -25.5 -15 -34.5s-21 -13.5 -33 -13.5s-23 4.5 -33 13.5
s-15 20.5 -15 34.5s5 25.5 15 34.5s21 13.5 33 13.5s23 -4.5 33 -13.5s15 -20.5 15 -34.5z" />
    <glyph glyph-name="gdotaccent" unicode="&#x121;" horiz-adv-x="632" 
d="M115 -94c18.667 -24 44.167 -44.332 76.5 -60.999s66.5 -25 102.5 -25c33.333 0 61.666 4.83301 84.999 14.5s42.166 22.834 56.499 39.501s24.833 36.167 31.5 58.5s10 46.166 10 71.499v88h-2c-18 -29.333 -43.5 -52 -76.5 -68s-66.5 -24 -100.5 -24
c-36.667 0 -69.834 6 -99.501 18s-55 28.5 -76 49.5s-37.333 46.167 -49 75.5s-17.5 61 -17.5 95c0 33.333 5.83301 64.666 17.5 93.999s28 55 49 77s46.333 39.333 76 52s62.834 19 99.501 19c34 0 67.333 -8 100 -24s58.334 -39 77.001 -69h2v81h68v-464
c0 -25.333 -3.5 -52.333 -10.5 -81s-20 -55 -39 -79s-44.833 -44 -77.5 -60s-75 -24 -127 -24c-43.333 0 -84.666 8.33301 -123.999 25s-73 39.667 -101 69zM128 240.001c0 -24.667 4 -47.998 12 -69.998s19.5 -41.333 34.5 -58s33.5 -29.834 55.5 -39.501
s47 -14.5 75 -14.5c26 0 50 4.33301 72 13s41 21 57 37s28.5 35.167 37.5 57.5s13.5 47.166 13.5 74.499c0 24.667 -4.5 48 -13.5 70s-21.5 41.333 -37.5 58s-35 30 -57 40s-46 15 -72 15c-28 0 -53 -5 -75 -15s-40.5 -23.333 -55.5 -40s-26.5 -36 -34.5 -58
s-12 -45.333 -12 -70zM355 648.003c0 -14 -5 -25.5 -15 -34.5s-21 -13.5 -33 -13.5s-23 4.5 -33 13.5s-15 20.5 -15 34.5s5 25.5 15 34.5s21 13.5 33 13.5s23 -4.5 33 -13.5s15 -20.5 15 -34.5z" />
    <glyph glyph-name="Gcommaaccent" unicode="&#x122;" horiz-adv-x="783" 
d="M631 581c-24.667 26 -54 46.1631 -88 60.4961s-73 21.5 -117 21.5c-45.333 0 -86.166 -8.33301 -122.499 -25s-67.166 -39.167 -92.499 -67.5s-44.833 -61.166 -58.5 -98.499s-20.5 -76.666 -20.5 -117.999s6.83301 -80.666 20.5 -117.999s33.167 -70 58.5 -98
s56.166 -50.333 92.499 -67s77.166 -25 122.499 -25c40 0 76.667 4.33301 110 13s60.333 19.667 81 33v215h-165v63h237v-319c-38.667 -23.333 -80.334 -40.666 -125.001 -51.999s-91 -17 -139 -17c-53.333 0 -102.666 9.33301 -147.999 28s-84.333 44.5 -117 77.5
s-58.167 72.167 -76.5 117.5s-27.5 95 -27.5 149s9.33301 103.667 28 149s44.5 84.5 77.5 117.5s72 58.833 117 77.5s93.833 28 146.5 28c56.667 0 106 -8.33301 148 -25s78 -40 108 -70zM400 -230.004h-57l62 185h71z" />
    <glyph glyph-name="gcommaaccent" unicode="&#x123;" horiz-adv-x="632" 
d="M115 -94c18.667 -24 44.167 -44.332 76.5 -60.999s66.5 -25 102.5 -25c33.333 0 61.666 4.83301 84.999 14.5s42.166 22.834 56.499 39.501s24.833 36.167 31.5 58.5s10 46.166 10 71.499v88h-2c-18 -29.333 -43.5 -52 -76.5 -68s-66.5 -24 -100.5 -24
c-36.667 0 -69.834 6 -99.501 18s-55 28.5 -76 49.5s-37.333 46.167 -49 75.5s-17.5 61 -17.5 95c0 33.333 5.83301 64.666 17.5 93.999s28 55 49 77s46.333 39.333 76 52s62.834 19 99.501 19c34 0 67.333 -8 100 -24s58.334 -39 77.001 -69h2v81h68v-464
c0 -25.333 -3.5 -52.333 -10.5 -81s-20 -55 -39 -79s-44.833 -44 -77.5 -60s-75 -24 -127 -24c-43.333 0 -84.666 8.33301 -123.999 25s-73 39.667 -101 69zM128 240.001c0 -24.667 4 -47.998 12 -69.998s19.5 -41.333 34.5 -58s33.5 -29.834 55.5 -39.501
s47 -14.5 75 -14.5c26 0 50 4.33301 72 13s41 21 57 37s28.5 35.167 37.5 57.5s13.5 47.166 13.5 74.499c0 24.667 -4.5 48 -13.5 70s-21.5 41.333 -37.5 58s-35 30 -57 40s-46 15 -72 15c-28 0 -53 -5 -75 -15s-40.5 -23.333 -55.5 -40s-26.5 -36 -34.5 -58
s-12 -45.333 -12 -70zM357 749.003h57l-62 -185h-71z" />
    <glyph glyph-name="Hcircumflex" unicode="&#x124;" horiz-adv-x="718" 
d="M94 708h72v-307h386v307h72v-708h-72v335h-386v-335h-72v708zM507 764h-66l-83 108l-83 -108h-66l109 144h80z" />
    <glyph glyph-name="hcircumflex" unicode="&#x125;" horiz-adv-x="583" 
d="M162 391c12.667 27.333 33.668 49 63.001 65s60.666 24 93.999 24c59.333 0 103.833 -17.667 133.5 -53s44.5 -82 44.5 -140v-287h-68v259c0 24.667 -2 47 -6 67s-10.833 37.167 -20.5 51.5s-22.667 25.5 -39 33.5s-36.833 12 -61.5 12c-18 0 -35.5 -3.66699 -52.5 -11
s-32.167 -18.5 -45.5 -33.5s-24 -34 -32 -57s-12 -50.167 -12 -81.5v-240h-68v756h68v-365h2zM437.001 796h-66l-83 108l-83 -108h-66l109 144h80z" />
    <glyph glyph-name="Hbar" unicode="&#x126;" horiz-adv-x="718" 
d="M94 708h72v-158h386v158h72v-708h-72v335h-386v-335h-72v708zM552 401v99h-386v-99h386z" />
    <glyph glyph-name="hbar" unicode="&#x127;" horiz-adv-x="583" 
d="M92 620l0.000976562 136h68v-136h158v-50h-158v-179h2c12.667 27.333 33.667 49 63 65s60.666 24 93.999 24c59.333 0 103.833 -17.667 133.5 -53s44.5 -82 44.5 -140v-287h-68v259c0 24.667 -2 47 -6 67s-10.833 37.167 -20.5 51.5s-22.667 25.5 -39 33.5
s-36.833 12 -61.5 12c-18 0 -35.5 -3.66699 -52.5 -11s-32.167 -18.5 -45.5 -33.5s-24 -34 -32 -57s-12 -50.167 -12 -81.5v-240h-68v570h-54v50h54z" />
    <glyph glyph-name="Itilde" unicode="&#x128;" horiz-adv-x="260" 
d="M166 0h-72v708h72v-708zM-31 776c2 12.667 5.16895 25.3311 9.50195 37.998s10.166 23.834 17.499 33.501s16.166 17.5 26.499 23.5s23.166 9 38.499 9c12 0 24.167 -2.33301 36.5 -7s24.5 -10 36.5 -16l35 -15.5c11.333 -5 22 -7.5 32 -7.5
c15.333 0 26.5 5.16699 33.5 15.5s12.167 21.833 15.5 34.5h43c-2 -13.333 -5.16699 -26.166 -9.5 -38.499s-10.166 -23.333 -17.499 -33s-16.333 -17.5 -27 -23.5s-23.334 -9 -38.001 -9c-12 0 -24.333 2.33301 -37 7s-24.667 10 -36 16s-22.666 11.333 -33.999 16
s-22.333 7 -33 7c-15.333 0 -26.5 -5.16699 -33.5 -15.5s-12.167 -21.833 -15.5 -34.5h-43z" />
    <glyph glyph-name="itilde" unicode="&#x129;" horiz-adv-x="250" 
d="M159 0h-68v468h68v-468zM-35 576c2 12.667 5.16895 25.3311 9.50195 37.998s10.166 23.834 17.499 33.501s16.166 17.5 26.499 23.5s23.166 9 38.499 9c12 0 24.167 -2.33301 36.5 -7s24.5 -10 36.5 -16l35 -15.5c11.333 -5 22 -7.5 32 -7.5
c15.333 0 26.5 5.16699 33.5 15.5s12.167 21.833 15.5 34.5h43c-2 -13.333 -5.16699 -26.166 -9.5 -38.499s-10.166 -23.333 -17.499 -33s-16.333 -17.5 -27 -23.5s-23.334 -9 -38.001 -9c-12 0 -24.333 2.33301 -37 7s-24.667 10 -36 16s-22.666 11.333 -33.999 16
s-22.333 7 -33 7c-15.333 0 -26.5 -5.16699 -33.5 -15.5s-12.167 -21.833 -15.5 -34.5h-43z" />
    <glyph glyph-name="Imacron" unicode="&#x12a;" horiz-adv-x="260" 
d="M166 0h-72v708h72v-708zM266 800h-270v54h270v-54z" />
    <glyph glyph-name="imacron" unicode="&#x12b;" horiz-adv-x="250" 
d="M159 0h-68v468h68v-468zM261 600h-270v54h270v-54z" />
    <glyph glyph-name="Iogonek" unicode="&#x12e;" horiz-adv-x="260" 
d="M203 -187c-11.333 -11.333 -25.001 -20.168 -41.001 -26.501s-32.333 -9.5 -49 -9.5c-12 0 -23.333 2 -34 6s-20.167 9.83301 -28.5 17.5s-15 16.667 -20 27s-7.5 21.833 -7.5 34.5c0 14 2.66699 27.5 8 40.5s12.333 25.333 21 37s18.334 22.667 29.001 33
s21 19.5 31 27.5h-18v708h72v-708h-6c-24.667 -24.667 -43.667 -46.167 -57 -64.5s-20 -37.166 -20 -56.499c0 -14 5 -25.5 15 -34.5s21.667 -13.5 35 -13.5c9.33301 0 18.5 1.83301 27.5 5.5s16.833 9.16699 23.5 16.5z" />
    <glyph glyph-name="iogonek" unicode="&#x12f;" horiz-adv-x="250" 
d="M198 -187c-11.333 -11.333 -25.001 -20.168 -41.001 -26.501s-32.333 -9.5 -49 -9.5c-12 0 -23.333 2 -34 6s-20.167 9.83301 -28.5 17.5s-15 16.667 -20 27s-7.5 21.833 -7.5 34.5c0 14 2.66699 27.5 8 40.5s12.333 25.333 21 37s18.334 22.667 29.001 33
s21 19.5 31 27.5h-16v468h68v-468h-4c-24.667 -24.667 -43.667 -46.167 -57 -64.5s-20 -37.166 -20 -56.499c0 -14 5 -25.5 15 -34.5s21.667 -13.5 35 -13.5c9.33301 0 18.5 1.83301 27.5 5.5s16.833 9.16699 23.5 16.5zM172.999 647.998c0 -14 -5 -25.5 -15 -34.5
s-21 -13.5 -33 -13.5s-23 4.5 -33 13.5s-15 20.5 -15 34.5s5 25.5 15 34.5s21 13.5 33 13.5s23 -4.5 33 -13.5s15 -20.5 15 -34.5z" />
    <glyph glyph-name="Idotaccent" unicode="&#x130;" horiz-adv-x="260" 
d="M166 0h-72v708h72v-708zM179 848c0 -14 -5 -25.5 -15 -34.5s-21 -13.5 -33 -13.5s-23 4.5 -33 13.5s-15 20.5 -15 34.5s5 25.5 15 34.5s21 13.5 33 13.5s23 -4.5 33 -13.5s15 -20.5 15 -34.5z" />
    <glyph glyph-name="dotlessi" unicode="&#x131;" horiz-adv-x="250" 
d="M159 0h-68v468h68v-468z" />
    <glyph glyph-name="IJ" unicode="&#x132;" horiz-adv-x="734" 
d="M166 0h-72v708h72v-708zM334 144c5.33301 -28 17.832 -51.5 37.499 -70.5s45.5 -28.5 77.5 -28.5c24.667 0 45 4.5 61 13.5s28.833 21.167 38.5 36.5s16.334 32.833 20.001 52.5s5.5 40.167 5.5 61.5v499h72v-504c0 -23.333 -2.5 -48 -7.5 -74s-14.5 -50 -28.5 -72
s-33.333 -40.167 -58 -54.5s-56.334 -21.5 -95.001 -21.5c-51.333 0 -93.666 13.5 -126.999 40.5s-54.333 61.5 -63 103.5z" />
    <glyph glyph-name="ij" unicode="&#x133;" horiz-adv-x="498" 
d="M159 0h-68v468h68v-468zM173 648c0 -14 -5 -25.5 -15 -34.5s-21 -13.5 -33 -13.5s-23 4.5 -33 13.5s-15 20.5 -15 34.5s5 25.5 15 34.5s21 13.5 33 13.5s23 -4.5 33 -13.5s15 -20.5 15 -34.5zM230 -176c6.66699 -2 13.8301 -3.49805 21.4971 -4.49805
s14.834 -1.5 21.501 -1.5c14 0 25.333 2.5 34 7.5s15.334 11.833 20.001 20.5s7.83398 19.167 9.50098 31.5s2.5 25.833 2.5 40.5v550h68v-561c0 -18.667 -2 -36.834 -6 -54.501s-11 -33.334 -21 -47.001s-23.5 -24.667 -40.5 -33s-38.833 -12.5 -65.5 -12.5
c-7.33301 0 -16 0.5 -26 1.5s-19.333 2.83301 -28 5.5zM420.996 648.002c0 -14 -5 -25.5 -15 -34.5s-21 -13.5 -33 -13.5s-23 4.5 -33 13.5s-15 20.5 -15 34.5s5 25.5 15 34.5s21 13.5 33 13.5s23 -4.5 33 -13.5s15 -20.5 15 -34.5z" />
    <glyph glyph-name="Jcircumflex" unicode="&#x134;" horiz-adv-x="492" 
d="M92 144c5.33301 -28 17.832 -51.5 37.499 -70.5s45.5 -28.5 77.5 -28.5c24.667 0 45 4.5 61 13.5s28.833 21.167 38.5 36.5s16.334 32.833 20.001 52.5s5.5 40.167 5.5 61.5v499h72v-504c0 -23.333 -2.5 -48 -7.5 -74s-14.5 -50 -28.5 -72s-33.333 -40.167 -58 -54.5
s-56.334 -21.5 -95.001 -21.5c-51.333 0 -93.666 13.5 -126.999 40.5s-54.333 61.5 -63 103.5zM515.999 764h-66l-83 108l-83 -108h-66l109 144h80z" />
    <glyph glyph-name="jcircumflex" unicode="&#x135;" horiz-adv-x="251" 
d="M-17 -176c6.66699 -2 13.8301 -3.49805 21.4971 -4.49805s14.834 -1.5 21.501 -1.5c14 0 25.333 2.5 34 7.5s15.334 11.833 20.001 20.5s7.83398 19.167 9.50098 31.5s2.5 25.833 2.5 40.5v550h68v-561c0 -18.667 -2 -36.834 -6 -54.501s-11 -33.334 -21 -47.001
s-23.5 -24.667 -40.5 -33s-38.833 -12.5 -65.5 -12.5c-7.33301 0 -16 0.5 -26 1.5s-19.333 2.83301 -28 5.5zM274.996 564.002h-66l-83 108l-83 -108h-66l109 144h80z" />
    <glyph glyph-name="Kcommaaccent" unicode="&#x136;" horiz-adv-x="628" 
d="M166 390h1l337 318h103l-357 -321l377 -387h-106l-354 377h-1v-377h-72v708h72v-318zM312 -230h-57l62 185h71z" />
    <glyph glyph-name="kcommaaccent" unicode="&#x137;" horiz-adv-x="510" 
d="M160 257h3l216 211h98l-236 -214l260 -254h-100l-238 246h-3v-246h-68v756h68v-499zM253 -230h-57l62 185h71z" />
    <glyph glyph-name="Lacute" unicode="&#x139;" horiz-adv-x="510" 
d="M166 64h330v-64h-402v708h72v-644zM159 764h-59l100 144h91z" />
    <glyph glyph-name="lacute" unicode="&#x13a;" horiz-adv-x="252" 
d="M160 0h-68v756h68v-756zM153 792h-59l100 144h91z" />
    <glyph glyph-name="Lcommaaccent" unicode="&#x13b;" horiz-adv-x="510" 
d="M166 64h330v-64h-402v708h72v-644zM271 -230h-57l62 185h71z" />
    <glyph glyph-name="lcommaaccent" unicode="&#x13c;" horiz-adv-x="252" 
d="M160 0h-68v756h68v-756zM103 -230h-57l62 185h71z" />
    <glyph glyph-name="Lcaron" unicode="&#x13d;" horiz-adv-x="510" 
d="M166 64h330v-64h-402v708h72v-644zM300 523h-57l62 185h71z" />
    <glyph glyph-name="lcaron" unicode="&#x13e;" horiz-adv-x="252" 
d="M160 0h-68v756h68v-756zM274 523h-57l62 185h71z" />
    <glyph glyph-name="Ldot" unicode="&#x13f;" horiz-adv-x="510" 
d="M166 64h330v-64h-402v708h72v-644zM424 328c0 -14 -5 -25.5 -15 -34.5s-21 -13.5 -33 -13.5s-23 4.5 -33 13.5s-15 20.5 -15 34.5s5 25.5 15 34.5s21 13.5 33 13.5s23 -4.5 33 -13.5s15 -20.5 15 -34.5z" />
    <glyph glyph-name="ldot" unicode="&#x140;" horiz-adv-x="312" 
d="M160 0h-68v756h68v-756zM328 328c0 -14 -5 -25.5 -15 -34.5s-21 -13.5 -33 -13.5s-23 4.5 -33 13.5s-15 20.5 -15 34.5s5 25.5 15 34.5s21 13.5 33 13.5s23 -4.5 33 -13.5s15 -20.5 15 -34.5z" />
    <glyph glyph-name="Lslash" unicode="&#x141;" horiz-adv-x="510" 
d="M166 362l216 186v-70l-216 -186v-228h330v-64h-402v242l-82 -70v70l82 70v396h72v-346z" />
    <glyph glyph-name="lslash" unicode="&#x142;" horiz-adv-x="252" 
d="M158 458l81 84v-73l-81 -83v-386h-66v331l-81 -83v73l81 82v353h66v-298z" />
    <glyph glyph-name="Nacute" unicode="&#x143;" horiz-adv-x="764" 
d="M596 105h2v603h72v-708h-90l-412 609h-2v-609h-72v708h90zM403 764h-59l100 144h91z" />
    <glyph glyph-name="nacute" unicode="&#x144;" horiz-adv-x="581" 
d="M151 468c1.33301 -12.667 2.33301 -26.667 3 -42s1 -28 1 -38h2c13.333 27.333 35 49.5 65 66.5s61.667 25.5 95 25.5c59.333 0 103.833 -17.667 133.5 -53s44.5 -82 44.5 -140v-287h-68v259c0 24.667 -2 47 -6 67s-10.833 37.167 -20.5 51.5s-22.667 25.5 -39 33.5
s-36.833 12 -61.5 12c-18 0 -35.5 -3.66699 -52.5 -11s-32.167 -18.5 -45.5 -33.5s-24 -34 -32 -57s-12 -50.167 -12 -81.5v-240h-68v365c0 12.667 -0.333008 29 -1 49s-1.66699 38 -3 54h65zM307 564h-59l100 144h91z" />
    <glyph glyph-name="Ncommaaccent" unicode="&#x145;" horiz-adv-x="764" 
d="M596 105h2v603h72v-708h-90l-412 609h-2v-609h-72v708h90zM349 -230h-57l62 185h71z" />
    <glyph glyph-name="ncommaaccent" unicode="&#x146;" horiz-adv-x="581" 
d="M151 468c1.33301 -12.667 2.33301 -26.667 3 -42s1 -28 1 -38h2c13.333 27.333 35 49.5 65 66.5s61.667 25.5 95 25.5c59.333 0 103.833 -17.667 133.5 -53s44.5 -82 44.5 -140v-287h-68v259c0 24.667 -2 47 -6 67s-10.833 37.167 -20.5 51.5s-22.667 25.5 -39 33.5
s-36.833 12 -61.5 12c-18 0 -35.5 -3.66699 -52.5 -11s-32.167 -18.5 -45.5 -33.5s-24 -34 -32 -57s-12 -50.167 -12 -81.5v-240h-68v365c0 12.667 -0.333008 29 -1 49s-1.66699 38 -3 54h65zM266 -230h-57l62 185h71z" />
    <glyph glyph-name="Ncaron" unicode="&#x147;" horiz-adv-x="764" 
d="M596 105h2v603h72v-708h-90l-412 609h-2v-609h-72v708h90zM423 764h-80l-109 144h66l83 -108l83 108h66z" />
    <glyph glyph-name="ncaron" unicode="&#x148;" horiz-adv-x="581" 
d="M151 468c1.33301 -12.667 2.33301 -26.667 3 -42s1 -28 1 -38h2c13.333 27.333 35 49.5 65 66.5s61.667 25.5 95 25.5c59.333 0 103.833 -17.667 133.5 -53s44.5 -82 44.5 -140v-287h-68v259c0 24.667 -2 47 -6 67s-10.833 37.167 -20.5 51.5s-22.667 25.5 -39 33.5
s-36.833 12 -61.5 12c-18 0 -35.5 -3.66699 -52.5 -11s-32.167 -18.5 -45.5 -33.5s-24 -34 -32 -57s-12 -50.167 -12 -81.5v-240h-68v365c0 12.667 -0.333008 29 -1 49s-1.66699 38 -3 54h65zM333 564h-80l-109 144h66l83 -108l83 108h66z" />
    <glyph glyph-name="napostrophe" unicode="&#x149;" horiz-adv-x="581" 
d="M151 468c1.33301 -12.667 2.33301 -26.667 3 -42s1 -28 1 -38h2c13.333 27.333 35 49.5 65 66.5s61.667 25.5 95 25.5c59.333 0 103.833 -17.667 133.5 -53s44.5 -82 44.5 -140v-287h-68v259c0 24.667 -2 47 -6 67s-10.833 37.167 -20.5 51.5s-22.667 25.5 -39 33.5
s-36.833 12 -61.5 12c-18 0 -35.5 -3.66699 -52.5 -11s-32.167 -18.5 -45.5 -33.5s-24 -34 -32 -57s-12 -50.167 -12 -81.5v-240h-68v365c0 12.667 -0.333008 29 -1 49s-1.66699 38 -3 54h65zM30 571h-57l62 185h71z" />
    <glyph glyph-name="Omacron" unicode="&#x14c;" horiz-adv-x="850" 
d="M794 354c0 -54 -9.33301 -103.667 -28 -149s-44.5 -84.5 -77.5 -117.5s-72 -58.833 -117 -77.5s-93.833 -28 -146.5 -28s-101.5 9.33301 -146.5 28s-84 44.5 -117 77.5s-58.833 72.167 -77.5 117.5s-28 95 -28 149s9.33301 103.667 28 149s44.5 84.5 77.5 117.5
s72 58.833 117 77.5s93.833 28 146.5 28s101.5 -9.33301 146.5 -28s84 -44.5 117 -77.5s58.833 -72.167 77.5 -117.5s28 -95 28 -149zM718 354c0 41.333 -6.66699 80.666 -20 117.999s-32.666 70.166 -57.999 98.499s-56.166 50.833 -92.499 67.5s-77.166 25 -122.499 25
s-86.166 -8.33301 -122.499 -25s-67.166 -39.167 -92.499 -67.5s-44.666 -61.166 -57.999 -98.499s-20 -76.666 -20 -117.999s6.66699 -80.666 20 -117.999s32.666 -70 57.999 -98s56.166 -50.333 92.499 -67s77.166 -25 122.499 -25s86.166 8.33301 122.499 25
s67.166 39 92.499 67s44.666 60.667 57.999 98s20 76.666 20 117.999zM564 800h-270v54h270v-54z" />
    <glyph glyph-name="omacron" unicode="&#x14d;" horiz-adv-x="611" 
d="M555 234c0 -35.333 -6.16699 -68 -18.5 -98s-29.5 -56 -51.5 -78s-48.333 -39.167 -79 -51.5s-64.334 -18.5 -101.001 -18.5c-36 0 -69.333 6.16699 -100 18.5s-57 29.5 -79 51.5s-39.167 48 -51.5 78s-18.5 62.667 -18.5 98s6.16699 68 18.5 98s29.5 56 51.5 78
s48.333 39.167 79 51.5s64 18.5 100 18.5c36.667 0 70.334 -6.16699 101.001 -18.5s57 -29.5 79 -51.5s39.167 -48 51.5 -78s18.5 -62.667 18.5 -98zM483 234c0 26 -4.16699 50.5 -12.5 73.5s-20.166 43 -35.499 60s-34 30.5 -56 40.5s-46.667 15 -74 15
s-51.833 -5 -73.5 -15s-40.167 -23.5 -55.5 -40.5s-27.166 -37 -35.499 -60s-12.5 -47.5 -12.5 -73.5s4.16699 -50.5 12.5 -73.5s20.166 -43 35.499 -60s33.833 -30.333 55.5 -40s46.167 -14.5 73.5 -14.5s52 4.83301 74 14.5s40.667 23 56 40s27.166 37 35.499 60
s12.5 47.5 12.5 73.5zM442 600h-270v54h270v-54z" />
    <glyph glyph-name="Obreve" unicode="&#x14e;" horiz-adv-x="850" 
d="M794 354c0 -54 -9.33301 -103.667 -28 -149s-44.5 -84.5 -77.5 -117.5s-72 -58.833 -117 -77.5s-93.833 -28 -146.5 -28s-101.5 9.33301 -146.5 28s-84 44.5 -117 77.5s-58.833 72.167 -77.5 117.5s-28 95 -28 149s9.33301 103.667 28 149s44.5 84.5 77.5 117.5
s72 58.833 117 77.5s93.833 28 146.5 28s101.5 -9.33301 146.5 -28s84 -44.5 117 -77.5s58.833 -72.167 77.5 -117.5s28 -95 28 -149zM718 354c0 41.333 -6.66699 80.666 -20 117.999s-32.666 70.166 -57.999 98.499s-56.166 50.833 -92.499 67.5s-77.166 25 -122.499 25
s-86.166 -8.33301 -122.499 -25s-67.166 -39.167 -92.499 -67.5s-44.666 -61.166 -57.999 -98.499s-20 -76.666 -20 -117.999s6.66699 -80.666 20 -117.999s32.666 -70 57.999 -98s56.166 -50.333 92.499 -67s77.166 -25 122.499 -25s86.166 8.33301 122.499 25
s67.166 39 92.499 67s44.666 60.667 57.999 98s20 76.666 20 117.999zM575 908c-2.66699 -42 -17.498 -74.5 -44.498 -97.5s-61.167 -34.5 -102.5 -34.5s-75.5 11.5 -102.5 34.5s-41.833 55.5 -44.5 97.5h44c4.66699 -26 16.667 -45.5 36 -58.5s41.666 -19.5 66.999 -19.5
s47.666 6.5 66.999 19.5s31.333 32.5 36 58.5h44z" />
    <glyph glyph-name="obreve" unicode="&#x14f;" horiz-adv-x="611" 
d="M555 234c0 -35.333 -6.16699 -68 -18.5 -98s-29.5 -56 -51.5 -78s-48.333 -39.167 -79 -51.5s-64.334 -18.5 -101.001 -18.5c-36 0 -69.333 6.16699 -100 18.5s-57 29.5 -79 51.5s-39.167 48 -51.5 78s-18.5 62.667 -18.5 98s6.16699 68 18.5 98s29.5 56 51.5 78
s48.333 39.167 79 51.5s64 18.5 100 18.5c36.667 0 70.334 -6.16699 101.001 -18.5s57 -29.5 79 -51.5s39.167 -48 51.5 -78s18.5 -62.667 18.5 -98zM483 234c0 26 -4.16699 50.5 -12.5 73.5s-20.166 43 -35.499 60s-34 30.5 -56 40.5s-46.667 15 -74 15
s-51.833 -5 -73.5 -15s-40.167 -23.5 -55.5 -40.5s-27.166 -37 -35.499 -60s-12.5 -47.5 -12.5 -73.5s4.16699 -50.5 12.5 -73.5s20.166 -43 35.499 -60s33.833 -30.333 55.5 -40s46.167 -14.5 73.5 -14.5s52 4.83301 74 14.5s40.667 23 56 40s27.166 37 35.499 60
s12.5 47.5 12.5 73.5zM454 708c-2.66699 -42 -17.498 -74.5 -44.498 -97.5s-61.167 -34.5 -102.5 -34.5s-75.5 11.5 -102.5 34.5s-41.833 55.5 -44.5 97.5h44c4.66699 -26 16.667 -45.5 36 -58.5s41.666 -19.5 66.999 -19.5s47.666 6.5 66.999 19.5s31.333 32.5 36 58.5h44z
" />
    <glyph glyph-name="Ohungarumlaut" unicode="&#x150;" horiz-adv-x="850" 
d="M794 354c0 -54 -9.33301 -103.667 -28 -149s-44.5 -84.5 -77.5 -117.5s-72 -58.833 -117 -77.5s-93.833 -28 -146.5 -28s-101.5 9.33301 -146.5 28s-84 44.5 -117 77.5s-58.833 72.167 -77.5 117.5s-28 95 -28 149s9.33301 103.667 28 149s44.5 84.5 77.5 117.5
s72 58.833 117 77.5s93.833 28 146.5 28s101.5 -9.33301 146.5 -28s84 -44.5 117 -77.5s58.833 -72.167 77.5 -117.5s28 -95 28 -149zM718 354c0 41.333 -6.66699 80.666 -20 117.999s-32.666 70.166 -57.999 98.499s-56.166 50.833 -92.499 67.5s-77.166 25 -122.499 25
s-86.166 -8.33301 -122.499 -25s-67.166 -39.167 -92.499 -67.5s-44.666 -61.166 -57.999 -98.499s-20 -76.666 -20 -117.999s6.66699 -80.666 20 -117.999s32.666 -70 57.999 -98s56.166 -50.333 92.499 -67s77.166 -25 122.499 -25s86.166 8.33301 122.499 25
s67.166 39 92.499 67s44.666 60.667 57.999 98s20 76.666 20 117.999zM368 764h-59l101 144h91zM539 764h-59l100 144h91z" />
    <glyph glyph-name="ohungarumlaut" unicode="&#x151;" horiz-adv-x="611" 
d="M555 234c0 -35.333 -6.16699 -68 -18.5 -98s-29.5 -56 -51.5 -78s-48.333 -39.167 -79 -51.5s-64.334 -18.5 -101.001 -18.5c-36 0 -69.333 6.16699 -100 18.5s-57 29.5 -79 51.5s-39.167 48 -51.5 78s-18.5 62.667 -18.5 98s6.16699 68 18.5 98s29.5 56 51.5 78
s48.333 39.167 79 51.5s64 18.5 100 18.5c36.667 0 70.334 -6.16699 101.001 -18.5s57 -29.5 79 -51.5s39.167 -48 51.5 -78s18.5 -62.667 18.5 -98zM483 234c0 26 -4.16699 50.5 -12.5 73.5s-20.166 43 -35.499 60s-34 30.5 -56 40.5s-46.667 15 -74 15
s-51.833 -5 -73.5 -15s-40.167 -23.5 -55.5 -40.5s-27.166 -37 -35.499 -60s-12.5 -47.5 -12.5 -73.5s4.16699 -50.5 12.5 -73.5s20.166 -43 35.499 -60s33.833 -30.333 55.5 -40s46.167 -14.5 73.5 -14.5s52 4.83301 74 14.5s40.667 23 56 40s27.166 37 35.499 60
s12.5 47.5 12.5 73.5zM255 564h-59l101 144h91zM426 564h-59l100 144h91z" />
    <glyph glyph-name="OE" unicode="&#x152;" horiz-adv-x="992" 
d="M933 708v-64.002h-333v-244h309v-63h-309v-273h345v-64h-502c-44 0 -88.167 7.33301 -132.5 22s-84.333 36.834 -120 66.501s-64.5 66.5 -86.5 110.5s-33 95.667 -33 155c0 58.667 11 110.167 33 154.5s50.833 81.333 86.5 111s75.667 51.834 120 66.501
s88.5 22 132.5 22h490zM463 643.998c-53.333 0 -99.833 -8.33105 -139.5 -24.998s-72.5 -38.5 -98.5 -65.5s-45.5 -57.833 -58.5 -92.5s-19.5 -70.334 -19.5 -107.001s6.5 -72.334 19.5 -107.001s32.5 -65.5 58.5 -92.5s58.833 -48.833 98.5 -65.5s86.167 -25 139.5 -25h65
v580h-65z" />
    <glyph glyph-name="oe" unicode="&#x153;" horiz-adv-x="994" 
d="M713 480c36.667 0 69.168 -6.16699 97.501 -18.5s51.833 -29 70.5 -50s32.834 -45.5 42.501 -73.5s14.5 -58 14.5 -90v-15c0 -5.33301 -0.333008 -11 -1 -17h-390c0.666992 -23.333 5.5 -45.333 14.5 -66s21.167 -38.667 36.5 -54s33.5 -27.5 54.5 -36.5
s43.5 -13.5 67.5 -13.5c35.333 0 65.833 8.16699 91.5 24.5s45.167 35.166 58.5 56.499l51 -40c-28 -35.333 -58.833 -60.666 -92.5 -75.999s-70.167 -23 -109.5 -23c-46 0 -86.333 10.167 -121 30.5s-62.334 48.166 -83.001 83.499
c-21.333 -35.333 -49.833 -63.166 -85.5 -83.499s-77.5 -30.5 -125.5 -30.5c-36 0 -69.167 6.16699 -99.5 18.5s-56.5 29.5 -78.5 51.5s-39.167 48 -51.5 78s-18.5 62.667 -18.5 98s6.16699 68 18.5 98s29.5 56 51.5 78s48.167 39.167 78.5 51.5s63.5 18.5 99.5 18.5
c48 0 89.667 -10.167 125 -30.5s63.666 -48.166 84.999 -83.499c20.667 35.333 48 63.166 82 83.499s73 30.5 117 30.5zM483.001 234c0 26 -4.16699 50.5 -12.5 73.5s-20.333 43 -36 60s-34.5 30.5 -56.5 40.5s-46.667 15 -74 15s-51.833 -5 -73.5 -15
s-40.334 -23.5 -56.001 -40.5s-27.667 -37 -36 -60s-12.5 -47.5 -12.5 -73.5s4.16699 -50.5 12.5 -73.5s20.333 -43 36 -60s34.334 -30.333 56.001 -40s46.167 -14.5 73.5 -14.5s52 4.83301 74 14.5s40.833 23 56.5 40s27.667 37 36 60s12.5 47.5 12.5 73.5zM869.001 270
c-2 44 -16.166 80.498 -42.499 109.498s-63.833 43.5 -112.5 43.5c-22.667 0 -43.667 -4.16699 -63 -12.5s-36.333 -19.666 -51 -33.999s-26.334 -30.666 -35.001 -48.999s-13.667 -37.5 -15 -57.5h319z" />
    <glyph glyph-name="Racute" unicode="&#x154;" horiz-adv-x="599" 
d="M166 0h-72.002v708h208c34.667 0 66.834 -3.33301 96.501 -10s55.334 -17.5 77.001 -32.5s38.5 -34.5 50.5 -58.5s18 -53.333 18 -88c0 -26 -4.66699 -49.667 -14 -71s-22 -39.833 -38 -55.5s-35 -28.167 -57 -37.5s-46 -15.333 -72 -18l207 -337h-88l-196 331h-120v-331
zM165.998 393h125c58 0 102.667 10.5 134 31.5s47 52.5 47 94.5c0 23.333 -4.33301 43 -13 59s-20.667 29 -36 39s-34 17.333 -56 22s-46.333 7 -73 7h-128v-253zM289.998 764h-59l100 144h91z" />
    <glyph glyph-name="racute" unicode="&#x155;" horiz-adv-x="360" 
d="M90 365c0 12.667 -0.333984 28.999 -1.00098 48.999s-1.66699 38 -3 54h65c1.33301 -12.667 2.33301 -26.667 3 -42s1 -28 1 -38h2c13.333 27.333 33.333 49.5 60 66.5s56.667 25.5 90 25.5c8.66699 0 16.5 -0.333008 23.5 -1s14.167 -2 21.5 -4l-9 -64
c-4 1.33301 -10.667 2.66602 -20 3.99902s-18.666 2 -27.999 2c-18 0 -35.333 -3.33301 -52 -10s-31.167 -17.167 -43.5 -31.5s-22.333 -32.666 -30 -54.999s-11.5 -49.166 -11.5 -80.499v-240h-68v365zM174.999 563.999h-59l100 144h91z" />
    <glyph glyph-name="Rcommaaccent" unicode="&#x156;" horiz-adv-x="599" 
d="M166 0h-72.002v708h208c34.667 0 66.834 -3.33301 96.501 -10s55.334 -17.5 77.001 -32.5s38.5 -34.5 50.5 -58.5s18 -53.333 18 -88c0 -26 -4.66699 -49.667 -14 -71s-22 -39.833 -38 -55.5s-35 -28.167 -57 -37.5s-46 -15.333 -72 -18l207 -337h-88l-196 331h-120v-331
zM165.998 393h125c58 0 102.667 10.5 134 31.5s47 52.5 47 94.5c0 23.333 -4.33301 43 -13 59s-20.667 29 -36 39s-34 17.333 -56 22s-46.333 7 -73 7h-128v-253zM289.998 -230h-57l62 185h71z" />
    <glyph glyph-name="rcommaaccent" unicode="&#x157;" horiz-adv-x="360" 
d="M90 365c0 12.667 -0.333984 28.999 -1.00098 48.999s-1.66699 38 -3 54h65c1.33301 -12.667 2.33301 -26.667 3 -42s1 -28 1 -38h2c13.333 27.333 33.333 49.5 60 66.5s56.667 25.5 90 25.5c8.66699 0 16.5 -0.333008 23.5 -1s14.167 -2 21.5 -4l-9 -64
c-4 1.33301 -10.667 2.66602 -20 3.99902s-18.666 2 -27.999 2c-18 0 -35.333 -3.33301 -52 -10s-31.167 -17.167 -43.5 -31.5s-22.333 -32.666 -30 -54.999s-11.5 -49.166 -11.5 -80.499v-240h-68v365zM99.999 -230.001h-57l62 185h71z" />
    <glyph glyph-name="Rcaron" unicode="&#x158;" horiz-adv-x="599" 
d="M166 0h-72.002v708h208c34.667 0 66.834 -3.33301 96.501 -10s55.334 -17.5 77.001 -32.5s38.5 -34.5 50.5 -58.5s18 -53.333 18 -88c0 -26 -4.66699 -49.667 -14 -71s-22 -39.833 -38 -55.5s-35 -28.167 -57 -37.5s-46 -15.333 -72 -18l207 -337h-88l-196 331h-120v-331
zM165.998 393h125c58 0 102.667 10.5 134 31.5s47 52.5 47 94.5c0 23.333 -4.33301 43 -13 59s-20.667 29 -36 39s-34 17.333 -56 22s-46.333 7 -73 7h-128v-253zM327.998 764h-80l-109 144h66l83 -108l83 108h66z" />
    <glyph glyph-name="rcaron" unicode="&#x159;" horiz-adv-x="360" 
d="M90 365c0 12.667 -0.333984 28.999 -1.00098 48.999s-1.66699 38 -3 54h65c1.33301 -12.667 2.33301 -26.667 3 -42s1 -28 1 -38h2c13.333 27.333 33.333 49.5 60 66.5s56.667 25.5 90 25.5c8.66699 0 16.5 -0.333008 23.5 -1s14.167 -2 21.5 -4l-9 -64
c-4 1.33301 -10.667 2.66602 -20 3.99902s-18.666 2 -27.999 2c-18 0 -35.333 -3.33301 -52 -10s-31.167 -17.167 -43.5 -31.5s-22.333 -32.666 -30 -54.999s-11.5 -49.166 -11.5 -80.499v-240h-68v365zM254.999 563.999h-80l-109 144h66l83 -108l83 108h66z" />
    <glyph glyph-name="Sacute" unicode="&#x15a;" horiz-adv-x="564" 
d="M437 594c-15.333 21.333 -34.998 38.5039 -58.998 51.5039s-53 19.5 -87 19.5c-17.333 0 -35 -2.66699 -53 -8s-34.333 -13.5 -49 -24.5s-26.5 -24.833 -35.5 -41.5s-13.5 -36.334 -13.5 -59.001s4.33301 -41.334 13 -56.001s20.167 -27.167 34.5 -37.5
s30.666 -18.833 48.999 -25.5l57.5 -20c24.667 -8 49.5 -16.667 74.5 -26s47.5 -21.5 67.5 -36.5s36.333 -34 49 -57s19 -52.167 19 -87.5s-6.83301 -65.833 -20.5 -91.5s-31.334 -46.834 -53.001 -63.501s-46.334 -29 -74.001 -37s-55.5 -12 -83.5 -12
c-21.333 0 -42.666 2.16699 -63.999 6.5s-41.666 10.833 -60.999 19.5s-37.333 19.667 -54 33s-31.334 28.666 -44.001 45.999l62 46c15.333 -25.333 36.833 -46.5 64.5 -63.5s60.167 -25.5 97.5 -25.5c18 0 36.333 2.83301 55 8.5s35.5 14.334 50.5 26.001s27.333 26 37 43
s14.5 36.833 14.5 59.5c0 24.667 -4.83301 45.167 -14.5 61.5s-22.5 30 -38.5 41s-34.333 20.167 -55 27.5l-65 22c-23.333 7.33301 -46.333 15.666 -69 24.999s-43 21.5 -61 36.5s-32.5 33.5 -43.5 55.5s-16.5 49 -16.5 81c0 34 6.83301 63.333 20.5 88s31.5 45 53.5 61
s46.333 27.667 73 35s53 11 79 11c48 0 89 -8.5 123 -25.5s59.667 -37.167 77 -60.5zM302.002 764.004h-59l100 144h91z" />
    <glyph glyph-name="sacute" unicode="&#x15b;" horiz-adv-x="444" 
d="M339 357c-10 19.333 -25.168 35.168 -45.501 47.501s-43.5 18.5 -69.5 18.5c-12 0 -24 -1.33301 -36 -4s-22.667 -7 -32 -13s-16.833 -13.667 -22.5 -23s-8.5 -20.333 -8.5 -33c0 -22 9 -38.833 27 -50.5s46.333 -21.5 85 -29.5
c55.333 -11.333 96.166 -27.833 122.499 -49.5s39.5 -50.834 39.5 -87.501c0 -26.667 -5.16699 -49.167 -15.5 -67.5s-23.833 -33.333 -40.5 -45s-35.5 -20 -56.5 -25s-42.167 -7.5 -63.5 -7.5c-35.333 0 -69.666 7.33301 -102.999 22s-60.666 37.667 -81.999 69l54 40
c12 -20.667 29.667 -38 53 -52s49 -21 77 -21c14.667 0 28.667 1.33301 42 4s25 7.33398 35 14.001s18 15.167 24 25.5s9 23.166 9 38.499c0 24.667 -11.833 43.167 -35.5 55.5s-57.834 23.833 -102.501 34.5c-14 3.33301 -28.833 7.5 -44.5 12.5s-30.167 12.333 -43.5 22
s-24.333 21.834 -33 36.501s-13 33 -13 55c0 24 4.66699 44.5 14 61.5s21.833 31 37.5 42s33.5 19.167 53.5 24.5s40.667 8 62 8c32.667 0 64.334 -7.33301 95.001 -22s53.667 -35.334 69 -62.001zM247.999 564.002h-59l100 144h91z" />
    <glyph glyph-name="Scircumflex" unicode="&#x15c;" horiz-adv-x="564" 
d="M437 594c-15.333 21.333 -34.998 38.5039 -58.998 51.5039s-53 19.5 -87 19.5c-17.333 0 -35 -2.66699 -53 -8s-34.333 -13.5 -49 -24.5s-26.5 -24.833 -35.5 -41.5s-13.5 -36.334 -13.5 -59.001s4.33301 -41.334 13 -56.001s20.167 -27.167 34.5 -37.5
s30.666 -18.833 48.999 -25.5l57.5 -20c24.667 -8 49.5 -16.667 74.5 -26s47.5 -21.5 67.5 -36.5s36.333 -34 49 -57s19 -52.167 19 -87.5s-6.83301 -65.833 -20.5 -91.5s-31.334 -46.834 -53.001 -63.501s-46.334 -29 -74.001 -37s-55.5 -12 -83.5 -12
c-21.333 0 -42.666 2.16699 -63.999 6.5s-41.666 10.833 -60.999 19.5s-37.333 19.667 -54 33s-31.334 28.666 -44.001 45.999l62 46c15.333 -25.333 36.833 -46.5 64.5 -63.5s60.167 -25.5 97.5 -25.5c18 0 36.333 2.83301 55 8.5s35.5 14.334 50.5 26.001s27.333 26 37 43
s14.5 36.833 14.5 59.5c0 24.667 -4.83301 45.167 -14.5 61.5s-22.5 30 -38.5 41s-34.333 20.167 -55 27.5l-65 22c-23.333 7.33301 -46.333 15.666 -69 24.999s-43 21.5 -61 36.5s-32.5 33.5 -43.5 55.5s-16.5 49 -16.5 81c0 34 6.83301 63.333 20.5 88s31.5 45 53.5 61
s46.333 27.667 73 35s53 11 79 11c48 0 89 -8.5 123 -25.5s59.667 -37.167 77 -60.5zM442.002 764.004h-66l-83 108l-83 -108h-66l109 144h80z" />
    <glyph glyph-name="scircumflex" unicode="&#x15d;" horiz-adv-x="444" 
d="M339 357c-10 19.333 -25.168 35.168 -45.501 47.501s-43.5 18.5 -69.5 18.5c-12 0 -24 -1.33301 -36 -4s-22.667 -7 -32 -13s-16.833 -13.667 -22.5 -23s-8.5 -20.333 -8.5 -33c0 -22 9 -38.833 27 -50.5s46.333 -21.5 85 -29.5
c55.333 -11.333 96.166 -27.833 122.499 -49.5s39.5 -50.834 39.5 -87.501c0 -26.667 -5.16699 -49.167 -15.5 -67.5s-23.833 -33.333 -40.5 -45s-35.5 -20 -56.5 -25s-42.167 -7.5 -63.5 -7.5c-35.333 0 -69.666 7.33301 -102.999 22s-60.666 37.667 -81.999 69l54 40
c12 -20.667 29.667 -38 53 -52s49 -21 77 -21c14.667 0 28.667 1.33301 42 4s25 7.33398 35 14.001s18 15.167 24 25.5s9 23.166 9 38.499c0 24.667 -11.833 43.167 -35.5 55.5s-57.834 23.833 -102.501 34.5c-14 3.33301 -28.833 7.5 -44.5 12.5s-30.167 12.333 -43.5 22
s-24.333 21.834 -33 36.501s-13 33 -13 55c0 24 4.66699 44.5 14 61.5s21.833 31 37.5 42s33.5 19.167 53.5 24.5s40.667 8 62 8c32.667 0 64.334 -7.33301 95.001 -22s53.667 -35.334 69 -62.001zM378.999 564.002h-66l-83 108l-83 -108h-66l109 144h80z" />
    <glyph glyph-name="Scedilla" unicode="&#x15e;" horiz-adv-x="564" 
d="M437 594c-15.333 21.333 -35 38.5029 -59 51.5029s-53 19.5 -87 19.5c-17.333 0 -35 -2.66699 -53 -8s-34.333 -13.5 -49 -24.5s-26.5 -24.833 -35.5 -41.5s-13.5 -36.334 -13.5 -59.001s4.33301 -41.334 13 -56.001s20.167 -27.167 34.5 -37.5
s30.666 -18.833 48.999 -25.5l57.5 -20c24.667 -8 49.5 -16.667 74.5 -26s47.5 -21.5 67.5 -36.5s36.333 -34 49 -57s19 -52.167 19 -87.5c0 -32.667 -5.83301 -61.167 -17.5 -85.5s-27 -44.833 -46 -61.5s-40.833 -29.667 -65.5 -39s-50 -15 -76 -17l-36 -58
c8.66699 2.66699 20.334 4 35.001 4c20 0 38.667 -6 56 -18s26 -30 26 -54c0 -16.667 -3.66699 -30.667 -11 -42s-16.666 -20.333 -27.999 -27s-24 -11.334 -38 -14.001s-27.667 -4 -41 -4s-28.833 1.66699 -46.5 5s-33.5 8.33301 -47.5 15l16 36
c11.333 -5.33301 23 -9 35 -11s24.333 -3 37 -3c5.33301 0 11.666 0.666992 18.999 2s14.333 3.83301 21 7.5s12.334 8.33398 17.001 14.001s7 12.5 7 20.5c0 13.333 -4.83301 23.166 -14.5 29.499s-22.834 9.5 -39.501 9.5c-14.667 0 -29 -2.66699 -43 -8l-18 15l51 81
c-40 2 -78.5 11.5 -115.5 28.5s-67.167 42.167 -90.5 75.5l62 46c15.333 -25.333 36.833 -46.5 64.5 -63.5s60.167 -25.5 97.5 -25.5c18 0 36.333 2.83301 55 8.5s35.5 14.334 50.5 26.001s27.333 26 37 43s14.5 36.833 14.5 59.5c0 24.667 -4.83301 45.167 -14.5 61.5
s-22.5 30 -38.5 41s-34.333 20.167 -55 27.5l-65 22c-23.333 7.33301 -46.333 15.666 -69 24.999s-43 21.5 -61 36.5s-32.5 33.5 -43.5 55.5s-16.5 49 -16.5 81c0 34 6.83301 63.333 20.5 88s31.5 45 53.5 61s46.333 27.667 73 35s53 11 79 11c48 0 89 -8.5 123 -25.5
s59.667 -37.167 77 -60.5z" />
    <glyph glyph-name="scedilla" unicode="&#x15f;" horiz-adv-x="444" 
d="M339 357c-10 19.333 -25.166 35.168 -45.499 47.501s-43.5 18.5 -69.5 18.5c-12 0 -24 -1.33301 -36 -4s-22.667 -7 -32 -13s-16.833 -13.667 -22.5 -23s-8.5 -20.333 -8.5 -33c0 -22 9 -38.833 27 -50.5s46.333 -21.5 85 -29.5
c55.333 -11.333 96.166 -27.833 122.499 -49.5s39.5 -50.834 39.5 -87.501c0 -24 -4.16699 -44.5 -12.5 -61.5s-19.333 -31.167 -33 -42.5s-29.334 -20.166 -47.001 -26.499s-36.167 -10.5 -55.5 -12.5l-40 -65c8.66699 2.66699 20.334 4 35.001 4c20 0 38.667 -6 56 -18
s26 -30 26 -54c0 -16.667 -3.66699 -30.667 -11 -42s-16.666 -20.333 -27.999 -27s-24 -11.334 -38 -14.001s-27.667 -4 -41 -4s-28.833 1.66699 -46.5 5s-33.5 8.33301 -47.5 15l16 36c11.333 -5.33301 23 -9 35 -11s24.333 -3 37 -3c5.33301 0 11.666 0.666992 18.999 2
s14.333 3.83301 21 7.5s12.334 8.33398 17.001 14.001s7 12.5 7 20.5c0 13.333 -4.83301 23.166 -14.5 29.499s-22.834 9.5 -39.501 9.5c-14.667 0 -29 -2.66699 -43 -8l-18 15l54 87c-32.667 2 -64 10 -94 24s-55 36 -75 66l54 40c12 -20.667 29.667 -38 53 -52
s49 -21 77 -21c14.667 0 28.667 1.33301 42 4s25 7.33398 35 14.001s18 15.167 24 25.5s9 23.166 9 38.499c0 24.667 -11.833 43.167 -35.5 55.5s-57.834 23.833 -102.501 34.5c-14 3.33301 -28.833 7.5 -44.5 12.5s-30.167 12.333 -43.5 22s-24.333 21.834 -33 36.501
s-13 33 -13 55c0 24 4.66699 44.5 14 61.5s21.833 31 37.5 42s33.5 19.167 53.5 24.5s40.667 8 62 8c32.667 0 64.334 -7.33301 95.001 -22s53.667 -35.334 69 -62.001z" />
    <glyph glyph-name="Scaron" unicode="&#x160;" horiz-adv-x="564" 
d="M437 594c-15.333 21.333 -34.998 38.5039 -58.998 51.5039s-53 19.5 -87 19.5c-17.333 0 -35 -2.66699 -53 -8s-34.333 -13.5 -49 -24.5s-26.5 -24.833 -35.5 -41.5s-13.5 -36.334 -13.5 -59.001s4.33301 -41.334 13 -56.001s20.167 -27.167 34.5 -37.5
s30.666 -18.833 48.999 -25.5l57.5 -20c24.667 -8 49.5 -16.667 74.5 -26s47.5 -21.5 67.5 -36.5s36.333 -34 49 -57s19 -52.167 19 -87.5s-6.83301 -65.833 -20.5 -91.5s-31.334 -46.834 -53.001 -63.501s-46.334 -29 -74.001 -37s-55.5 -12 -83.5 -12
c-21.333 0 -42.666 2.16699 -63.999 6.5s-41.666 10.833 -60.999 19.5s-37.333 19.667 -54 33s-31.334 28.666 -44.001 45.999l62 46c15.333 -25.333 36.833 -46.5 64.5 -63.5s60.167 -25.5 97.5 -25.5c18 0 36.333 2.83301 55 8.5s35.5 14.334 50.5 26.001s27.333 26 37 43
s14.5 36.833 14.5 59.5c0 24.667 -4.83301 45.167 -14.5 61.5s-22.5 30 -38.5 41s-34.333 20.167 -55 27.5l-65 22c-23.333 7.33301 -46.333 15.666 -69 24.999s-43 21.5 -61 36.5s-32.5 33.5 -43.5 55.5s-16.5 49 -16.5 81c0 34 6.83301 63.333 20.5 88s31.5 45 53.5 61
s46.333 27.667 73 35s53 11 79 11c48 0 89 -8.5 123 -25.5s59.667 -37.167 77 -60.5zM326.002 764.004h-80l-109 144h66l83 -108l83 108h66z" />
    <glyph glyph-name="scaron" unicode="&#x161;" horiz-adv-x="444" 
d="M339 357c-10 19.333 -25.168 35.168 -45.501 47.501s-43.5 18.5 -69.5 18.5c-12 0 -24 -1.33301 -36 -4s-22.667 -7 -32 -13s-16.833 -13.667 -22.5 -23s-8.5 -20.333 -8.5 -33c0 -22 9 -38.833 27 -50.5s46.333 -21.5 85 -29.5
c55.333 -11.333 96.166 -27.833 122.499 -49.5s39.5 -50.834 39.5 -87.501c0 -26.667 -5.16699 -49.167 -15.5 -67.5s-23.833 -33.333 -40.5 -45s-35.5 -20 -56.5 -25s-42.167 -7.5 -63.5 -7.5c-35.333 0 -69.666 7.33301 -102.999 22s-60.666 37.667 -81.999 69l54 40
c12 -20.667 29.667 -38 53 -52s49 -21 77 -21c14.667 0 28.667 1.33301 42 4s25 7.33398 35 14.001s18 15.167 24 25.5s9 23.166 9 38.499c0 24.667 -11.833 43.167 -35.5 55.5s-57.834 23.833 -102.501 34.5c-14 3.33301 -28.833 7.5 -44.5 12.5s-30.167 12.333 -43.5 22
s-24.333 21.834 -33 36.501s-13 33 -13 55c0 24 4.66699 44.5 14 61.5s21.833 31 37.5 42s33.5 19.167 53.5 24.5s40.667 8 62 8c32.667 0 64.334 -7.33301 95.001 -22s53.667 -35.334 69 -62.001zM269.999 564.002h-80l-109 144h66l83 -108l83 108h66z" />
    <glyph glyph-name="Tcommaaccent" unicode="&#x162;" horiz-adv-x="570" 
d="M321 0h-72v644h-237v64h546v-64h-237v-644zM262 -230h-57l62 185h71z" />
    <glyph glyph-name="tcommaaccent" unicode="&#x163;" horiz-adv-x="317" 
d="M301 411l-131.997 -0.00292969v-273c0 -17.333 1.66699 -31.666 5 -42.999s8.16602 -20.166 14.499 -26.499s13.833 -10.666 22.5 -12.999s18 -3.5 28 -3.5c9.33301 0 19.166 1.33301 29.499 4s20.166 6.33398 29.499 11.001l3 -59
c-12 -4.66699 -24.5 -8.16699 -37.5 -10.5s-27.167 -3.5 -42.5 -3.5c-12.667 0 -26 1.66699 -40 5s-27 9.66602 -39 18.999s-21.833 22 -29.5 38s-11.5 37 -11.5 63v292h-97v57h97v132h68v-132h132v-57zM174.003 -230.003h-57l62 185h71z" />
    <glyph glyph-name="Tcaron" unicode="&#x164;" horiz-adv-x="570" 
d="M321 0h-72v644h-237v64h546v-64h-237v-644zM325 764h-80l-109 144h66l83 -108l83 108h66z" />
    <glyph glyph-name="tcaron" unicode="&#x165;" horiz-adv-x="317" 
d="M301 411l-131.997 -0.00292969v-273c0 -17.333 1.66699 -31.666 5 -42.999s8.16602 -20.166 14.499 -26.499s13.833 -10.666 22.5 -12.999s18 -3.5 28 -3.5c9.33301 0 19.166 1.33301 29.499 4s20.166 6.33398 29.499 11.001l3 -59
c-12 -4.66699 -24.5 -8.16699 -37.5 -10.5s-27.167 -3.5 -42.5 -3.5c-12.667 0 -26 1.66699 -40 5s-27 9.66602 -39 18.999s-21.833 22 -29.5 38s-11.5 37 -11.5 63v292h-97v57h97v132h68v-132h132v-57zM282.003 545.997h-57l62 185h71z" />
    <glyph glyph-name="Tbar" unicode="&#x166;" horiz-adv-x="570" 
d="M249 543v101h-237v64h546v-64h-237v-101h166v-50h-166v-493h-72v493h-176v50h176z" />
    <glyph glyph-name="tbar" unicode="&#x167;" horiz-adv-x="317" 
d="M101 314l0.00292969 96.9971h-97v57h97v132h68v-132h132v-57h-132v-97h123v-50h-123v-126c0 -17.333 1.66699 -31.666 5 -42.999s8.16602 -20.166 14.499 -26.499s13.833 -10.666 22.5 -12.999s18 -3.5 28 -3.5c9.33301 0 19.166 1.33301 29.499 4
s20.166 6.33398 29.499 11.001l3 -59c-12 -4.66699 -24.5 -8.16699 -37.5 -10.5s-27.167 -3.5 -42.5 -3.5c-12.667 0 -26 1.66699 -40 5s-27 9.66602 -39 18.999s-21.833 22 -29.5 38s-11.5 37 -11.5 63v145h-89v50h89z" />
    <glyph glyph-name="Utilde" unicode="&#x168;" horiz-adv-x="710" 
d="M355 -18c-53.333 0 -97 9.16699 -131 27.5s-61 41.5 -81 69.5s-33.833 58.5 -41.5 91.5s-11.5 64.167 -11.5 93.5v444h72v-436c0 -28.667 3.33301 -56.5 10 -83.5s17.5 -51 32.5 -72s34.833 -38 59.5 -51s55 -19.5 91 -19.5s66.333 6.5 91 19.5s44.5 30 59.5 51
s25.833 45 32.5 72s10 54.833 10 83.5v436h72v-444c0 -29.333 -3.83301 -60.5 -11.5 -93.5s-21.5 -63.5 -41.5 -91.5s-47.167 -51.167 -81.5 -69.5s-77.833 -27.5 -130.5 -27.5zM193 776c2 12.667 5.16895 25.3311 9.50195 37.998s10.166 23.834 17.499 33.501
s16.166 17.5 26.499 23.5s23.166 9 38.499 9c12 0 24.167 -2.33301 36.5 -7s24.5 -10 36.5 -16l35 -15.5c11.333 -5 22 -7.5 32 -7.5c15.333 0 26.5 5.16699 33.5 15.5s12.167 21.833 15.5 34.5h43c-2 -13.333 -5.16699 -26.166 -9.5 -38.499s-10.166 -23.333 -17.499 -33
s-16.333 -17.5 -27 -23.5s-23.334 -9 -38.001 -9c-12 0 -24.333 2.33301 -37 7s-24.667 10 -36 16s-22.666 11.333 -33.999 16s-22.333 7 -33 7c-15.333 0 -26.5 -5.16699 -33.5 -15.5s-12.167 -21.833 -15.5 -34.5h-43z" />
    <glyph glyph-name="utilde" unicode="&#x169;" horiz-adv-x="581" 
d="M430 0c-1.33301 12.667 -2.33301 26.667 -3 42s-1 28 -1 38h-2c-13.333 -27.333 -35 -49.5 -65 -66.5s-61.667 -25.5 -95 -25.5c-59.333 0 -103.833 17.667 -133.5 53s-44.5 82 -44.5 140v287h68v-259c0 -24.667 2 -47 6 -67s10.833 -37.167 20.5 -51.5
s22.667 -25.5 39 -33.5s36.833 -12 61.5 -12c18 0 35.5 3.66699 52.5 11s32.167 18.5 45.5 33.5s24 34 32 57s12 50.167 12 81.5v240h68v-365c0 -12.667 0.333008 -29 1 -49s1.66699 -38 3 -54h-65zM129 576c2 12.667 5.16895 25.3311 9.50195 37.998
s10.166 23.834 17.499 33.501s16.166 17.5 26.499 23.5s23.166 9 38.499 9c12 0 24.167 -2.33301 36.5 -7s24.5 -10 36.5 -16l35 -15.5c11.333 -5 22 -7.5 32 -7.5c15.333 0 26.5 5.16699 33.5 15.5s12.167 21.833 15.5 34.5h43c-2 -13.333 -5.16699 -26.166 -9.5 -38.499
s-10.166 -23.333 -17.499 -33s-16.333 -17.5 -27 -23.5s-23.334 -9 -38.001 -9c-12 0 -24.333 2.33301 -37 7s-24.667 10 -36 16s-22.666 11.333 -33.999 16s-22.333 7 -33 7c-15.333 0 -26.5 -5.16699 -33.5 -15.5s-12.167 -21.833 -15.5 -34.5h-43z" />
    <glyph glyph-name="Umacron" unicode="&#x16a;" horiz-adv-x="710" 
d="M355 -18c-53.333 0 -97 9.16699 -131 27.5s-61 41.5 -81 69.5s-33.833 58.5 -41.5 91.5s-11.5 64.167 -11.5 93.5v444h72v-436c0 -28.667 3.33301 -56.5 10 -83.5s17.5 -51 32.5 -72s34.833 -38 59.5 -51s55 -19.5 91 -19.5s66.333 6.5 91 19.5s44.5 30 59.5 51
s25.833 45 32.5 72s10 54.833 10 83.5v436h72v-444c0 -29.333 -3.83301 -60.5 -11.5 -93.5s-21.5 -63.5 -41.5 -91.5s-47.167 -51.167 -81.5 -69.5s-77.833 -27.5 -130.5 -27.5zM491 800h-270v54h270v-54z" />
    <glyph glyph-name="umacron" unicode="&#x16b;" horiz-adv-x="581" 
d="M430 0c-1.33301 12.667 -2.33301 26.667 -3 42s-1 28 -1 38h-2c-13.333 -27.333 -35 -49.5 -65 -66.5s-61.667 -25.5 -95 -25.5c-59.333 0 -103.833 17.667 -133.5 53s-44.5 82 -44.5 140v287h68v-259c0 -24.667 2 -47 6 -67s10.833 -37.167 20.5 -51.5
s22.667 -25.5 39 -33.5s36.833 -12 61.5 -12c18 0 35.5 3.66699 52.5 11s32.167 18.5 45.5 33.5s24 34 32 57s12 50.167 12 81.5v240h68v-365c0 -12.667 0.333008 -29 1 -49s1.66699 -38 3 -54h-65zM425 600h-270v54h270v-54z" />
    <glyph glyph-name="Ubreve" unicode="&#x16c;" horiz-adv-x="710" 
d="M355 -18c-53.333 0 -97 9.16699 -131 27.5s-61 41.5 -81 69.5s-33.833 58.5 -41.5 91.5s-11.5 64.167 -11.5 93.5v444h72v-436c0 -28.667 3.33301 -56.5 10 -83.5s17.5 -51 32.5 -72s34.833 -38 59.5 -51s55 -19.5 91 -19.5s66.333 6.5 91 19.5s44.5 30 59.5 51
s25.833 45 32.5 72s10 54.833 10 83.5v436h72v-444c0 -29.333 -3.83301 -60.5 -11.5 -93.5s-21.5 -63.5 -41.5 -91.5s-47.167 -51.167 -81.5 -69.5s-77.833 -27.5 -130.5 -27.5zM502 908c-2.66699 -42 -17.498 -74.5 -44.498 -97.5s-61.167 -34.5 -102.5 -34.5
s-75.5 11.5 -102.5 34.5s-41.833 55.5 -44.5 97.5h44c4.66699 -26 16.667 -45.5 36 -58.5s41.666 -19.5 66.999 -19.5s47.666 6.5 66.999 19.5s31.333 32.5 36 58.5h44z" />
    <glyph glyph-name="ubreve" unicode="&#x16d;" horiz-adv-x="581" 
d="M430 0c-1.33301 12.667 -2.33301 26.667 -3 42s-1 28 -1 38h-2c-13.333 -27.333 -35 -49.5 -65 -66.5s-61.667 -25.5 -95 -25.5c-59.333 0 -103.833 17.667 -133.5 53s-44.5 82 -44.5 140v287h68v-259c0 -24.667 2 -47 6 -67s10.833 -37.167 20.5 -51.5
s22.667 -25.5 39 -33.5s36.833 -12 61.5 -12c18 0 35.5 3.66699 52.5 11s32.167 18.5 45.5 33.5s24 34 32 57s12 50.167 12 81.5v240h68v-365c0 -12.667 0.333008 -29 1 -49s1.66699 -38 3 -54h-65zM439 708c-2.66699 -42 -17.498 -74.5 -44.498 -97.5
s-61.167 -34.5 -102.5 -34.5s-75.5 11.5 -102.5 34.5s-41.833 55.5 -44.5 97.5h44c4.66699 -26 16.667 -45.5 36 -58.5s41.666 -19.5 66.999 -19.5s47.666 6.5 66.999 19.5s31.333 32.5 36 58.5h44z" />
    <glyph glyph-name="Uring" unicode="&#x16e;" horiz-adv-x="710" 
d="M355 -18c-53.333 0 -97 9.16699 -131 27.5s-61 41.5 -81 69.5s-33.833 58.5 -41.5 91.5s-11.5 64.167 -11.5 93.5v444h72v-436c0 -28.667 3.33301 -56.5 10 -83.5s17.5 -51 32.5 -72s34.833 -38 59.5 -51s55 -19.5 91 -19.5s66.333 6.5 91 19.5s44.5 30 59.5 51
s25.833 45 32.5 72s10 54.833 10 83.5v436h72v-444c0 -29.333 -3.83301 -60.5 -11.5 -93.5s-21.5 -63.5 -41.5 -91.5s-47.167 -51.167 -81.5 -69.5s-77.833 -27.5 -130.5 -27.5zM453 850c0 -13.333 -2.5 -25.833 -7.5 -37.5s-12 -21.834 -21 -30.501
s-19.333 -15.334 -31 -20.001s-23.834 -7 -36.501 -7c-13.333 0 -25.666 2.33301 -36.999 7s-21.5 11.334 -30.5 20.001s-16 18.834 -21 30.501s-7.5 24.167 -7.5 37.5s2.5 25.833 7.5 37.5s12 21.667 21 30s19.167 15 30.5 20s23.666 7.5 36.999 7.5
c12.667 0 24.834 -2.5 36.501 -7.5s22 -11.667 31 -20s16 -18.333 21 -30s7.5 -24.167 7.5 -37.5zM417 850c0 16.667 -5.83301 30.667 -17.5 42s-25.834 17 -42.501 17s-30.834 -5.66699 -42.501 -17s-17.5 -25.333 -17.5 -42s5.83301 -30.667 17.5 -42
s25.834 -17 42.501 -17s30.834 5.66699 42.501 17s17.5 25.333 17.5 42z" />
    <glyph glyph-name="uring" unicode="&#x16f;" horiz-adv-x="581" 
d="M430 0c-1.33301 12.667 -2.33301 26.667 -3 42s-1 28 -1 38h-2c-13.333 -27.333 -35 -49.5 -65 -66.5s-61.667 -25.5 -95 -25.5c-59.333 0 -103.833 17.667 -133.5 53s-44.5 82 -44.5 140v287h68v-259c0 -24.667 2 -47 6 -67s10.833 -37.167 20.5 -51.5
s22.667 -25.5 39 -33.5s36.833 -12 61.5 -12c18 0 35.5 3.66699 52.5 11s32.167 18.5 45.5 33.5s24 34 32 57s12 50.167 12 81.5v240h68v-365c0 -12.667 0.333008 -29 1 -49s1.66699 -38 3 -54h-65zM386 650c0 -13.333 -2.5 -25.833 -7.5 -37.5s-12 -21.834 -21 -30.501
s-19.333 -15.334 -31 -20.001s-23.834 -7 -36.501 -7c-13.333 0 -25.666 2.33301 -36.999 7s-21.5 11.334 -30.5 20.001s-16 18.834 -21 30.501s-7.5 24.167 -7.5 37.5s2.5 25.833 7.5 37.5s12 21.667 21 30s19.167 15 30.5 20s23.666 7.5 36.999 7.5
c12.667 0 24.834 -2.5 36.501 -7.5s22 -11.667 31 -20s16 -18.333 21 -30s7.5 -24.167 7.5 -37.5zM350 650c0 16.667 -5.83301 30.667 -17.5 42s-25.834 17 -42.501 17s-30.834 -5.66699 -42.501 -17s-17.5 -25.333 -17.5 -42s5.83301 -30.667 17.5 -42
s25.834 -17 42.501 -17s30.834 5.66699 42.501 17s17.5 25.333 17.5 42z" />
    <glyph glyph-name="Uhungarumlaut" unicode="&#x170;" horiz-adv-x="710" 
d="M355 -18c-53.333 0 -97 9.16699 -131 27.5s-61 41.5 -81 69.5s-33.833 58.5 -41.5 91.5s-11.5 64.167 -11.5 93.5v444h72v-436c0 -28.667 3.33301 -56.5 10 -83.5s17.5 -51 32.5 -72s34.833 -38 59.5 -51s55 -19.5 91 -19.5s66.333 6.5 91 19.5s44.5 30 59.5 51
s25.833 45 32.5 72s10 54.833 10 83.5v436h72v-444c0 -29.333 -3.83301 -60.5 -11.5 -93.5s-21.5 -63.5 -41.5 -91.5s-47.167 -51.167 -81.5 -69.5s-77.833 -27.5 -130.5 -27.5zM292 764h-59l101 144h91zM463 764h-59l100 144h91z" />
    <glyph glyph-name="uhungarumlaut" unicode="&#x171;" horiz-adv-x="581" 
d="M430 0c-1.33301 12.667 -2.33301 26.667 -3 42s-1 28 -1 38h-2c-13.333 -27.333 -35 -49.5 -65 -66.5s-61.667 -25.5 -95 -25.5c-59.333 0 -103.833 17.667 -133.5 53s-44.5 82 -44.5 140v287h68v-259c0 -24.667 2 -47 6 -67s10.833 -37.167 20.5 -51.5
s22.667 -25.5 39 -33.5s36.833 -12 61.5 -12c18 0 35.5 3.66699 52.5 11s32.167 18.5 45.5 33.5s24 34 32 57s12 50.167 12 81.5v240h68v-365c0 -12.667 0.333008 -29 1 -49s1.66699 -38 3 -54h-65zM229 564h-59l101 144h91zM400 564h-59l100 144h91z" />
    <glyph glyph-name="Uogonek" unicode="&#x172;" horiz-adv-x="710" 
d="M355 -18c-53.333 0 -97 9.16406 -131 27.4971s-61 41.5 -81 69.5s-33.833 58.5 -41.5 91.5s-11.5 64.167 -11.5 93.5v444h72v-436c0 -28.667 3.33301 -56.5 10 -83.5s17.5 -51 32.5 -72s34.833 -38 59.5 -51s55 -19.5 91 -19.5s66.333 6.5 91 19.5s44.5 30 59.5 51
s25.833 45 32.5 72s10 54.833 10 83.5v436h72v-444c0 -26.667 -3 -54.667 -9 -84s-16.833 -57.166 -32.5 -83.499s-36.667 -49.5 -63 -69.5s-59.5 -33.333 -99.5 -40c-20.667 -21.333 -36.5 -40.166 -47.5 -56.499s-16.5 -33.5 -16.5 -51.5c0 -14 5 -25.5 15 -34.5
s21.667 -13.5 35 -13.5c9.33301 0 18.5 1.83301 27.5 5.5s16.833 9.16699 23.5 16.5l19 -40c-11.333 -11.333 -25 -20.166 -41 -26.499s-32.333 -9.5 -49 -9.5c-12 0 -23.333 2 -34 6s-20.167 9.83301 -28.5 17.5s-15 16.667 -20 27s-7.5 21.833 -7.5 34.5
c0 23.333 7 45.333 21 66s29.667 38.667 47 54h-5v0z" />
    <glyph glyph-name="uogonek" unicode="&#x173;" horiz-adv-x="581" 
d="M522 -187c-11.333 -11.333 -25.001 -20.168 -41.001 -26.501s-32.333 -9.5 -49 -9.5c-12 0 -23.333 2 -34 6s-20.167 9.83301 -28.5 17.5s-15 16.667 -20 27s-7.5 21.833 -7.5 34.5c0 14 2.66699 27.5 8 40.5s12.333 25.333 21 37s18.334 22.667 29.001 33
s21 19.5 31 27.5h-1c-1.33301 12.667 -2.33301 26.667 -3 42s-1 28 -1 38h-2c-13.333 -27.333 -35 -49.5 -65 -66.5s-61.667 -25.5 -95 -25.5c-59.333 0 -103.833 17.667 -133.5 53s-44.5 82 -44.5 140v287h68v-259c0 -24.667 2 -47 6 -67s10.833 -37.167 20.5 -51.5
s22.667 -25.5 39 -33.5s36.833 -12 61.5 -12c18 0 35.5 3.66699 52.5 11s32.167 18.5 45.5 33.5s24 34 32 57s12 50.167 12 81.5v240h68v-365c0 -12.667 0.333008 -29 1 -49s1.66699 -38 3 -54h-16c-24.667 -24.667 -43.667 -46.167 -57 -64.5s-20 -37.166 -20 -56.499
c0 -14 5 -25.5 15 -34.5s21.667 -13.5 35 -13.5c9.33301 0 18.5 1.83301 27.5 5.5s16.833 9.16699 23.5 16.5z" />
    <glyph glyph-name="Wcircumflex" unicode="&#x174;" horiz-adv-x="972" 
d="M265 99h2l177 609h86l177 -609h2l173 609h76l-209 -708h-84l-178 608h-2l-178 -608h-84l-209 708h76zM635 764h-66l-83 108l-83 -108h-66l109 144h80z" />
    <glyph glyph-name="wcircumflex" unicode="&#x175;" horiz-adv-x="746" 
d="M99 468l113 -380h2l126 380h66l128 -380h2l112 380h72l-148 -468h-74l-125 379h-2l-123 -379h-74l-148 468h73zM521 564h-66l-83 108l-83 -108h-66l109 144h80z" />
    <glyph glyph-name="Ycircumflex" unicode="&#x176;" horiz-adv-x="602" 
d="M337 0h-72v305l-265 403h90l213 -343l215 343h84l-265 -403v-305zM452 764h-66l-83 108l-83 -108h-66l109 144h80z" />
    <glyph glyph-name="ycircumflex" unicode="&#x177;" horiz-adv-x="488" 
d="M251 73h2.00195l145 395h74l-233 -589c-14 -36 -31.833 -64.833 -53.5 -86.5s-52.834 -32.5 -93.501 -32.5c-20.667 0 -41 2 -61 6l7 62c16 -5.33301 32.667 -8 50 -8c23.333 0 41.666 7.16699 54.999 21.5s25 34.833 35 61.5l38 98l-200 467h76zM401.002 564h-66
l-83 108l-83 -108h-66l109 144h80z" />
    <glyph glyph-name="Ydieresis" unicode="&#x178;" horiz-adv-x="602" 
d="M337 0h-72v305l-265 403h90l213 -343l215 343h84l-265 -403v-305zM156 847c0 13.333 4.66699 25.166 14 35.499s21.666 15.5 36.999 15.5s27.666 -5.16699 36.999 -15.5s14 -22.166 14 -35.499s-4.66699 -25.166 -14 -35.499s-21.666 -15.5 -36.999 -15.5
s-27.666 5.16699 -36.999 15.5s-14 22.166 -14 35.499zM348 847c0 13.333 4.66699 25.166 14 35.499s21.666 15.5 36.999 15.5s27.666 -5.16699 36.999 -15.5s14 -22.166 14 -35.499s-4.66699 -25.166 -14 -35.499s-21.666 -15.5 -36.999 -15.5
s-27.666 5.16699 -36.999 15.5s-14 22.166 -14 35.499z" />
    <glyph glyph-name="Zacute" unicode="&#x179;" horiz-adv-x="572" 
d="M535 648l-413 -584h419v-64h-510v60l414 584h-403v64h493v-60zM299 764h-59l100 144h91z" />
    <glyph glyph-name="zacute" unicode="&#x17a;" horiz-adv-x="442" 
d="M401 420l-280 -361h290v-59h-380v48l279 363h-265v57h356v-48zM241 564h-59l100 144h91z" />
    <glyph glyph-name="Zdotaccent" unicode="&#x17b;" horiz-adv-x="572" 
d="M535 648l-413 -584h419v-64h-510v60l414 584h-403v64h493v-60zM333 848c0 -14 -5 -25.5 -15 -34.5s-21 -13.5 -33 -13.5s-23 4.5 -33 13.5s-15 20.5 -15 34.5s5 25.5 15 34.5s21 13.5 33 13.5s23 -4.5 33 -13.5s15 -20.5 15 -34.5z" />
    <glyph glyph-name="zdotaccent" unicode="&#x17c;" horiz-adv-x="442" 
d="M401 420l-280 -361h290v-59h-380v48l279 363h-265v57h356v-48zM270 648c0 -14 -5 -25.5 -15 -34.5s-21 -13.5 -33 -13.5s-23 4.5 -33 13.5s-15 20.5 -15 34.5s5 25.5 15 34.5s21 13.5 33 13.5s23 -4.5 33 -13.5s15 -20.5 15 -34.5z" />
    <glyph glyph-name="Zcaron" unicode="&#x17d;" horiz-adv-x="572" 
d="M535 648l-413 -584h419v-64h-510v60l414 584h-403v64h493v-60zM327 764h-80l-109 144h66l83 -108l83 108h66z" />
    <glyph glyph-name="zcaron" unicode="&#x17e;" horiz-adv-x="442" 
d="M401 420l-280 -361h290v-59h-380v48l279 363h-265v57h356v-48zM265 564h-80l-109 144h66l83 -108l83 108h66z" />
    <glyph glyph-name="florin" unicode="&#x192;" horiz-adv-x="580" 
d="M442 365l-118.992 -0.00292969l-67 -352c-3.33301 -18 -8.33301 -36 -15 -54s-15.834 -34.333 -27.501 -49s-26.667 -26.5 -45 -35.5s-40.833 -13.5 -67.5 -13.5c-14.667 0 -28.334 1.16699 -41.001 3.5s-25 7.16602 -37 14.499l27 55c16 -8.66699 33.667 -13 53 -13
c15.333 0 28 3.16699 38 9.5s18.167 14.5 24.5 24.5s11.333 21.333 15 34s6.5 25.334 8.5 38.001l63 338h-108v54h119l27 144c4 20.667 9.33301 40.334 16 59.001s16 35.334 28 50.001s26.667 26.334 44 35.001s38.666 13 63.999 13c17.333 0 34.166 -2.5 50.499 -7.5
s31.166 -12.167 44.499 -21.5l-34 -48c-8.66699 6 -17.834 10.333 -27.501 13s-19.5 4 -29.5 4c-16.667 0 -30.334 -4 -41.001 -12s-19.334 -18 -26.001 -30s-11.667 -24.667 -15 -38s-6 -25.333 -8 -36l-22 -125h108v-54z" />
    <glyph glyph-name="Scommaaccent" unicode="&#x218;" horiz-adv-x="564" 
d="M437 594c-15.333 21.333 -34.998 38.5039 -58.998 51.5039s-53 19.5 -87 19.5c-17.333 0 -35 -2.66699 -53 -8s-34.333 -13.5 -49 -24.5s-26.5 -24.833 -35.5 -41.5s-13.5 -36.334 -13.5 -59.001s4.33301 -41.334 13 -56.001s20.167 -27.167 34.5 -37.5
s30.666 -18.833 48.999 -25.5l57.5 -20c24.667 -8 49.5 -16.667 74.5 -26s47.5 -21.5 67.5 -36.5s36.333 -34 49 -57s19 -52.167 19 -87.5s-6.83301 -65.833 -20.5 -91.5s-31.334 -46.834 -53.001 -63.501s-46.334 -29 -74.001 -37s-55.5 -12 -83.5 -12
c-21.333 0 -42.666 2.16699 -63.999 6.5s-41.666 10.833 -60.999 19.5s-37.333 19.667 -54 33s-31.334 28.666 -44.001 45.999l62 46c15.333 -25.333 36.833 -46.5 64.5 -63.5s60.167 -25.5 97.5 -25.5c18 0 36.333 2.83301 55 8.5s35.5 14.334 50.5 26.001s27.333 26 37 43
s14.5 36.833 14.5 59.5c0 24.667 -4.83301 45.167 -14.5 61.5s-22.5 30 -38.5 41s-34.333 20.167 -55 27.5l-65 22c-23.333 7.33301 -46.333 15.666 -69 24.999s-43 21.5 -61 36.5s-32.5 33.5 -43.5 55.5s-16.5 49 -16.5 81c0 34 6.83301 63.333 20.5 88s31.5 45 53.5 61
s46.333 27.667 73 35s53 11 79 11c48 0 89 -8.5 123 -25.5s59.667 -37.167 77 -60.5zM262.002 -229.996h-57l62 185h71z" />
    <glyph glyph-name="scommaaccent" unicode="&#x219;" horiz-adv-x="444" 
d="M339 357c-10 19.333 -25.168 35.168 -45.501 47.501s-43.5 18.5 -69.5 18.5c-12 0 -24 -1.33301 -36 -4s-22.667 -7 -32 -13s-16.833 -13.667 -22.5 -23s-8.5 -20.333 -8.5 -33c0 -22 9 -38.833 27 -50.5s46.333 -21.5 85 -29.5
c55.333 -11.333 96.166 -27.833 122.499 -49.5s39.5 -50.834 39.5 -87.501c0 -26.667 -5.16699 -49.167 -15.5 -67.5s-23.833 -33.333 -40.5 -45s-35.5 -20 -56.5 -25s-42.167 -7.5 -63.5 -7.5c-35.333 0 -69.666 7.33301 -102.999 22s-60.666 37.667 -81.999 69l54 40
c12 -20.667 29.667 -38 53 -52s49 -21 77 -21c14.667 0 28.667 1.33301 42 4s25 7.33398 35 14.001s18 15.167 24 25.5s9 23.166 9 38.499c0 24.667 -11.833 43.167 -35.5 55.5s-57.834 23.833 -102.501 34.5c-14 3.33301 -28.833 7.5 -44.5 12.5s-30.167 12.333 -43.5 22
s-24.333 21.834 -33 36.501s-13 33 -13 55c0 24 4.66699 44.5 14 61.5s21.833 31 37.5 42s33.5 19.167 53.5 24.5s40.667 8 62 8c32.667 0 64.334 -7.33301 95.001 -22s53.667 -35.334 69 -62.001zM196.999 -229.998h-57l62 185h71z" />
    <glyph glyph-name="uni021A" unicode="&#x21a;" horiz-adv-x="570" 
d="M321 0h-72v644h-237v64h546v-64h-237v-644zM262 -230h-57l62 185h71z" />
    <glyph glyph-name="uni021B" unicode="&#x21b;" horiz-adv-x="317" 
d="M301 411l-131.997 -0.00292969v-273c0 -17.333 1.66699 -31.666 5 -42.999s8.16602 -20.166 14.499 -26.499s13.833 -10.666 22.5 -12.999s18 -3.5 28 -3.5c9.33301 0 19.166 1.33301 29.499 4s20.166 6.33398 29.499 11.001l3 -59
c-12 -4.66699 -24.5 -8.16699 -37.5 -10.5s-27.167 -3.5 -42.5 -3.5c-12.667 0 -26 1.66699 -40 5s-27 9.66602 -39 18.999s-21.833 22 -29.5 38s-11.5 37 -11.5 63v292h-97v57h97v132h68v-132h132v-57zM174.003 -230.003h-57l62 185h71z" />
    <glyph glyph-name="circumflex" unicode="&#x2c6;" 
d="M269 564h-66l-83 108l-83 -108h-66l109 144h80z" />
    <glyph glyph-name="caron" unicode="&#x2c7;" 
d="M160 564h-80l-109 144h66l83 -108l83 108h66z" />
    <glyph glyph-name="uni02C9" unicode="&#x2c9;" 
d="M255 800h-270v54h270v-54z" />
    <glyph glyph-name="breve" unicode="&#x2d8;" 
d="M267 708c-2.66699 -42 -17.498 -74.5 -44.498 -97.5s-61.167 -34.5 -102.5 -34.5s-75.5 11.5 -102.5 34.5s-41.833 55.5 -44.5 97.5h44c4.66699 -26 16.667 -45.5 36 -58.5s41.666 -19.5 66.999 -19.5s47.666 6.5 66.999 19.5s31.333 32.5 36 58.5h44z" />
    <glyph glyph-name="dotaccent" unicode="&#x2d9;" 
d="M168 648c0 -14 -5 -25.5 -15 -34.5s-21 -13.5 -33 -13.5s-23 4.5 -33 13.5s-15 20.5 -15 34.5s5 25.5 15 34.5s21 13.5 33 13.5s23 -4.5 33 -13.5s15 -20.5 15 -34.5z" />
    <glyph glyph-name="ring" unicode="&#x2da;" 
d="M216 650c0 -13.333 -2.5 -25.833 -7.5 -37.5s-12 -21.834 -21 -30.501s-19.333 -15.334 -31 -20.001s-23.834 -7 -36.501 -7c-13.333 0 -25.666 2.33301 -36.999 7s-21.5 11.334 -30.5 20.001s-16 18.834 -21 30.501s-7.5 24.167 -7.5 37.5s2.5 25.833 7.5 37.5
s12 21.667 21 30s19.167 15 30.5 20s23.666 7.5 36.999 7.5c12.667 0 24.834 -2.5 36.501 -7.5s22 -11.667 31 -20s16 -18.333 21 -30s7.5 -24.167 7.5 -37.5zM180 650c0 16.667 -5.83301 30.667 -17.5 42s-25.834 17 -42.501 17s-30.834 -5.66699 -42.501 -17
s-17.5 -25.333 -17.5 -42s5.83301 -30.667 17.5 -42s25.834 -17 42.501 -17s30.834 5.66699 42.501 17s17.5 25.333 17.5 42z" />
    <glyph glyph-name="ogonek" unicode="&#x2db;" 
d="M210 -187c-11.333 -11.333 -25.001 -20.168 -41.001 -26.501s-32.333 -9.5 -49 -9.5c-12 0 -23.333 2 -34 6s-20.167 9.83301 -28.5 17.5s-15 16.667 -20 27s-7.5 21.833 -7.5 34.5c0 14 2.66699 27.5 8 40.5s12.333 25.333 21 37s18.334 22.667 29.001 33
s21 19.5 31 27.5h48c-24.667 -24.667 -43.667 -46.167 -57 -64.5s-20 -37.166 -20 -56.499c0 -14 5 -25.5 15 -34.5s21.667 -13.5 35 -13.5c9.33301 0 18.5 1.83301 27.5 5.5s16.833 9.16699 23.5 16.5z" />
    <glyph glyph-name="tilde" unicode="&#x2dc;" 
d="M-42 576c2 12.667 5.16895 25.3311 9.50195 37.998s10.166 23.834 17.499 33.501s16.166 17.5 26.499 23.5s23.166 9 38.499 9c12 0 24.167 -2.33301 36.5 -7s24.5 -10 36.5 -16l35 -15.5c11.333 -5 22 -7.5 32 -7.5c15.333 0 26.5 5.16699 33.5 15.5
s12.167 21.833 15.5 34.5h43c-2 -13.333 -5.16699 -26.166 -9.5 -38.499s-10.166 -23.333 -17.499 -33s-16.333 -17.5 -27 -23.5s-23.334 -9 -38.001 -9c-12 0 -24.333 2.33301 -37 7s-24.667 10 -36 16s-22.666 11.333 -33.999 16s-22.333 7 -33 7
c-15.333 0 -26.5 -5.16699 -33.5 -15.5s-12.167 -21.833 -15.5 -34.5h-43z" />
    <glyph glyph-name="hungarumlaut" unicode="&#x2dd;" 
d="M-2 564h-59l101 144h91zM169 564h-59l100 144h91z" />
    <glyph glyph-name="uni0394" unicode="&#x394;" horiz-adv-x="670" 
d="M15 0l281 712h74l287 -712h-642zM332 645l-226 -583h455z" />
    <glyph glyph-name="uni03A9" unicode="&#x3a9;" horiz-adv-x="744" 
d="M434 0l0.000976562 180.999c30 5.33301 56.5 14.833 79.5 28.5s42.333 30.834 58 51.501s27.334 44 35.001 70s11.5 54 11.5 84c0 36 -6.5 69 -19.5 99s-30.833 55.833 -53.5 77.5s-49.334 38.5 -80.001 50.5s-63.667 18 -99 18s-68.333 -6.16699 -99 -18.5
s-57.334 -29.333 -80.001 -51s-40.5 -47.5 -53.5 -77.5s-19.5 -62.667 -19.5 -98c0 -29.333 3.83301 -57.166 11.5 -83.499s19.334 -49.833 35.001 -70.5s35 -38 58 -52s49.5 -23.333 79.5 -28v-181h-251v58h197v82c-31.333 8.66699 -59.166 22 -83.499 40
s-45 39.167 -62 63.5s-29.833 51.166 -38.5 80.499s-13 60 -13 92c0 44.667 8.5 85.667 25.5 123s40.167 69.5 69.5 96.5s63.333 48 102 63s79.667 22.5 123 22.5s84.166 -7.5 122.499 -22.5s72 -36 101 -63s52 -59.167 69 -96.5s25.5 -78 25.5 -122
c0 -32 -4.33301 -62.833 -13 -92.5s-21.334 -56.667 -38.001 -81s-37.167 -45.5 -61.5 -63.5s-52.5 -31.333 -84.5 -40v-82h197v-58h-251z" />
    <glyph glyph-name="uni03BC" unicode="&#x3bc;" horiz-adv-x="556" 
d="M72 468l65.999 0.000976562v-259c0 -57.333 9.16699 -98.5 27.5 -123.5s51.5 -37.5 99.5 -37.5c20 0 38.667 4 56 12s32.333 19.667 45 35s22.667 34.166 30 56.499s11 47.833 11 76.5v240h66v-365c0 -17.333 0.5 -34.5 1.5 -51.5s2.16699 -34.167 3.5 -51.5h-71v76h-2
c-7.33301 -12 -16.666 -23.333 -27.999 -34s-24 -20 -38 -28s-28.833 -14.333 -44.5 -19s-31.167 -7 -46.5 -7c-46 0 -82.667 9.66699 -110 29v-245h-66v696z" />
    <glyph glyph-name="pi" unicode="&#x3c0;" horiz-adv-x="563" 
d="M530 11c-11.333 -5.33301 -21.833 -9.49902 -31.5 -12.499s-20.5 -4.5 -32.5 -4.5c-19.333 0 -34.5 3.16699 -45.5 9.5s-19 15 -24 26s-8 23.5 -9 37.5s-1.5 28.667 -1.5 44v298h-220v-409h-64v409h-70v59h494v-59h-76v-305c0 -14.667 1.83301 -27.334 5.5 -38.001
s14.5 -16 32.5 -16c13.333 0 27.333 3.33301 42 10v-49v0z" />
    <glyph glyph-name="endash" unicode="&#x2013;" horiz-adv-x="400" 
d="M370 214h-340v57h340v-57z" />
    <glyph glyph-name="emdash" unicode="&#x2014;" horiz-adv-x="600" 
d="M570 214h-540v57h540v-57z" />
    <glyph glyph-name="quoteleft" unicode="&#x2018;" horiz-adv-x="222" 
d="M123 708h57l-67 -235h-71z" />
    <glyph glyph-name="quoteright" unicode="&#x2019;" horiz-adv-x="222" 
d="M99 473h-57l67 235h71z" />
    <glyph glyph-name="quotesinglbase" unicode="&#x201a;" horiz-adv-x="222" 
d="M99 -140h-57l67 235h71z" />
    <glyph glyph-name="quotedblleft" unicode="&#x201c;" horiz-adv-x="387" 
d="M123 708h57l-67 -235h-71zM288 708h57l-67 -235h-71z" />
    <glyph glyph-name="quotedblright" unicode="&#x201d;" horiz-adv-x="387" 
d="M264 473h-57l67 235h71zM99 473h-57l67 235h71z" />
    <glyph glyph-name="quotedblbase" unicode="&#x201e;" horiz-adv-x="387" 
d="M264 -140h-57l67 235h71zM99 -140h-57l67 235h71z" />
    <glyph glyph-name="dagger" unicode="&#x2020;" horiz-adv-x="556" 
d="M311 504h204v-60h-204v-570h-66v570h-204v60h204v204h66v-204z" />
    <glyph glyph-name="daggerdbl" unicode="&#x2021;" horiz-adv-x="556" 
d="M311 516h195v-60h-195v-330h195v-60h-195v-192h-66v192h-195v60h195v330h-195v60h195v192h66v-192z" />
    <glyph glyph-name="bullet" unicode="&#x2022;" horiz-adv-x="500" 
d="M73 354c0 24.667 4.66699 47.667 14 69s22 40 38 56s34.667 28.667 56 38s44.333 14 69 14s47.667 -4.66699 69 -14s40 -22 56 -38s28.667 -34.667 38 -56s14 -44.333 14 -69s-4.66699 -47.667 -14 -69s-22 -40 -38 -56s-34.667 -28.667 -56 -38s-44.333 -14 -69 -14
s-47.667 4.66699 -69 14s-40 22 -56 38s-28.667 34.667 -38 56s-14 44.333 -14 69z" />
    <glyph glyph-name="ellipsis" unicode="&#x2026;" horiz-adv-x="1000" 
d="M221 48c0 -14 -5 -26.5 -15 -37.5s-23 -16.5 -39 -16.5s-29 5.5 -39 16.5s-15 23.5 -15 37.5s5 26.5 15 37.5s23 16.5 39 16.5s29 -5.5 39 -16.5s15 -23.5 15 -37.5zM554 48c0 -14 -5 -26.5 -15 -37.5s-23 -16.5 -39 -16.5s-29 5.5 -39 16.5s-15 23.5 -15 37.5
s5 26.5 15 37.5s23 16.5 39 16.5s29 -5.5 39 -16.5s15 -23.5 15 -37.5zM887 48c0 -14 -5 -26.5 -15 -37.5s-23 -16.5 -39 -16.5s-29 5.5 -39 16.5s-15 23.5 -15 37.5s5 26.5 15 37.5s23 16.5 39 16.5s29 -5.5 39 -16.5s15 -23.5 15 -37.5z" />
    <glyph glyph-name="perthousand" unicode="&#x2030;" horiz-adv-x="1000" 
d="M331 566c0 -21.333 -4 -41.333 -12 -60s-18.833 -35 -32.5 -49s-29.834 -25 -48.501 -33s-38.667 -12 -60 -12s-41.333 4 -60 12s-34.834 19 -48.501 33s-24.5 30.333 -32.5 49s-12 38.667 -12 60c0 20.667 4 40.334 12 59.001s18.833 35 32.5 49
s29.834 25.167 48.501 33.5s38.667 12.5 60 12.5s41.333 -4.16699 60 -12.5s34.834 -19.5 48.501 -33.5s24.5 -30.333 32.5 -49s12 -38.334 12 -59.001zM277 566c0 28 -9.5 51.667 -28.5 71s-42.5 29 -70.5 29s-51.5 -9.66699 -70.5 -29s-28.5 -43 -28.5 -71
s9.5 -51.667 28.5 -71s42.5 -29 70.5 -29s51.5 9.66699 70.5 29s28.5 43 28.5 71zM625 142c0 -21.333 -4 -41.333 -12 -60s-18.833 -35 -32.5 -49s-29.834 -25 -48.501 -33s-38.667 -12 -60 -12s-41.333 4 -60 12s-34.834 19 -48.501 33s-24.5 30.333 -32.5 49
s-12 38.667 -12 60c0 20.667 4 40.334 12 59.001s18.833 35 32.5 49s29.834 25.167 48.501 33.5s38.667 12.5 60 12.5s41.333 -4.16699 60 -12.5s34.834 -19.5 48.501 -33.5s24.5 -30.333 32.5 -49s12 -38.334 12 -59.001zM571 142c0 28 -9.5 51.667 -28.5 71
s-42.5 29 -70.5 29s-51.5 -9.66699 -70.5 -29s-28.5 -43 -28.5 -71s9.5 -51.667 28.5 -71s42.5 -29 70.5 -29s51.5 9.66699 70.5 29s28.5 43 28.5 71zM975 142c0 -21.333 -4 -41.333 -12 -60s-18.833 -35 -32.5 -49s-29.834 -25 -48.501 -33s-38.667 -12 -60 -12
s-41.333 4 -60 12s-34.834 19 -48.501 33s-24.5 30.333 -32.5 49s-12 38.667 -12 60c0 20.667 4 40.334 12 59.001s18.833 35 32.5 49s29.834 25.167 48.501 33.5s38.667 12.5 60 12.5s41.333 -4.16699 60 -12.5s34.834 -19.5 48.501 -33.5s24.5 -30.333 32.5 -49
s12 -38.334 12 -59.001zM921 142c0 28 -9.5 51.667 -28.5 71s-42.5 29 -70.5 29s-51.5 -9.66699 -70.5 -29s-28.5 -43 -28.5 -71s9.5 -51.667 28.5 -71s42.5 -29 70.5 -29s51.5 9.66699 70.5 29s28.5 43 28.5 71zM125 -31l-52 27l451 743l51 -27z" />
    <glyph glyph-name="guilsinglleft" unicode="&#x2039;" horiz-adv-x="315" 
d="M246 64l-47 -33l-140 209l140 209l47 -33l-115 -176z" />
    <glyph glyph-name="guilsinglright" unicode="&#x203a;" horiz-adv-x="315" 
d="M69 416l47 33l140 -209l-140 -209l-47 33l115 176z" />
    <glyph glyph-name="fraction" unicode="&#x2044;" horiz-adv-x="100" 
d="M-153 -31l-52 27l451 743l51 -27z" />
    <glyph glyph-name="Euro" unicode="&#x20ac;" horiz-adv-x="580" 
d="M511 633c-34 20 -76.3311 29.9971 -126.998 29.9971c-58 0 -105.833 -17.333 -143.5 -52s-63.5 -82 -77.5 -142h300l-18 -55h-291c-1.33301 -10 -2.5 -20.5 -3.5 -31.5s-1.5 -22.167 -1.5 -33.5c0 -8 0.333008 -17.5 1 -28.5s1.66699 -20.5 3 -28.5h256l-18 -55h-231
c5.33301 -29.333 14.666 -55.666 27.999 -78.999s29.833 -43.5 49.5 -60.5s42 -30 67 -39s51.5 -13.5 79.5 -13.5c26 0 50.167 3.16699 72.5 9.5s43.5 16.5 63.5 30.5l29 -56c-44.667 -31.333 -102.667 -47 -174 -47c-40 0 -76.5 7.16699 -109.5 21.5s-61.667 33.333 -86 57
s-44.166 50.834 -59.499 81.501s-26 62.334 -32 95.001h-76l20 55h49c-0.666992 6.66699 -1.33398 15.334 -2.00098 26.001s-1 20.667 -1 30c0 11.333 0.333008 23.166 1 35.499s1.66699 22.5 3 30.5h-69l20 55h57c9.33301 40.667 23.166 77 41.499 109s40.5 59 66.5 81
s55 38.667 87 50s66 17 102 17c28 0 55 -2.83301 81 -8.5s48.667 -13.5 68 -23.5l-25 -61v0z" />
    </font>
</defs>
</svg>
