<?xml version="1.0" encoding="UTF-8"?>
<svg width="216px" height="70px" viewBox="0 0 216 70" version="1.1" xmlns="http://www.w3.org/2000/svg" xmlns:xlink="http://www.w3.org/1999/xlink">
    <title>Y36</title>
    <g id="页面-1" stroke="none" stroke-width="1" fill="none" fill-rule="evenodd">
        <g id="midbanner-2备份" transform="translate(-360.000000, -452.000000)" fill="#242933" fill-rule="nonzero">
            <path d="M405.216,520 L405.216,495.04 C407.84,493.952 410.08,491.968 411.936,489.088 L411.936,489.088 L437.28,453.76 L422.976,453.76 L402.24,483.04 C401.344,484.32 400.32,484.96 399.168,484.96 C398.016,484.96 396.928,484.32 395.904,483.04 L395.904,483.04 L375.168,453.76 L360.864,453.76 L386.208,489.088 C388.064,491.904 390.272,493.856 392.832,494.944 L392.832,494.944 L392.832,520 L405.216,520 Z M469.344,521.152 C480.736,521.152 489.12,519.424 494.496,515.968 C499.936,512.448 502.656,507.04 502.656,499.744 C502.656,487.648 494.848,481.504 479.232,481.312 L479.232,481.312 L475.104,481.312 L496.992,464.992 C499.552,463.136 500.832,460.992 500.832,458.56 C500.832,455.552 499.04,453.952 495.456,453.76 L495.456,453.76 L443.712,453.76 L443.712,464.32 L482.688,464.32 L458.304,482.176 L458.304,490.336 L474.528,490.336 C480.032,490.336 483.904,490.976 486.144,492.256 C488.64,493.664 489.888,496.128 489.888,499.648 C489.888,503.616 488.352,506.4 485.28,508 C482.144,509.664 476.736,510.496 469.056,510.496 C459.456,510.496 450.624,509.504 442.56,507.52 L442.56,507.52 L442.56,518.272 C449.92,520.192 458.848,521.152 469.344,521.152 Z M545.28,521.152 C555.52,521.152 563.232,519.2 568.416,515.296 C573.408,511.52 575.904,505.952 575.904,498.592 C575.904,491.424 573.536,486.176 568.8,482.848 C564.256,479.648 557.344,478.048 548.064,478.048 C539.36,478.048 531.744,478.976 525.216,480.832 C526.048,474.048 528.576,469.376 532.8,466.816 C536.64,464.448 543.072,463.264 552.096,463.264 C558.944,463.264 565.248,463.872 571.008,465.088 L571.008,465.088 L571.008,454.336 C565.824,453.184 559.328,452.608 551.52,452.608 C538.4,452.608 528.736,455.264 522.528,460.576 C515.872,466.272 512.544,475.456 512.544,488.128 C512.544,499.52 515.168,507.872 520.416,513.184 C525.664,518.496 533.952,521.152 545.28,521.152 Z M545.184,510.592 C538.144,510.592 533.12,509.152 530.112,506.272 C526.976,503.264 525.248,497.984 524.928,490.432 C531.584,488.832 538.656,488.032 546.144,488.032 C552.224,488.032 556.608,488.832 559.296,490.432 C562.112,492.096 563.52,494.944 563.52,498.976 C563.52,503.008 562.048,505.952 559.104,507.808 C556.16,509.664 551.52,510.592 545.184,510.592 Z" id="Y36"></path>
        </g>
    </g>
</svg>